<svg id="Ebene_1" data-name="Ebene 1" xmlns="http://www.w3.org/2000/svg" viewBox="0 0 110 110">
  <title>Chef</title>
  <g id="Multicolor">
    <circle cx="55" cy="55" r="55" fill="#6a6a6a"/>
    <g>
      <path d="M92.4,44.2A14.19,14.19,0,0,0,78.2,30a13.9,13.9,0,0,0-8.7,3,17.52,17.52,0,0,0-28.6,0,13.9,13.9,0,0,0-8.7-3,14.2,14.2,0,0,0-7.6,26.2v22H85.9v-22A14.43,14.43,0,0,0,92.4,44.2Z" transform="translate(0 0)" fill="#f1f2f2"/>
      <rect x="68.3" y="54.1" width="4.4" height="19.7" fill="#e2e4e5"/>
      <path d="M55.2,78.1V25.6A17.48,17.48,0,0,0,40.9,33a13.9,13.9,0,0,0-8.7-3,14.2,14.2,0,0,0-7.6,26.2v22H55.2Z" transform="translate(0 0)" fill="#fff"/>
      <rect x="53" y="54.1" width="4.4" height="19.7" fill="#e2e4e5"/>
      <rect x="37.7" y="54.1" width="4.4" height="19.7" fill="#e2e4e5"/>
    </g>
  </g>
</svg>
