<svg id="Layer_1" data-name="Layer 1" xmlns="http://www.w3.org/2000/svg" viewBox="0 0 394.88 512">
  <title>choice</title>
  <g>
    <path d="M414.2,0H321.5a39.26,39.26,0,0,0-39.2,39.2v92.7a39.26,39.26,0,0,0,39.2,39.2h92.7a39.26,39.26,0,0,0,39.2-39.2V39.2A39.26,39.26,0,0,0,414.2,0Zm9.2,131.9a9.18,9.18,0,0,1-9.2,9.2H321.5a9.18,9.18,0,0,1-9.2-9.2V39.2a9.18,9.18,0,0,1,9.2-9.2h92.7a9.18,9.18,0,0,1,9.2,9.2v92.7Z" transform="translate(-58.52 0)" fill="#203959"/>
    <path d="M342.4,208.5a42.77,42.77,0,0,0-19.9,4.9,42.85,42.85,0,0,0-35.6-19.1,41.82,41.82,0,0,0-21.1,5.6,42.7,42.7,0,0,0-34.5-17.5,45.57,45.57,0,0,0-12.8,1.9V171h3.6a39.26,39.26,0,0,0,39.2-39.2V39.2A39.26,39.26,0,0,0,222.1,0H129.4A39.26,39.26,0,0,0,90.2,39.2v92.7a39.26,39.26,0,0,0,39.2,39.2H133V264a43.41,43.41,0,0,0-7.8-6.2,42.73,42.73,0,0,0-30.6-5.7c-11.4.5-21.6,5.4-28.3,13.8-7,8.8-9.4,20.6-6.7,32.3l19.7,84.4c11.2,70.4,66.2,123,68.5,125.3a15.23,15.23,0,0,0,10.3,4.1H326.8a14.76,14.76,0,0,0,12.5-6.8A277,277,0,0,0,385,352.6V251.2h0A42.53,42.53,0,0,0,342.4,208.5ZM164.5,482c-12.1-12.9-47.7-54.4-55.6-104.6-.1-.4-.1-.7-.2-1.1L88.9,291.4c-.7-2.8-.3-5.3.9-6.9s3.4-2.4,6.3-2.7c1.5-.1,2.1-.3,3.4-.4,3.4-.2,6.9,0,9.8,1.8a12.74,12.74,0,0,1,5.7,7.9l17.1,73.2a15,15,0,0,0,12.7,11.5l1.2.1a15.24,15.24,0,0,0,11.8-3.6,15,15,0,0,0,5.1-11.2V122.8a12.8,12.8,0,0,1,25.6,0V263.4a15,15,0,0,0,30,0V225.2a12.8,12.8,0,1,1,25.6,0v39.9a15,15,0,1,0,30,0v-28a12.8,12.8,0,0,1,25.6,0v38.5a15,15,0,0,0,30,0V251.2a12.8,12.8,0,0,1,25.6,0V352.6A247.15,247.15,0,0,1,318.8,482ZM120.3,131.9V39.2a9.18,9.18,0,0,1,9.2-9.2h92.7a9.18,9.18,0,0,1,9.2,9.2v92.7a9.18,9.18,0,0,1-9.2,9.2h-3.6V122.8a42.8,42.8,0,1,0-85.6,0v18.3h-3.6A9.22,9.22,0,0,1,120.3,131.9Z" transform="translate(-58.52 0)" fill="#203959"/>
  </g>
</svg>
