<svg id="Capa_1" data-name="Capa 1" xmlns="http://www.w3.org/2000/svg" viewBox="0 0 405.42 414.1">
  <title>help</title>
  <path d="M301.8,23.6A203.16,203.16,0,0,0,207.4,0C95.3,0,4.4,90.8,4.4,202.9A202.59,202.59,0,0,0,62,344.5l-8.5,60.3A8,8,0,0,0,60,414a8.44,8.44,0,0,0,5.8-1.2l46.1-30.6c99.1,52.5,221.9,14.7,274.3-84.4A202.81,202.81,0,0,0,301.8,23.6Zm38.6,310.7A187.14,187.14,0,0,1,115.5,366a8.14,8.14,0,0,0-8,0L71.4,389.4l7-46.5a8.17,8.17,0,0,0-2.3-6.8C2.5,263.7,1.7,145.3,74.2,71.8a187,187,0,0,1,264.4-1.9C412.2,142.4,412.9,260.8,340.4,334.3Z" transform="translate(-4.4 0)" fill="#203959"/>
  <path d="M253.2,274.8h-6.6V156.6a8,8,0,0,0-8-8h-69a8,8,0,0,0-8,8v28.8a8,8,0,0,0,8,8h6.7v81.4h-6.7a8,8,0,0,0-8,8v28.8a8,8,0,0,0,8,8h83.7a8,8,0,0,0,8-8V282.8A8.18,8.18,0,0,0,253.2,274.8Zm-75.7,28.8V290.8h6.7a8,8,0,0,0,8-8V185.4a8,8,0,0,0-8-8h-6.7V164.6h53V282.8a8,8,0,0,0,8,8h6.6l.1,12.8Z" transform="translate(-4.4 0)" fill="#203959"/>
  <path d="M207.4,70.4a33.5,33.5,0,1,0,33.5,33.5A33.5,33.5,0,0,0,207.4,70.4Zm0,51.1a17.55,17.55,0,0,1-.1-35.1h.1v.1a17.5,17.5,0,0,1,0,35Z" transform="translate(-4.4 0)" fill="#203959"/>
</svg>
