<svg id="mail" xmlns="http://www.w3.org/2000/svg" viewBox="0 0 31 22">
  <title>mailNew</title>
  <g>
    <g>
      <path d="M25.1,21.5a.37.37,0,0,1-.3-.1L19,16a.49.49,0,0,1,.7-.7l5.8,5.4a.48.48,0,0,1,0,.7A.6.6,0,0,1,25.1,21.5Z" transform="translate(0 -4.5)"/>
      <path d="M5.9,21.5a.76.76,0,0,1-.4-.2.48.48,0,0,1,0-.7l5.8-5.4a.49.49,0,0,1,.7.7L6.2,21.3C6.1,21.5,6,21.5,5.9,21.5Z" transform="translate(0 -4.5)"/>
    </g>
    <path d="M28.5,26.5H2.5A2.48,2.48,0,0,1,0,24V7A2.48,2.48,0,0,1,2.5,4.5h26A2.48,2.48,0,0,1,31,7V24A2.48,2.48,0,0,1,28.5,26.5Zm-26-21A1.54,1.54,0,0,0,1,7V24a1.54,1.54,0,0,0,1.5,1.5h26A1.54,1.54,0,0,0,30,24V7a1.54,1.54,0,0,0-1.5-1.5Z" transform="translate(0 -4.5)"/>
    <path d="M15.5,18a2.41,2.41,0,0,1-1.8-.7L.8,6.2a.6.6,0,0,1,0-.8.48.48,0,0,1,.7,0L14.3,16.6a1.82,1.82,0,0,0,2.4,0L29.5,5.4a.49.49,0,1,1,.7.7L17.3,17.4A2.79,2.79,0,0,1,15.5,18Z" transform="translate(0 -4.5)"/>
  </g>
</svg>
