<svg id="partner" xmlns="http://www.w3.org/2000/svg" viewBox="0 0 512.01 411.06">
  <title>partnerNeu</title>
  <path d="M408.4,128.9a10,10,0,1,0-14.1,0h0A10,10,0,0,0,408.4,128.9Z" transform="translate(0.01 -50.91)" fill="#203959"/>
  <path d="M130.5,149.6a10,10,0,1,0-14.1,0h0A10,10,0,0,0,130.5,149.6Z" transform="translate(0.01 -50.91)" fill="#203959"/>
  <path d="M71.6,207.2l29.9-29.9A10,10,0,1,0,87.6,163l-.2.2L57.5,193.1a10,10,0,0,0,.2,14.1A9.9,9.9,0,0,0,71.6,207.2Z" transform="translate(0.01 -50.91)" fill="#203959"/>
  <path d="M441.4,178.2a10,10,0,0,0,14.1-14.1l-20-19.9a10,10,0,0,0-14.1,14.1Z" transform="translate(0.01 -50.91)" fill="#203959"/>
  <path d="M509.1,167.1,396,53.9a9.93,9.93,0,0,0-14-.2c-8.8,8.3-50,47.2-50.6,47.8l-.1.1c-9.8,9.8-19.4,14.1-31.2,14.1-24.1,0-42.6,6.8-58,21.4-12.6-11.9-26.9-18.1-46.8-20.2l-50-50a10,10,0,0,0-14.1,0L2.9,195.1A10,10,0,0,0,2.7,209l.2.2,83.5,83.4-3.5,3.5A35,35,0,0,0,108,355.8a35,35,0,0,0,34.6,35.4h.7a34.87,34.87,0,0,0,34.5,35.3h.9a35,35,0,0,0,59.7,25.2l3.5-3.5,3.5,3.5a35,35,0,0,0,59.7-25.1,34.91,34.91,0,0,0,35.3-34.7v-.7a35,35,0,0,0,35.4-34.6v-.8a35,35,0,0,0,25.1-59.7l-3.5-3.5c69.7-69.6-18.5,18.6,111.5-111.4A9.79,9.79,0,0,0,509.1,167.1Zm-485,35,114-114,38.4,38.4-114,114ZM97,331.5a14.91,14.91,0,0,1,0-21.2l35.4-35.4a15,15,0,0,1,21.2,21.2l-35.3,35.4a15.21,15.21,0,0,1-21.3,0Zm35.4,35.3a14.91,14.91,0,0,1,0-21.2h0l35.3-35.4a15,15,0,1,1,21.2,21.2h0l-35.4,35.4a14.79,14.79,0,0,1-21.1,0Zm35.3,35.4a14.91,14.91,0,0,1,0-21.2l35.4-35.4a15,15,0,0,1,21.2,21.2h0L189,402.2a15.12,15.12,0,0,1-21.3,0Zm35.4,35.3a14.91,14.91,0,0,1,0-21.2h0L238.5,381a15,15,0,0,1,21.2,21.2l-35.4,35.4a15,15,0,0,1-21.2-.1Zm77.7,0a14.91,14.91,0,0,1-21.2,0l-3.5-3.5,17.7-17.7a39,39,0,0,0,3.3-3.8l3.8,3.8h0a15,15,0,0,1-.1,21.2ZM387,331.5a14.91,14.91,0,0,1-21.2,0h0l-46-46a10,10,0,0,0-14.1,14.1l46,46a15,15,0,0,1-20.8,21.6l-.4-.4-46-46A10,10,0,1,0,270.3,335l46,46a15,15,0,0,1-10.6,25.6c-9.5,0-12.6-7.5-21.6-15.4a35,35,0,0,0-35.4-34.6A34.91,34.91,0,0,0,214,321.3h-.7a35,35,0,0,0-34.6-35.4h-.8a35,35,0,0,0-59.7-25.2l-17.7,17.7L76.7,254.6,194.4,137c14.6,1.7,24.4,5.9,33.4,14.2l-28.2,28.2a40,40,0,0,0,56.6,56.5l28.3-28.3c18.3,18.3,89.2,89.2,102.6,102.5A15.24,15.24,0,0,1,387,331.5Zm-3.5-53-84.9-84.9,7.1-7.1a10,10,0,0,0-14.1-14.1L242,221.9a20,20,0,0,1-28.3-28.3h0l40.7-40.7c11.9-11.9,25.9-17.2,45.6-17.2a58.68,58.68,0,0,0,37.8-13.2l99.6,102.2Zm68.1-68L352.6,109l36.1-34,99.2,99.2Z" transform="translate(0.01 -50.91)" fill="#203959"/>
</svg>
