<?xml version="1.0" encoding="utf-8"?>
<!-- Generator: Adobe Illustrator 23.0.1, SVG Export Plug-In . SVG Version: 6.00 Build 0)  -->
<svg version="1.1" id="prozess-of-order" xmlns="http://www.w3.org/2000/svg" xmlns:xlink="http://www.w3.org/1999/xlink" x="0px"
	 y="0px" viewBox="0 0 841.9 595.3" style="enable-background:new 0 0 841.9 595.3;" xml:space="preserve">
<style type="text/css">
	.st0{fill:#FFFFFF;}
	.st1{fill:#213959;}
	.st2{fill:#69BC90;}
	.st3{font-family:'NunitoSans-Regular';}
	.st4{font-size:21px;}
	.st5{fill:#57CF95;}
	.st6{fill:#203858;}
	.st7{fill:#213959;stroke:#213959;stroke-miterlimit:10;}
	.st8{fill:#213959;stroke:#213959;stroke-width:0.7535;stroke-miterlimit:10;}
	.st9{clip-path:url(#SVGID_2_);}
	.st10{fill:none;stroke:#213959;stroke-width:2.83;stroke-linejoin:round;}
	.st11{fill:none;}
	.st12{fill:none;stroke:#213959;stroke-width:2.83;}
</style>
<g id="money">
	<circle class="st0" cx="387" cy="435.2" r="52.1"/>
	<path class="st1" d="M410.5,457.7h-59.7v-41.6h9.7c0.7,0,1.2-0.6,1.2-1.2c0-0.7-0.5-1.2-1.2-1.2h-10.9c-0.7,0-1.2,0.6-1.2,1.2V459
		c0,0.7,0.5,1.2,1.2,1.2l0,0h10.7l4.6,9.9c0.3,0.6,1,0.9,1.6,0.6l4.5-2.1l13.6,9.7c0.5,0.4,1.3,0.3,1.7-0.3c0,0,0,0,0,0l12.7-17.8
		h11.6c0.7,0,1.2-0.5,1.2-1.2C411.7,458.3,411.2,457.7,410.5,457.7C410.5,457.7,410.5,457.7,410.5,457.7z M362.9,460.2h20.2
		l-16.6,7.7L362.9,460.2z M384.9,475.5l-11.5-8.2l15.5-7.2h6.9L384.9,475.5z"/>
	<path class="st1" d="M430.8,413.6h-10.7l-4.6-9.9c-0.3-0.6-1-0.9-1.6-0.6l-4.5,2.1l-13.6-9.7c-0.6-0.4-1.3-0.3-1.7,0.3l-12.7,17.8
		h-16.1c-0.7,0-1.2,0.5-1.2,1.2c0,0.7,0.5,1.2,1.2,1.2c0,0,0,0,0,0h64.2v41.7h-14.2c-0.7-0.1-1.3,0.4-1.3,1.1
		c-0.1,0.7,0.4,1.3,1.1,1.3c0.1,0,0.1,0,0.2,0h15.4c0.7,0,1.2-0.5,1.2-1.2v-44.1C432,414.2,431.5,413.6,430.8,413.6z M417.4,413.6
		h-20.2l16.6-7.7L417.4,413.6z M395.4,398.2l11.5,8.2l-15.5,7.2h-6.9L395.4,398.2z"/>
	<path class="st1" d="M390.1,448.6c6.5,0,11.7-5.3,11.7-11.7s-5.3-11.7-11.7-11.7c-6.5,0-11.7,5.3-11.7,11.7c0,0,0,0,0,0
		C378.4,443.4,383.7,448.6,390.1,448.6z M390.1,427.6c5.1,0,9.3,4.1,9.3,9.3c0,5.1-4.1,9.3-9.3,9.3c-5.1,0-9.3-4.1-9.3-9.3
		c0,0,0,0,0,0C380.9,431.8,385,427.7,390.1,427.6z"/>
	<path class="st1" d="M379.8,454.2h37.4c0.7,0,1.2-0.6,1.2-1.2c0.3-3.3,3-6,6.3-6.1c0.7,0,1.2-0.6,1.2-1.2v-17.4
		c0-0.7-0.6-1.2-1.2-1.2c-3.3-0.2-6-2.8-6.3-6.1c0-0.7-0.6-1.2-1.2-1.2h-54.7c-0.7,0-1.2,0.5-1.2,1.2c0,3.3-2.6,6.2-5.6,6.2
		c-0.7,0-1.2,0.6-1.2,1.2v17.3c0,0.7,0.5,1.2,1.2,1.2l0,0c3,0,5.6,2.9,5.6,6.2c0,0.7,0.6,1.2,1.2,1.2h12.4c0.7,0,1.2-0.6,1.2-1.2
		c0-0.7-0.5-1.2-1.2-1.2h-11.2c-0.3-1.8-1-3.4-2.2-4.7c-1.2-1.3-2.8-2.3-4.5-2.6v-15c1.8-0.3,3.3-1.2,4.5-2.6c1.2-1.3,2-3,2.2-4.7
		h52.5c0.8,3.7,3.7,6.6,7.4,7.3v15.1c-3.7,0.7-6.6,3.6-7.4,7.3h-36.3c-0.7,0-1.2,0.6-1.2,1.2C378.6,453.7,379.1,454.2,379.8,454.2z"
		/>
</g>
<g id="clock">
	<rect x="259.1" y="231.6" class="st0" width="100.9" height="92.2"/>
	<path class="st1" d="M316.3,307c-0.5,0.1-0.9,0.2-1.4,0.3c-1.3,0.2-2.1,1.4-1.9,2.7c0.1,0.6,0.5,1.1,1,1.5c0.5,0.4,1.1,0.5,1.8,0.4
		c0.6-0.1,1.2-0.2,1.7-0.4c1.2-0.3,2-1.6,1.7-2.8S317.6,306.7,316.3,307L316.3,307L316.3,307z"/>
	<path class="st1" d="M340.9,265.4c0.1,0.5,0.4,0.9,0.7,1.1c0.9,0.7,2.1,0.5,2.7-0.5c0.4-0.6,0.4-1.3,0.3-2
		c-0.2-0.5-0.3-1.1-0.5-1.6c-0.4-1.2-1.5-1.7-2.5-1.3c-1,0.5-1.5,1.8-1.1,3C340.6,264.5,340.8,264.9,340.9,265.4z"/>
	<path class="st1" d="M326.4,302.6c-0.4,0.3-0.8,0.5-1.3,0.8c-1.1,0.6-1.5,2-0.9,3.2c0.2,0.3,0.4,0.5,0.7,0.7
		c0.7,0.5,1.7,0.6,2.5,0.1c0.5-0.3,1-0.6,1.5-0.9c1.1-0.7,1.4-2.1,0.6-3.2S327.5,301.8,326.4,302.6L326.4,302.6L326.4,302.6z"/>
	<path class="st1" d="M345.2,274.8c0-1.4-0.9-2.6-2.1-2.6s-2.1,1.1-2.1,2.5c0,0.1,0,0.1,0,0.2c0,0.5,0,1.1,0,1.6
		c0,0.8,0.3,1.7,0.9,2.1c0.3,0.3,0.7,0.5,1.2,0.5c1.2,0,2.1-1.1,2.2-2.5c0,0,0,0,0,0C345.3,276.1,345.3,275.4,345.2,274.8z"/>
	<path class="st1" d="M337.7,294.7c-1-0.8-2.5-0.6-3.3,0.5c-0.3,0.4-0.6,0.8-0.9,1.2c-0.8,1-0.7,2.5,0.3,3.3c0.1,0,0.1,0.1,0.2,0.1
		c1,0.7,2.4,0.5,3.2-0.4c0.4-0.5,0.8-0.9,1.1-1.4C339,296.9,338.7,295.5,337.7,294.7z"/>
	<path class="st1" d="M342.3,284c-1.2-0.4-2.5,0.3-2.9,1.5c0,0,0,0,0,0c-0.1,0.5-0.3,0.9-0.5,1.4c-0.4,1,0,2.1,0.8,2.7
		c0.2,0.1,0.3,0.2,0.5,0.3c1.2,0.5,2.5-0.1,3-1.3c0.2-0.5,0.4-1.1,0.6-1.7C344.2,285.6,343.5,284.3,342.3,284
		C342.3,284,342.3,284,342.3,284z"/>
	<path class="st1" d="M304.3,308.4c-2.7-0.5-5.2-1.3-7.7-2.4c0,0-0.1,0-0.1,0c-0.6-0.3-1.2-0.6-1.7-0.9l0,0c-1-0.5-2-1.2-3-1.8
		c-16.3-9.7-18.8-33.3-7.6-46.5c2.1-3,3.8-4.5,7.2-6.9c0,0,1.7-1.2,1.7-1.2c10.5-7.3,24.4-6,35,1.1l-2.3,3.4
		c-0.7,0.9-0.3,1.6,0.9,1.5l10.2-0.9c0.9,0,0.6,0.2,0.6-0.7c0-0.2,0-0.3-0.1-0.5l-2.7-9.8c-0.3-1.1-1.1-1.2-1.7-0.3l-2.3,3.4
		c-8-5.4-17.7-7.4-27.1-5.8c-1,0.2-1.9,0.4-2.8,0.6l0,0h-0.1c-8.2,2.1-15.5,7-20.6,13.8c0,0-0.1,0.1-0.1,0.2
		c-0.2,0.2-0.3,0.5-0.5,0.7c-0.3,0.4-0.5,0.8-0.8,1.2c0,0-0.1,0.1-0.1,0.1c-4.2,6.5-6.3,14.1-5.9,21.8v0.1c0,0.8,0.1,1.5,0.2,2.3
		c0,0.1,0,0.1,0,0.1c0.1,0.8,0.2,1.5,0.3,2.3c1.3,7.6,4.9,14.6,10.4,20.1l0,0l0,0c1.5,1.5,3.1,2.8,4.8,4c4.4,3.1,9.5,5.3,14.9,6.2
		c1.6,0.3,3.2-0.8,3.5-2.4C306.9,309.2,305.8,308.7,304.3,308.4L304.3,308.4z"/>
	<path class="st1" d="M307.2,253c-1.3,0-1.7,1-1.7,2.3v23.8l21.8,11.3c1.2,0.6,1.9,0.6,2.5-0.5c0.6-1.2,0.2-1.7-1-2.3l0,0L309,277.1
		l-0.1-22C308.9,253.8,308.6,253,307.2,253z"/>
</g>
<g id="partner">
	<rect x="28.2" y="228.1" class="st0" width="111.6" height="102"/>
	<path class="st1" d="M112,255.6c0.8-0.8,0.8-2,0-2.7c-0.8-0.8-2-0.8-2.7,0s-0.8,2,0,2.7c0,0,0,0,0,0
		C110,256.4,111.2,256.4,112,255.6z"/>
	<path class="st1" d="M57.9,259.7c0.8-0.8,0.8-2,0-2.7s-2-0.8-2.7,0s-0.8,2,0,2.7c0,0,0,0,0,0C55.9,260.4,57.2,260.4,57.9,259.7z"/>
	<path class="st1" d="M46.5,270.9l5.8-5.8c0.8-0.8,0.8-2,0-2.7c-0.8-0.8-2-0.8-2.7,0l0,0l-5.8,5.8c-0.8,0.8-0.8,2,0,2.7
		S45.7,271.6,46.5,270.9L46.5,270.9z"/>
	<path class="st1" d="M118.4,265.2c0.8,0.8,2,0.8,2.7,0c0.8-0.8,0.8-2,0-2.7l-3.9-3.9c-0.8-0.8-2-0.8-2.7,0s-0.8,2,0,2.7
		L118.4,265.2z"/>
	<path class="st1" d="M131.6,263.1l-22-22c-0.8-0.7-1.9-0.7-2.7,0l-9.9,9.2l0,0c-1.5,1.7-3.8,2.7-6.1,2.7c-4.7,0-8.3,1.3-11.3,4.2
		c-2.5-2.3-5.7-3.7-9.1-3.9l-9.7-9.7c-0.8-0.8-2-0.8-2.7,0c0,0,0,0,0,0l-25,25c-0.7,0.8-0.7,1.9,0,2.7l0,0l16.3,16.2l-0.7,0.7
		c-2.7,2.7-2.7,7,0,9.6c1.3,1.3,3,2,4.9,2c-0.1,3.7,2.9,6.8,6.7,6.9c0.1,0,0.1,0,0.2,0c-0.1,3.7,2.9,6.8,6.6,6.9c0.1,0,0.1,0,0.2,0
		c-0.1,3.8,3,6.8,6.7,6.9c1.8,0,3.6-0.7,4.9-2l0.7-0.7l0.7,0.7c2.7,2.7,7,2.7,9.6,0c1.3-1.3,2-3.1,2-4.9c3.7,0.1,6.8-2.9,6.9-6.7
		c0-0.1,0-0.1,0-0.2c1.8,0,3.6-0.7,4.9-2c1.3-1.3,2-3.1,2-4.9c3.8,0,6.8-3,6.9-6.7c0-1.8-0.7-3.6-2-4.9l-0.7-0.7
		c13.6-13.5-3.6,3.6,21.7-21.7C132.3,265.1,132.4,263.9,131.6,263.1C131.7,263.1,131.6,263.1,131.6,263.1z M37.2,269.9l22.2-22.2
		l7.5,7.5l-22.2,22.2L37.2,269.9z M51.4,295.1c-1.1-1.1-1.2-3,0-4.1c0,0,0,0,0,0l6.9-6.9c1.1-1.1,3-1.1,4.1,0c1.1,1.1,1.2,3,0,4.1
		c0,0,0,0,0,0l-6.9,6.9C54.4,296.2,52.6,296.2,51.4,295.1z M58.3,302c-1.1-1.1-1.1-3,0-4.1c0,0,0,0,0,0l6.9-6.9
		c1.1-1.1,2.9-1.2,4.1,0c0,0,0,0,0,0c1.1,1.1,1.1,3,0,4.1c0,0,0,0,0,0l0,0l-6.9,6.9C61.3,303.1,59.5,303.2,58.3,302
		C58.3,302,58.3,302,58.3,302z M65.2,308.9c-1.1-1.1-1.2-2.9,0-4.1c0,0,0,0,0,0l6.9-6.9c1.2-1.1,3-1,4.1,0.2c1,1.1,1,2.8,0,3.9l0,0
		l-6.9,6.9C68.2,310,66.3,310,65.2,308.9L65.2,308.9z M72.1,315.8c-1.1-1.1-1.2-3,0-4.1c0,0,0,0,0,0l6.9-6.9c1.2-1.1,3-1,4.1,0.2
		c1,1.1,1,2.8,0,3.9l-6.9,6.9C75.1,316.9,73.3,316.9,72.1,315.8C72.1,315.8,72.1,315.7,72.1,315.8L72.1,315.8z M87.2,315.8
		c-1.2,1.1-3,1.1-4.1,0l-0.7-0.8l3.4-3.4c0.2-0.2,0.4-0.5,0.6-0.7l0.7,0.7l0,0C88.4,312.7,88.4,314.5,87.2,315.8
		C87.2,315.7,87.2,315.7,87.2,315.8L87.2,315.8z M107.9,295.1c-1.1,1.1-3,1.1-4.1,0l-9-9c-0.8-0.7-2-0.6-2.7,0.2
		c-0.6,0.7-0.6,1.8,0,2.5l9,9c1.2,1.1,1.2,3,0,4.2s-3,1.2-4.2,0l-9-9c-0.8-0.7-2-0.7-2.7,0.1c-0.7,0.7-0.7,1.9,0,2.6l9,9
		c1.1,1.1,1.1,3,0,4.1c-0.5,0.6-1.3,0.9-2.1,0.9c-1.8,0-2.4-1.5-4.2-3c0-1.8-0.7-3.5-2-4.8c-1.3-1.3-3.1-2-4.9-2
		c0.1-3.7-2.9-6.8-6.6-6.9c-0.1,0-0.1,0-0.2,0c0-3.8-3-6.9-6.7-6.9c-0.1,0-0.1,0-0.2,0c0-3.8-3-6.8-6.7-6.9c-1.8,0-3.6,0.7-4.9,2
		l-3.5,3.4l-4.6-4.6l22.9-22.9c2.4,0.1,4.7,1.1,6.5,2.7l-5.5,5.5c-2.9,3.2-2.6,8.1,0.6,11c3,2.6,7.4,2.6,10.4,0l5.5-5.5l20,20
		C109,292.1,109,293.9,107.9,295.1L107.9,295.1z M107.2,284.8l-16.5-16.6l1.4-1.4c0.7-0.8,0.7-2-0.1-2.7c-0.7-0.7-1.9-0.7-2.6,0
		l-9.6,9.6c-1.6,1.5-4.1,1.3-5.5-0.2c-1.4-1.5-1.4-3.8,0-5.3l7.9-7.9c2.3-2.3,5-3.4,8.9-3.4c2.7,0,5.3-0.9,7.4-2.6l19.4,19.9
		C105,286.9,107.5,284.4,107.2,284.8L107.2,284.8z M120.4,271.6l-19.3-19.8l7-6.6l19.3,19.3L120.4,271.6z"/>
</g>
<g id="arrows">
	<path class="st2" d="M183.6,287.5c-0.4,0.4-1,0.4-1.4,0c0,0,0,0,0,0c-0.4-0.4-0.4-1.1,0-1.5c0,0,0,0,0,0l12.7-12.9l-12.7-12.9
		c-0.4-0.4-0.4-1.1,0-1.5c0.4-0.4,1-0.4,1.4,0l0,0l13.5,13.7c0.4,0.4,0.4,1.1,0,1.5L183.6,287.5z"/>
	<path class="st2" d="M447.8,110.3c-0.3,0.5-0.9,0.7-1.4,0.4c-0.5-0.3-0.7-0.9-0.4-1.4l8.7-16L439,84.4c-0.5-0.3-0.6-1-0.3-1.4
		c0.3-0.4,0.8-0.6,1.3-0.4l16.6,9.4c0.5,0.3,0.7,0.9,0.4,1.4c0,0,0,0,0,0L447.8,110.3z"/>
	<path class="st2" d="M746,198.4c-0.3-0.1-0.5-0.2-0.6-0.5c-0.1-0.2-0.2-0.5-0.1-0.8c0.1-0.6,0.7-0.9,1.2-0.7c0,0,0,0,0,0l17.3,4.9
		l4.8-17.6c0.1-0.6,0.6-0.9,1.2-0.8s0.9,0.7,0.8,1.2c0,0,0,0.1,0,0.1l-5.1,18.7c-0.2,0.6-0.7,0.9-1.3,0.7c0,0,0,0,0,0L746,198.4z"/>
	<path class="st2" d="M750.2,350.6c-0.1-0.6,0.3-1.1,0.8-1.2c0.6-0.1,1.1,0.3,1.2,0.8c0,0,0,0,0,0l3.3,18l17.7-3.4
		c0.6-0.1,1.1,0.3,1.2,0.8c0.1,0.6-0.3,1.1-0.8,1.2l-18.7,3.6c-0.6,0.1-1.1-0.3-1.2-0.8c0,0,0,0,0,0L750.2,350.6z"/>
	<path class="st2" d="M634.5,478c0.2-0.5,0.7-0.9,1.3-0.7c0,0,0,0,0,0c0.5,0.2,0.8,0.8,0.7,1.3c0,0,0,0,0,0l-5.4,17.5l17.2,5.4
		c0.5,0.2,0.8,0.8,0.6,1.3c-0.2,0.5-0.7,0.8-1.2,0.7l-18.2-5.8c-0.5-0.2-0.8-0.8-0.7-1.3L634.5,478z"/>
	<path class="st2" d="M457.6,478.1c0.5-0.2,1.1,0.1,1.3,0.7c0,0,0,0,0,0c0.2,0.5-0.1,1.1-0.7,1.3c0,0,0,0,0,0l-17.2,5.3l5.2,17.5
		c0.2,0.6-0.1,1.1-0.7,1.3s-1.1-0.1-1.3-0.7l-5.5-18.5c-0.1-0.5,0.2-1.1,0.7-1.3L457.6,478.1z"/>
	<path class="st2" d="M614.9,108.6c-0.2,0.1-0.5,0.2-0.8,0.1c-0.5-0.1-0.9-0.7-0.7-1.3c0.1-0.3,0.2-0.5,0.5-0.6l15.4-9.4L620,81.7
		c-0.3-0.5-0.1-1.1,0.4-1.4c0.5-0.3,1.1-0.1,1.4,0.4l9.8,16.6c0.3,0.5,0.1,1.1-0.4,1.4L614.9,108.6z"/>
	<path class="st2" d="M330,359.2c0.3,0.1,0.5,0.3,0.6,0.5c0.1,0.2,0.1,0.5,0.1,0.8c-0.2,0.5-0.8,0.8-1.3,0.7c0,0,0,0,0,0l-17-5.9
		l-5.8,17.3c-0.2,0.5-0.8,0.8-1.3,0.7c-0.5-0.2-0.8-0.8-0.6-1.3l0,0l6.1-18.3c0.2-0.5,0.8-0.8,1.3-0.7L330,359.2z"/>
	<path class="st2" d="M327.7,208c0.2,0.6-0.2,1.1-0.7,1.3c-0.5,0.2-1.1-0.2-1.3-0.7l0,0l-4.9-17.6l-17.3,5c-0.5,0.2-1.1-0.2-1.3-0.7
		c-0.2-0.6,0.2-1.1,0.7-1.3l0,0l18.3-5.3c0.5-0.1,1.1,0.2,1.3,0.7L327.7,208z"/>
</g>
<g id="circle_1_">
	<g id="circle">
		<text transform="matrix(1 0 0 1 458.08 302.95)" class="st1 st3 st4">Be</text>
		<text transform="matrix(1 0 0 1 483.3 302.95)" class="st1 st3 st4">s</text>
		<text transform="matrix(1 0 0 1 493.28 302.95)" class="st1 st3 st4">tella</text>
		<text transform="matrix(1 0 0 1 532.36 302.95)" class="st1 st3 st4">b</text>
		<text transform="matrix(1 0 0 1 544.45 302.95)" class="st1 st3 st4">wicklungs-</text>
		<text transform="matrix(1 0 0 1 516.56 328.15)" class="st1 st3 st4">p</text>
		<text transform="matrix(1 0 0 1 528.79 328.15)" class="st1 st3 st4">r</text>
		<text transform="matrix(1 0 0 1 535.99 328.15)" class="st1 st3 st4">oz</text>
		<text transform="matrix(1 0 0 1 557.75 328.15)" class="st1 st3 st4">ess</text>
	</g>
	<g id="Gruppe_31_1_" transform="translate(-68.404 -41.745)">
		<path id="Pfad_56_1_" class="st5" d="M617.8,259.9c38.7,0,36.2,12.7,36.2,32.6s-16.3,20.9-36.2,20.9s-36.9-1-36.9-20.9
			S579.1,259.9,617.8,259.9z"/>
		<g id="Gruppe_30_1_" transform="translate(77.683 41.745)">
			<path id="Differenzmenge_5_1_" class="st6" d="M569.4,236.2h-58.1V226h58.1V236.2z M564.9,230.3c-0.6,0-1.1,0.5-1.1,1.1
				c0,0.6,0.5,1.1,1.1,1.1c0.6,0,1.1-0.5,1.1-1.1c0,0,0,0,0,0C566,230.8,565.5,230.3,564.9,230.3z M515.3,230.3
				c-0.6,0-1.1,0.5-1.1,1.1s0.5,1.1,1.1,1.1c0.6,0,1.1-0.5,1.1-1.1C516.4,230.8,515.9,230.3,515.3,230.3z"/>
			<path id="Differenzmenge_6_1_" class="st6" d="M569.4,248.2h-58.1V238h58.1V248.2z M564.9,242.3c-0.6,0-1.1,0.5-1.1,1.1
				c0,0.6,0.5,1.1,1.1,1.1c0.6,0,1.1-0.5,1.1-1.1c0,0,0,0,0,0C566,242.8,565.5,242.3,564.9,242.3z M515.3,242.3
				c-0.6,0-1.1,0.5-1.1,1.1s0.5,1.1,1.1,1.1c0.6,0,1.1-0.5,1.1-1.1C516.4,242.8,515.9,242.3,515.3,242.3z"/>
			<path id="Differenzmenge_7_1_" class="st6" d="M569.4,260.1h-58.1v-10.2h58.1V260.1z M564.9,254.2c-0.6,0-1.1,0.5-1.1,1.1
				c0,0.6,0.5,1.1,1.1,1.1c0.6,0,1.1-0.5,1.1-1.1c0,0,0,0,0,0C566,254.7,565.5,254.2,564.9,254.2z M515.3,254.2
				c-0.6,0-1.1,0.5-1.1,1.1s0.5,1.1,1.1,1.1c0.6,0,1.1-0.5,1.1-1.1C516.4,254.7,515.9,254.2,515.3,254.2z"/>
			<path id="Pfad_55_1_" class="st6" d="M511.4,224.7c0,0-3.8-9.4,0-11.4c3.8-2.1,8.9,2.7,8.9,2.7s4.1-7.9,11.4-7.9
				c7.3,0,10,9.9,10,9.9s3.5-3.3,5.9-3.3c2.4,0,3.7,3.3,3.7,3.3s1-2.2,2.5-2s2.4,2.7,2.4,2.7s1.2-2.1,2.9-1.8
				c1.6,0.3,2.2,3.9,2.2,3.9s3.7-13.1,5.5-12.7c0,0-4-1.1-2-3.2c2-2.1,2,3.2,2,3.2s1.8-3.8,2.8-2.3s-2.8,2.3-2.8,2.3
				c2.6,0.6-1.1,13.5-1.1,13.5s9.1-15,12.4-13.5c0,0-2.4-1.6-0.6-3.4c1.9-1.8,0.6,3.4,0.6,3.4s2.2-3.2,2.9-1.6
				c0.7,1.6-2.9,1.6-2.9,1.6c2,2.3-8.6,16.6-8.6,16.6L511.4,224.7z"/>
		</g>
	</g>
</g>
<g id="cart_1_">
	<circle class="st0" cx="387.1" cy="130.4" r="56.2"/>
	<g id="cart">
		<path class="st7" d="M387,94.4c-20.4,0-36.9,15.9-36.9,35.5c0,19.6,16.5,35.5,36.9,35.5c20.4,0,36.9-15.9,36.9-35.5c0,0,0,0,0,0
			C423.9,110.4,407.4,94.5,387,94.4z M387,163.1c-19,0-34.5-14.9-34.5-33.2S368,96.8,387,96.8c19,0,34.5,14.9,34.5,33.2c0,0,0,0,0,0
			C421.5,148.3,406,163.1,387,163.1L387,163.1z"/>
		<path class="st8" d="M403.2,116.9c-1.5-0.9-2.3,0.3-3.5,1.7L382,139l-10.7-8.1c-1.6-1.2-2.5-2-4-0.9c-1.4,1.2-0.4,2.3,0.7,3.2
			c0.1,0.1,0.3,0.3,0.5,0.4l11.2,8.8c0.7,0.5,1.7,0.8,2.7,0.7l0.4-0.1c0.8-0.2,1.6-0.6,2.1-1.2l18.1-21.9
			C404.1,118.5,404.1,117.5,403.2,116.9C403.2,116.9,403.2,116.9,403.2,116.9L403.2,116.9z"/>
	</g>
</g>
<g id="app_1_">
	<circle class="st0" cx="548.4" cy="72.7" r="56.2"/>
	<g id="app">
		<path class="st1" d="M536.8,102.4c-0.3-0.3-0.7-0.5-1.1-0.4c-0.4,0-0.8,0.2-1.1,0.4c-0.3,0.3-0.5,0.7-0.5,1.1
			c0,0.4,0.2,0.8,0.5,1.1c0.3,0.3,0.7,0.5,1.1,0.4c0.4,0,0.8-0.2,1.1-0.4c0.3-0.3,0.5-0.7,0.5-1.1
			C537.3,103.1,537.1,102.7,536.8,102.4z"/>
		<path class="st1" d="M557.9,35.1H548c-0.9,0-1.6,0.7-1.6,1.6c0,0.9,0.7,1.6,1.6,1.6h9.8c0.9,0,1.6-0.7,1.6-1.6
			C559.5,35.8,558.8,35.1,557.9,35.1C557.9,35.1,557.9,35.1,557.9,35.1z"/>
		<path class="st1" d="M574.3,66.1c0.9,0,1.6-0.7,1.6-1.6v0V36.4c0-3.1-2.5-5.7-5.7-5.7c0,0,0,0,0,0h-34.4c-3.1,0-5.7,2.5-5.7,5.7
			c0,0,0,0,0,0v10.8c-9.4,7.6-14.9,19.1-14.9,31.2v16.4h-1.4c-1.7,0-3.1,1.4-3.1,3.1v11.4c0,0.9,0.7,1.6,1.6,1.6
			c0.9,0,1.6-0.7,1.6-1.6V97.9h27.8v11.4c-0.1,0.9,0.6,1.6,1.4,1.7s1.6-0.6,1.7-1.4c0-0.1,0-0.2,0-0.3v-6.9h25.4
			c3.1,0,5.7-2.5,5.7-5.7V77.6c0-0.9-0.7-1.6-1.6-1.6s-1.6,0.7-1.6,1.6v11.6h-23.5l5-7c1.2-1.7,1.3-3.9,0.4-5.7
			c-1.4-2.7-4.7-3.7-7.4-2.4c-0.3,0.1-0.5,0.3-0.8,0.5l-9.9,7.4c-0.9,0.7-2.2,0.5-2.9-0.4c-0.3-0.4-0.4-0.8-0.4-1.3V42.6h39.5v21.9
			C572.7,65.4,573.4,66.1,574.3,66.1L574.3,66.1z M572.7,92.3v4.5l0,0c0,1.4-1.1,2.5-2.5,2.5h-25.4v-1.4c0-1-0.5-1.9-1.3-2.5
			c1.3-0.9,2.5-1.9,3.5-3.1H572.7L572.7,92.3z M535.3,85.5c1.1,0,2.2-0.4,3.1-1l9.9-7.4c0.4-0.3,0.9-0.5,1.4-0.5
			c0.9,0,1.7,0.5,2.1,1.3c0.4,0.8,0.3,1.7-0.2,2.4l-6.6,9.3c-2.3,3.2-6,5.1-10,5.2h-16.7V78.4c0-10.3,4.2-20.1,11.8-27.1v28.9
			C530.1,83.1,532.4,85.5,535.3,85.5z M533.2,39.5v-3.1c0-1.4,1.1-2.5,2.5-2.5h34.4c1.4,0,2.5,1.1,2.5,2.5v3.1L533.2,39.5z"/>
		<path class="st1" d="M554.1,94.6c-0.3-0.3-0.7-0.5-1.1-0.4c-0.4,0-0.8,0.2-1.1,0.4c-0.3,0.3-0.5,0.7-0.5,1.1
			c0,0.4,0.2,0.8,0.5,1.1c0.6,0.6,1.6,0.6,2.2,0C554.7,96.2,554.7,95.2,554.1,94.6z"/>
		<path class="st1" d="M575.4,69.7c-0.3-0.3-0.7-0.5-1.1-0.5c-0.4,0-0.8,0.2-1.1,0.5c-0.3,0.3-0.5,0.7-0.5,1.1
			c0,0.4,0.2,0.8,0.5,1.1c0.3,0.3,0.7,0.5,1.1,0.5c0.4,0,0.8-0.2,1.1-0.5c0.3-0.3,0.5-0.7,0.5-1.1C575.8,70.4,575.7,70,575.4,69.7z"
			/>
	</g>
	<g id="Gruppe_31_3_" transform="translate(-68.404 -41.745)">
		<path id="Pfad_56_3_" class="st5" d="M622.2,93.1c12.6,0,11.7,4.1,11.7,10.6s-5.3,6.8-11.7,6.8s-12-0.3-12-6.8
			S609.6,93.1,622.2,93.1z"/>
		<g id="Gruppe_30_3_" transform="translate(77.683 41.745)">
			<path id="Differenzmenge_5_3_" class="st6" d="M554,57.2h-18.9v-3.3H554V57.2z M552.6,55.3c-0.2,0-0.4,0.2-0.4,0.4
				s0.2,0.4,0.4,0.4s0.4-0.2,0.4-0.4c0,0,0,0,0,0C552.9,55.5,552.8,55.3,552.6,55.3z M536.5,55.3c-0.2,0-0.4,0.2-0.4,0.4
				s0.2,0.4,0.4,0.4s0.4-0.2,0.4-0.4C536.8,55.5,536.7,55.3,536.5,55.3z"/>
			<path id="Differenzmenge_6_3_" class="st6" d="M554,61.1h-18.9v-3.3H554V61.1z M552.6,59.2c-0.2,0-0.4,0.2-0.4,0.4
				s0.2,0.4,0.4,0.4s0.4-0.2,0.4-0.4c0,0,0,0,0,0C552.9,59.4,552.8,59.2,552.6,59.2z M536.5,59.2c-0.2,0-0.4,0.2-0.4,0.4
				c0,0.2,0.2,0.4,0.4,0.4c0.2,0,0.4-0.2,0.4-0.4C536.8,59.4,536.7,59.2,536.5,59.2z"/>
			<path id="Differenzmenge_7_3_" class="st6" d="M554,65h-18.9v-3.3H554V65z M552.6,63.1c-0.2,0-0.4,0.2-0.4,0.4s0.2,0.4,0.4,0.4
				s0.4-0.2,0.4-0.4c0,0,0,0,0,0C552.9,63.2,552.8,63.1,552.6,63.1z M536.5,63.1c-0.2,0-0.4,0.2-0.4,0.4c0,0.2,0.2,0.4,0.4,0.4
				s0.4-0.2,0.4-0.4C536.8,63.2,536.7,63.1,536.5,63.1z"/>
			<path id="Pfad_55_3_" class="st6" d="M535.2,53.5c0,0-1.2-3,0-3.7c1.2-0.7,2.9,0.9,2.9,0.9s1.3-2.6,3.7-2.6
				c2.4,0,3.3,3.2,3.3,3.2s1.1-1.1,1.9-1.1s1.2,1.1,1.2,1.1s0.3-0.7,0.8-0.7c0.5,0.1,0.8,0.9,0.8,0.9s0.4-0.7,0.9-0.6
				c0.5,0.1,0.7,1.3,0.7,1.3s1.2-4.3,1.8-4.1c0,0-1.3-0.4-0.7-1c0.7-0.7,0.7,1,0.7,1s0.6-1.2,0.9-0.8c0.3,0.5-0.9,0.8-0.9,0.8
				c0.9,0.2-0.4,4.4-0.4,4.4s3-4.9,4-4.4c0,0-0.8-0.5-0.2-1.1c0.6-0.6,0.2,1.1,0.2,1.1s0.7-1,0.9-0.5c0.2,0.5-0.9,0.5-0.9,0.5
				c0.6,0.7-2.8,5.4-2.8,5.4L535.2,53.5z"/>
		</g>
	</g>
</g>
<g id="truck_1_">
	<circle class="st0" cx="783.4" cy="279.1" r="56.2"/>
	<g id="truck">
		<g>
			<defs>
				<rect id="SVGID_1_" x="694.3" y="189" width="181.2" height="181.2"/>
			</defs>
			<clipPath id="SVGID_2_">
				<use xlink:href="#SVGID_1_"  style="overflow:visible;"/>
			</clipPath>
			<g class="st9">
				<g id="Truck_blue">
					<g id="Gruppe_5">
						<path id="Pfad_41" class="st10" d="M798.5,257.5h15c1.1,0,2.2,0.5,2.8,1.4c0,0,12.5,17.6,13,18.7c0.7,1.1,1.1,2.4,1.1,3.7v17
							c0,1.2-0.6,2.3-1.4,3.1l-2.5,2.5c-0.8,0.9-1.1,1.1-3.1,1.1h-3.4c0,0-1.1-9.9-9.9-9.6c-5.2,0.3-9.4,4.4-9.6,9.6h-19.6
							c-0.3-5.4-4.8-9.6-10.2-9.6c-9.3-0.3-9.9,9.6-9.9,9.6h-5.7c-0.9-0.1-1.7-0.5-2.3-1.1c-0.3-0.6-1.7-3.7-1.7-3.7
							c-0.6-0.8-0.8-1.9-0.6-2.8v-10.2"/>
						<g id="Rechteck_5">
							<path class="st11" d="M750.9,242.8h39.7c4.6-0.1,8.4,3.6,8.5,8.2c0,0.1,0,0.2,0,0.3v28.3c0.1,4.6-3.5,8.4-8.1,8.5
								c-0.1,0-0.2,0-0.4,0h-39.7c-4.6,0.1-8.4-3.6-8.5-8.2c0-0.1,0-0.2,0-0.3v-28.4c-0.1-4.6,3.6-8.4,8.2-8.5
								C750.7,242.8,750.8,242.8,750.9,242.8z"/>
							<path class="st12" d="M750.9,244.2h39.7c3.9,0,7,3.1,7.1,6.9c0,0.1,0,0.1,0,0.2v28.3c0,3.9-3.1,7-6.9,7.1c-0.1,0-0.1,0-0.2,0
								h-39.7c-3.9,0-7-3.1-7.1-6.9c0-0.1,0-0.1,0-0.2v-28.3c0-3.9,3.1-7,6.9-7.1C750.8,244.2,750.9,244.2,750.9,244.2z"/>
						</g>
						<path id="Pfad_42" class="st10" d="M805.3,285.8H820v-5.9c-0.1-0.7-0.3-1.4-0.6-2c-0.3-0.6-7.9-11.3-7.9-11.3
							c-0.8-1.4-1.1-2-3.1-2H805L805.3,285.8z"/>
						<g id="Ellipse_1">
							<circle class="st11" cx="770.7" cy="305.1" r="11.3"/>
							<circle class="st12" cx="770.7" cy="305.1" r="9.9"/>
						</g>
						<g id="Ellipse_2">
							<circle class="st11" cx="810.4" cy="305.1" r="11.3"/>
							<circle class="st12" cx="810.4" cy="305.1" r="9.9"/>
						</g>
					</g>
				</g>
			</g>
		</g>
	</g>
</g>
<g id="bill_1_">
	<circle class="st0" cx="709.5" cy="435.4" r="56.2"/>
	<g id="bill">
		<path class="st1" d="M748.7,430.6H737v-37.4c0-0.6-0.4-1.2-1-1.5c-0.6-0.2-1.3-0.1-1.7,0.4l-4.5,4.5l-4.5-4.5
			c-0.6-0.6-1.6-0.6-2.2,0c0,0,0,0,0,0l-4.5,4.5l-4.5-4.5c-0.6-0.6-1.6-0.6-2.2,0c0,0,0,0,0,0l-4.5,4.5l-4.5-4.5
			c-0.6-0.6-1.6-0.6-2.2,0c0,0,0,0,0,0l-4.5,4.5l-4.5-4.5c-0.6-0.6-1.6-0.6-2.2,0c0,0,0,0,0,0l-4.5,4.5l-4.5-4.5
			c-0.6-0.6-1.6-0.6-2.3,0c-0.3,0.3-0.5,0.7-0.5,1.2v71.4c0,4.6,3.7,8.2,8.2,8.2h56.2c4.6,0,8.2-3.7,8.2-8.2v-32.4
			C750.3,431.3,749.6,430.6,748.7,430.6L748.7,430.6z M685.9,469.6c-2.8,0-5.1-2.3-5.1-5.1V397l2.9,2.9c0.6,0.6,1.6,0.6,2.2,0
			c0,0,0,0,0,0l4.5-4.5l4.5,4.5c0.6,0.6,1.6,0.6,2.2,0c0,0,0,0,0,0l4.5-4.5l4.5,4.5c0.6,0.6,1.6,0.6,2.2,0c0,0,0,0,0,0l4.5-4.5
			l4.5,4.5c0.6,0.6,1.6,0.6,2.2,0c0,0,0,0,0,0l4.5-4.5l4.5,4.5c0.6,0.6,1.6,0.6,2.2,0c0,0,0,0,0,0l3-2.9v67.6c0,1.8,0.6,3.6,1.8,5.1
			L685.9,469.6z M747.2,464.5c0,2.8-2.3,5.1-5.1,5.1c-2.8,0-5.1-2.3-5.1-5.1c0,0,0,0,0,0v-30.7h10.2V464.5L747.2,464.5z"/>
		<path class="st1" d="M707.3,427.9c-1.4-0.2-2.3-1.5-2.1-2.8c0.2-1.4,1.5-2.3,2.8-2.1c1.2,0.2,2.1,1.2,2.1,2.5
			c0.1,0.9,0.8,1.5,1.7,1.5c0.8-0.1,1.4-0.7,1.5-1.5c-0.1-2.6-1.9-4.8-4.4-5.4v-1.1c-0.1-0.9-0.8-1.5-1.7-1.5
			c-0.8,0.1-1.4,0.7-1.5,1.5v1.1c-2.6,0.6-4.4,2.8-4.5,5.4c0.1,3.2,2.8,5.7,6,5.6c1.3,0.2,2.3,1.5,2.1,2.8c-0.2,1.3-1.5,2.3-2.8,2.1
			c-1.2-0.2-2.1-1.2-2.1-2.4c0-0.9-0.7-1.6-1.6-1.6c-0.9,0-1.6,0.7-1.6,1.6c0,0,0,0,0,0c0.1,2.6,1.9,4.8,4.5,5.4v1.3
			c0.1,0.9,0.8,1.5,1.7,1.5c0.8-0.1,1.4-0.7,1.5-1.5v-1.3c2.5-0.6,4.4-2.8,4.4-5.4C713.2,430.3,710.5,427.8,707.3,427.9z"/>
		<path class="st1" d="M723.3,427.9h-3.1c-0.9,0.1-1.5,0.8-1.5,1.7c0.1,0.8,0.7,1.4,1.5,1.5h3.1c0.9,0.1,1.6-0.6,1.7-1.5
			c0.1-0.9-0.6-1.6-1.5-1.7C723.4,427.8,723.4,427.8,723.3,427.9z"/>
		<path class="st1" d="M694.5,427.9h-3.1c-0.9-0.1-1.6,0.6-1.7,1.5c-0.1,0.9,0.6,1.6,1.5,1.7c0.1,0,0.2,0,0.3,0h3.1
			c0.9,0.1,1.6-0.6,1.7-1.5c0.1-0.9-0.6-1.6-1.5-1.7C694.6,427.8,694.6,427.8,694.5,427.9z"/>
		<path class="st1" d="M724.1,444.8h-25.1c-0.9,0-1.6,0.7-1.6,1.6c0,0.9,0.7,1.6,1.6,1.6h25.1c0.9,0,1.6-0.7,1.6-1.6
			C725.7,445.6,724.9,444.8,724.1,444.8z"/>
		<path class="st1" d="M691.7,445.3c-0.3-0.3-0.7-0.5-1.1-0.5c-0.4,0-0.8,0.2-1.1,0.5c-0.3,0.3-0.5,0.7-0.5,1.1
			c0,0.4,0.2,0.8,0.5,1.1c0.3,0.3,0.7,0.5,1.1,0.5c0.4,0,0.8-0.2,1.1-0.5c0.3-0.3,0.5-0.7,0.5-1.1C692.2,446,692,445.6,691.7,445.3z
			"/>
		<path class="st1" d="M724.1,455.3h-25.1c-0.9-0.1-1.6,0.6-1.7,1.5c-0.1,0.9,0.6,1.6,1.5,1.7c0.1,0,0.2,0,0.3,0h25.1
			c0.9,0.1,1.6-0.6,1.7-1.5c0.1-0.9-0.6-1.6-1.5-1.7C724.2,455.3,724.2,455.3,724.1,455.3z"/>
		<path class="st1" d="M691.7,455.8c-0.3-0.3-0.7-0.5-1.1-0.5c-0.4,0-0.8,0.2-1.1,0.5c-0.3,0.3-0.5,0.7-0.5,1.1
			c0,0.4,0.2,0.8,0.5,1.1c0.3,0.3,0.7,0.5,1.1,0.5c0.4,0,0.8-0.2,1.1-0.5C692.3,457.4,692.3,456.4,691.7,455.8z"/>
	</g>
	<g id="Gruppe_31_5_" transform="translate(-68.404 -41.745)">
	</g>
</g>
<g id="vegiBox_1_">
	<circle class="st0" cx="548.2" cy="504.4" r="56.2"/>
	<g id="vegiBox">
		<path class="st1" d="M518.2,533.3L518.2,533.3c-0.7-0.6-1.7-0.4-2.3,0.3c0,0,0,0,0,0c-0.5,0.7-0.4,1.7,0.3,2.3c0,0,0,0,0,0l0,0
			c0.7,0.6,1.7,0.4,2.3-0.3C519,534.8,518.9,533.8,518.2,533.3L518.2,533.3L518.2,533.3z"/>
		<path class="st1" d="M518.2,519.9L518.2,519.9c-0.7-0.6-1.7-0.4-2.3,0.3c0,0,0,0,0,0c-0.5,0.7-0.4,1.7,0.3,2.3c0,0,0,0,0,0l0,0
			c0.7,0.6,1.7,0.4,2.3-0.3C519,521.5,518.9,520.4,518.2,519.9L518.2,519.9L518.2,519.9z"/>
		<path class="st1" d="M518.2,506.5L518.2,506.5c-0.7-0.6-1.7-0.4-2.3,0.3c-0.6,0.7-0.4,1.7,0.3,2.3l0,0c0.3,0.2,0.6,0.3,1,0.3
			c0.5,0,1-0.2,1.3-0.6C519,508.1,518.9,507.1,518.2,506.5z"/>
		<path class="st1" d="M580.8,533.3L580.8,533.3c-0.7-0.6-1.7-0.5-2.3,0.1c-0.6,0.7-0.5,1.7,0.1,2.3c0.1,0,0.1,0.1,0.2,0.1l0,0
			c0.3,0.2,0.6,0.3,1,0.3c0.5,0,1-0.2,1.3-0.7C581.6,534.8,581.5,533.8,580.8,533.3z"/>
		<path class="st1" d="M580.8,519.9L580.8,519.9c-0.7-0.6-1.7-0.5-2.3,0.1c-0.6,0.7-0.5,1.7,0.1,2.3c0.1,0,0.1,0.1,0.2,0.1l0,0
			c0.3,0.2,0.6,0.3,1,0.3c0.5,0,1-0.2,1.3-0.7C581.6,521.4,581.5,520.4,580.8,519.9z"/>
		<path class="st1" d="M580.8,506.5L580.8,506.5c-0.7-0.6-1.7-0.5-2.3,0.1c-0.6,0.7-0.5,1.7,0.1,2.3c0.1,0,0.1,0.1,0.2,0.1l0,0
			c0.3,0.2,0.6,0.3,1,0.3c0.5,0,1-0.2,1.3-0.6C581.6,508.1,581.5,507.1,580.8,506.5z"/>
		<path class="st1" d="M567,512.9L567,512.9c-0.9,0.1-1.6,0.9-1.5,1.8c0.1,0.8,0.7,1.4,1.5,1.5l0,0c0.9-0.1,1.6-0.9,1.5-1.8
			C568.4,513.6,567.8,512.9,567,512.9z"/>
		<path class="st1" d="M530,526.2L530,526.2c-0.9,0.1-1.6,0.9-1.5,1.8c0.1,0.8,0.7,1.4,1.5,1.5l0,0c0.9,0.1,1.7-0.6,1.8-1.5
			c0.1-0.9-0.6-1.7-1.5-1.8C530.2,526.2,530.1,526.2,530,526.2z"/>
		<path class="st1" d="M519.9,489.6c-0.3-0.3-0.7-0.5-1.2-0.5c-0.4,0-0.8,0.2-1.2,0.5c-0.3,0.3-0.5,0.7-0.5,1.2
			c0,0.4,0.2,0.8,0.5,1.2c0.3,0.3,0.7,0.5,1.2,0.5c0.4,0,0.8-0.2,1.2-0.5C520.5,491.2,520.5,490.2,519.9,489.6
			C519.9,489.6,519.9,489.6,519.9,489.6z"/>
		<path class="st1" d="M588.6,499.5h-6.8c4.6-2.7,6.2-8.6,3.6-13.3c-0.9-1.6-2.4-3-4.1-3.8c0.6-1.3,0.9-2.6,0.8-4
			c0-5.4-4.4-9.7-9.7-9.7c-1.7,0-3.3,0.4-4.7,1.2c-1.9-1.3-4.2-2.1-6.5-2h-0.5c-2.2-6.6-9.4-10.1-16-7.9c-3.2,1.1-5.9,3.4-7.3,6.5
			c-0.4,0-0.8,0-1.2,0c-5.1,0-9.7,3-11.6,7.7c-0.3-0.1-0.7-0.2-1.1-0.3c0.1-1.8,0.8-3.5,2-4.8c0.6-0.5,1.2-0.9,2-1.1l0,0
			c0.3-0.1,0.7-0.2,0.9-0.5c0.3-0.3,0.5-0.7,0.5-1.2c0-0.4-0.2-0.8-0.5-1.2c-0.3-0.3-0.7-0.5-1.2-0.5c-0.1,0-0.2,0-0.3,0l0,0
			c-1.3,0.3-2.5,0.9-3.5,1.8V461c0-0.9-0.7-1.6-1.6-1.6H518c-0.9,0-1.6,0.7-1.6,1.6l0,0v6.1c-1.2-1.4-2.5-2.7-4.1-3.8
			c-0.7-0.5-1.7-0.4-2.3,0.3c-0.5,0.7-0.4,1.7,0.3,2.3c0.1,0.1,0.1,0.1,0.2,0.1c0,0,5,3.4,5.7,8.1c-5.5,1.5-9.4,6.5-9.5,12.2
			c0,2.4,1.4,8.1,2.7,13.1h-1c-0.9,0-1.6,0.7-1.6,1.6v40.1c0,0.9,0.7,1.6,1.6,1.6h80.3c0.9,0,1.6-0.7,1.6-1.6v-40.2
			C590.3,500.2,589.5,499.5,588.6,499.5L588.6,499.5z M536.3,469.7c0.6,0,1.3,0.1,1.9,0.2c0.8,0.2,1.6-0.3,1.9-1.1
			c1.7-4.9,7.1-7.4,11.9-5.7c2.5,0.9,4.6,2.9,5.6,5.4c-4.5,1.6-7.5,5.9-7.5,10.7c0,0.9,0.7,1.6,1.6,1.6s1.6-0.7,1.6-1.6
			c0-4.4,3.5-8,7.9-8.1c2,0,4,0.7,5.5,2.1c0.6,0.5,1.4,0.6,2.1,0.1c1.1-0.8,2.5-1.3,3.9-1.3c3.6,0,6.4,2.9,6.4,6.5
			c0,1.4-0.4,2.7-1.3,3.8c-0.5,0.7-0.4,1.7,0.3,2.3c0.2,0.1,0.4,0.2,0.6,0.3c3.5,0.9,5.6,4.4,4.7,7.8c-0.7,2.9-3.3,4.9-6.3,4.9
			c-0.4,0-0.8,0-1.2-0.1c-0.8-0.2-1.6,0.3-1.8,1.1c-0.1,0.3-0.3,0.7-0.5,1h-2.1l6.7-9.6c0.2-0.4,0.3-0.8,0.3-1.2
			c-0.1-0.4-0.3-0.8-0.7-1.1l-4.8-3.2c-0.4-0.2-0.8-0.3-1.3-0.2c-0.4,0.1-0.8,0.4-1,0.8l-2.4,3.9l1.9-9.9c0.2-0.9-0.4-1.7-1.3-1.9
			c0,0,0,0,0,0l-4.1-0.9c-0.9-0.2-1.8,0.4-1.9,1.3c0,0,0,0,0,0l-0.5,2.9h-3.8c-0.9,0-1.6,0.7-1.6,1.6v9.4c-1.1-5.7-6.1-9.7-11.9-9.7
			c-2.6,0-5.2,0.8-7.3,2.4c-1.7,1.3-3.1,3.1-3.9,5.1c0.2-0.9,0.3-1.9,0.3-2.8c0-2.2-0.6-4.3-1.7-6.1c0.9-2.3,3.1-3.9,5.6-3.9
			c0.4,0,0.8,0,1.2,0.1c0.8,0.2,1.6-0.3,1.9-1.1c0.4-1,1-1.9,1.8-2.6c0.7-0.6,0.8-1.6,0.2-2.3c-0.6-0.7-1.6-0.8-2.3-0.2l0,0
			c-0.9,0.8-1.6,1.7-2.2,2.7c-0.2,0-0.4,0-0.5,0c-3.2,0-6.1,1.7-7.8,4.4c-0.8-0.8-1.7-1.4-2.6-2C529.1,472,532.5,469.7,536.3,469.7z
			 M566.4,498.3l6.2-10.2l1.9,1.3l-7,10.1h-1.3L566.4,498.3z M564.4,491.8v-4.5c0,0,0-0.1,0-0.1l1.4-7.3l0.9,0.2L564.4,491.8z
			 M560.1,496.7c0-0.1,0-0.1,0-0.2v-12.8h1v15.8h-0.5v-0.3C560.6,498.3,560.4,497.5,560.1,496.7L560.1,496.7z M537.7,489h-0.2
			c2.6-4.1,8-5.3,12.1-2.7c2.1,1.3,3.5,3.4,3.9,5.9c-2.2,0-4.2,1.1-5.5,2.9C546,491.3,542,489,537.7,489z M546.4,499.4H529
			c0.9-4.8,5.5-7.9,10.3-7C542.9,493.1,545.7,495.9,546.4,499.4z M553.7,495.4c2,0,3.6,1.7,3.6,3.7c0,0.1,0,0.2,0,0.3h-7.1
			c0-0.1,0-0.2,0-0.3C550.1,497.2,551.7,495.5,553.7,495.4z M519.6,462.6h0.7v11c-0.2,0-0.4,0-0.7,0V462.6z M510.1,485.1
			c0.1,0,0.2,0,0.3,0h8.1c0.9-0.1,1.6-0.9,1.5-1.8c-0.1-0.8-0.7-1.4-1.5-1.5h-7.2c2-3.2,5.5-5.1,9.2-5c5.8,0,10.4,4.3,10.4,9.6
			c0,0.9-0.1,1.8-0.3,2.7h-6.5c-0.9-0.1-1.7,0.6-1.8,1.5c-0.1,0.9,0.6,1.7,1.5,1.8c0.1,0,0.2,0,0.3,0h5.4c-2,1.9-3.3,4.4-3.7,7.2
			h-13c-1.8-6.6-2.8-11.3-2.8-13.1C510,485.9,510,485.5,510.1,485.1z M587,512.9h-14.4c-0.9,0.1-1.6,0.9-1.5,1.8
			c0.1,0.8,0.7,1.4,1.5,1.5H587v10.1h-51.5c-0.9-0.1-1.7,0.6-1.8,1.5c-0.1,0.9,0.6,1.7,1.5,1.8c0.1,0,0.2,0,0.3,0H587v10.1h-77
			v-10.1h14.4c0.9-0.1,1.6-0.9,1.5-1.8c-0.1-0.8-0.7-1.4-1.5-1.5H510v-10.1h51.5c0.9,0.1,1.7-0.6,1.8-1.5c0.1-0.9-0.6-1.7-1.5-1.8
			c-0.1,0-0.2,0-0.3,0H510v-10.1h77V512.9z"/>
		<path class="st1" d="M546.8,468.2L546.8,468.2c-0.9,0-1.6,0.7-1.6,1.6s0.7,1.6,1.6,1.6l0,0c0.9,0,1.6-0.7,1.6-1.6
			S547.7,468.2,546.8,468.2z"/>
	</g>
	<g id="Gruppe_31_6_" transform="translate(-68.404 -41.745)">
		<path id="Pfad_56_6_" class="st5" d="M617.3,551.7c15.6,0,14.6,5.1,14.6,13.1c0,8-6.6,8.4-14.6,8.4s-14.9-0.4-14.9-8.4
			S601.7,551.7,617.3,551.7z"/>
		<g id="Gruppe_30_6_" transform="translate(77.683 41.745)">
			<path id="Differenzmenge_5_6_" class="st6" d="M551.5,517.3h-23.4v-4.1h23.4V517.3z M549.7,514.9c-0.2,0-0.5,0.2-0.5,0.5
				c0,0.2,0.2,0.5,0.5,0.5c0.2,0,0.5-0.2,0.5-0.5c0,0,0,0,0,0C550.1,515.1,549.9,514.9,549.7,514.9z M529.7,514.9
				c-0.2,0-0.5,0.2-0.5,0.5c0,0.2,0.2,0.5,0.5,0.5c0.2,0,0.5-0.2,0.5-0.5C530.1,515.1,529.9,514.9,529.7,514.9z"/>
			<path id="Differenzmenge_6_6_" class="st6" d="M551.5,522.1h-23.4V518h23.4V522.1z M549.7,519.7c-0.2,0-0.5,0.2-0.5,0.5
				c0,0.2,0.2,0.5,0.5,0.5c0.2,0,0.5-0.2,0.5-0.5c0,0,0,0,0,0C550.1,519.9,549.9,519.7,549.7,519.7z M529.7,519.7
				c-0.2,0-0.5,0.2-0.5,0.5c0,0.2,0.2,0.5,0.5,0.5c0.2,0,0.5-0.2,0.5-0.5C530.1,519.9,529.9,519.7,529.7,519.7z"/>
			<path id="Differenzmenge_7_6_" class="st6" d="M551.5,526.9h-23.4v-4.1h23.4V526.9z M549.7,524.5c-0.2,0-0.5,0.2-0.5,0.5
				c0,0.2,0.2,0.5,0.5,0.5c0.2,0,0.5-0.2,0.5-0.5c0,0,0,0,0,0C550.1,524.7,549.9,524.5,549.7,524.5z M529.7,524.5
				c-0.2,0-0.5,0.2-0.5,0.5c0,0.2,0.2,0.5,0.5,0.5c0.2,0,0.5-0.2,0.5-0.5C530.1,524.7,529.9,524.5,529.7,524.5z"/>
			<path id="Pfad_55_6_" class="st6" d="M528.1,512.6c0,0-1.5-3.8,0-4.6c1.5-0.8,3.6,1.1,3.6,1.1s1.6-3.2,4.6-3.2s4.1,4,4.1,4
				s1.4-1.3,2.4-1.3c1,0,1.5,1.3,1.5,1.3s0.4-0.9,1-0.8c0.6,0.1,1,1.1,1,1.1s0.5-0.8,1.2-0.7c0.7,0.1,0.9,1.6,0.9,1.6
				s1.5-5.3,2.2-5.1c0,0-1.6-0.4-0.8-1.3c0.8-0.8,0.8,1.3,0.8,1.3s0.7-1.5,1.1-0.9c0.4,0.6-1.1,0.9-1.1,0.9c1.1,0.3-0.4,5.4-0.4,5.4
				s3.7-6.1,5-5.4c0,0-1-0.7-0.2-1.4c0.8-0.7,0.2,1.4,0.2,1.4s0.9-1.3,1.2-0.6c0.3,0.7-1.2,0.6-1.2,0.6c0.8,0.9-3.5,6.7-3.5,6.7
				L528.1,512.6z"/>
		</g>
	</g>
</g>
<g id="order">
	<circle class="st0" cx="711.9" cy="132.1" r="56.2"/>
	<g id="getOrder">
		<path class="st1" d="M751.1,119.6h-4.8c-0.6-2-2.4-3.5-4.5-3.5h-5.2v-12.6c0-0.5-0.2-0.9-0.6-1.2l-36.3-21c-0.4-0.2-0.9-0.2-1.4,0
			l-36.3,21c-0.4,0.2-0.7,0.7-0.7,1.2v42c0,0.5,0.3,0.9,0.7,1.2l36.4,21c0.4,0.2,1,0.2,1.4,0l19.1-11v8c0,3.2,2.5,5.7,5.7,5.8
			c0,0,0,0,0,0h26.6c3.2,0,5.8-2.5,5.8-5.7c0,0,0,0,0,0v-39.2C757,122.3,754.4,119.6,751.1,119.6
			C751.1,119.6,751.1,119.6,751.1,119.6z M741.8,118.8c1.1,0,2,0.9,2,2l0,0v0.1c0,1.1-0.9,2-2,2h-7.9c-1.1,0-2-0.9-2-2l0,0v-0.1
			c0-1.1,0.9-2,2-2H741.8L741.8,118.8z M698.9,84.1l15.1,8.7l-33.7,19.5l-15.1-8.7L698.9,84.1z M697.6,164.1l-33.7-19.4v-38.8
			l33.7,19.4V164.1z M698.9,122.9l-15.8-9.1l33.6-19.4l15.8,9.1L698.9,122.9z M718.8,125.4v28.1l-18.4,10.6v-38.9l33.5-19.4v10.3
			l0,0c-2.1,0-4,1.4-4.5,3.5h-4.8C721.3,119.6,718.7,122.2,718.8,125.4z M754.2,164.6c0,1.7-1.4,3-3.1,3h-26.6c-1.7,0-3-1.3-3.1-2.9
			c0,0,0-0.1,0-0.1v-39.2c0-1.7,1.4-3.1,3.1-3.1c0,0,0,0,0,0h4.9c0.6,2,2.4,3.3,4.5,3.3h7.8c2.1,0,3.9-1.3,4.5-3.3h4.9
			c1.7,0,3.1,1.4,3.1,3.1L754.2,164.6L754.2,164.6z"/>
		<path class="st1" d="M726.1,139.1h1.4c0.7,0.1,1.4-0.5,1.5-1.2c0.1-0.7-0.5-1.4-1.2-1.5c-0.1,0-0.2,0-0.2,0l0,0v-3.7h3.7
			c0.2,0.6,0.7,0.9,1.3,0.9c0.7,0,1.4-0.6,1.4-1.3c0,0,0,0,0,0v-0.9c0-0.8-0.6-1.4-1.4-1.4h0h-6.4c-0.7,0-1.3,0.6-1.3,1.3
			c0,0,0,0,0,0l0,0v6.4C724.8,138.5,725.4,139.1,726.1,139.1L726.1,139.1z"/>
		<path class="st1" d="M726.1,151.5h6.4c0.7,0,1.4-0.6,1.4-1.3c0,0,0,0,0,0v-6.4c0-0.7-0.6-1.4-1.3-1.4c0,0,0,0,0,0h-6.4
			c-0.7,0-1.4,0.6-1.4,1.3c0,0,0,0,0,0v6.4C724.8,150.9,725.4,151.5,726.1,151.5C726.1,151.5,726.1,151.5,726.1,151.5z M727.5,145.2
			h3.7v3.7h-3.7V145.2z"/>
		<path class="st1" d="M727.5,161.2L727.5,161.2l0-3.7h3.7c0.1,0.8,0.7,1.3,1.5,1.2c0.7-0.1,1.2-0.6,1.2-1.2v-1.3
			c0-0.8-0.6-1.4-1.4-1.4h-6.4c-0.8,0-1.4,0.6-1.3,1.4c0,0,0,0,0,0v6.4c0,0.7,0.6,1.3,1.3,1.3h1.5c0.7,0,1.4-0.6,1.4-1.3
			c0,0,0,0,0,0C728.9,161.9,728.3,161.2,727.5,161.2C727.5,161.2,727.5,161.2,727.5,161.2L727.5,161.2z"/>
		<path class="st1" d="M735.6,131.7l-4,4l-1.2-1.2c-0.5-0.6-1.4-0.6-1.9-0.1c-0.6,0.5-0.6,1.4-0.1,1.9c0,0,0.1,0.1,0.1,0.1l2.2,2.2
			c0.5,0.5,1.4,0.5,1.9,0l0,0l4.9-4.9c0.5-0.5,0.5-1.4,0-1.9C737,131.2,736.1,131.2,735.6,131.7L735.6,131.7z"/>
		<path class="st1" d="M735.6,156.7l-4,4l-1.2-1.2c-0.5-0.5-1.4-0.5-1.9,0c-0.5,0.5-0.5,1.4,0,1.9l2.2,2.2c0.5,0.5,1.4,0.5,1.9,0
			l0,0l4.9-4.9c0.5-0.5,0.5-1.4,0-1.9C737,156.2,736.1,156.2,735.6,156.7L735.6,156.7z"/>
		<path class="st1" d="M749.6,133.3H741c-0.7,0.1-1.3,0.7-1.2,1.5c0.1,0.7,0.6,1.2,1.2,1.2h8.5c0.7-0.1,1.3-0.7,1.2-1.5
			C750.7,133.9,750.2,133.4,749.6,133.3z"/>
		<path class="st1" d="M749.6,145.7H741c-0.7,0.1-1.3,0.7-1.2,1.5c0.1,0.7,0.6,1.2,1.2,1.2h8.5c0.7-0.1,1.3-0.7,1.2-1.5
			C750.7,146.3,750.2,145.8,749.6,145.7z"/>
		<path class="st1" d="M749.6,158.1H741c-0.7,0.1-1.3,0.7-1.2,1.5c0.1,0.7,0.6,1.2,1.2,1.2h8.5c0.7,0,1.3-0.6,1.3-1.3c0,0,0,0,0,0
			C750.9,158.8,750.3,158.1,749.6,158.1z"/>
	</g>
	<g id="Gruppe_31_7_" transform="translate(-68.404 -41.745)">
		<path id="Pfad_56_7_" class="st5" d="M749.4,171c12.2,4.8,10.8,8.1,9.8,13.7c-1,5.6-6.2,3.8-12.5,1.4s-11.6-4.9-10.7-10.5
			C737.1,169.9,737.2,166.2,749.4,171z"/>
		<g id="Gruppe_30_7_" transform="translate(77.683 41.745)">
			<path id="Differenzmenge_5_7_" class="st6" d="M680.2,138l-18.4-7.2l0.5-2.9l18.4,7.2L680.2,138z M679,135.8
				c-0.2-0.1-0.4,0-0.4,0.2s0.1,0.4,0.3,0.5c0.2,0.1,0.4,0,0.4-0.2c0,0,0,0,0,0C679.4,136,679.2,135.8,679,135.8z M663.3,129.6
				c-0.2-0.1-0.4,0-0.4,0.2s0.1,0.4,0.3,0.5s0.4,0,0.4-0.2C663.7,129.9,663.5,129.6,663.3,129.6z"/>
			<path id="Differenzmenge_6_7_" class="st6" d="M679.6,141.3l-18.4-7.2l0.5-2.9l18.4,7.2L679.6,141.3z M678.4,139.1
				c-0.2-0.1-0.4,0-0.4,0.2c0,0.2,0.1,0.4,0.3,0.5s0.4,0,0.4-0.2c0,0,0,0,0,0C678.8,139.4,678.6,139.2,678.4,139.1z M662.7,132.9
				c-0.2-0.1-0.4,0-0.4,0.2s0.1,0.4,0.3,0.5c0.2,0.1,0.4,0,0.4-0.2C663.1,133.2,662.9,133,662.7,132.9z"/>
			<path id="Differenzmenge_7_7_" class="st6" d="M679,144.7l-18.4-7.2l0.5-2.9l18.4,7.2L679,144.7z M677.8,142.5
				c-0.2-0.1-0.4,0-0.4,0.2s0.1,0.4,0.3,0.5c0.2,0.1,0.4,0,0.4-0.2c0,0,0,0,0,0C678.2,142.8,678,142.6,677.8,142.5z M662.2,136.3
				c-0.2-0.1-0.4,0-0.4,0.2s0.1,0.4,0.3,0.5c0.2,0.1,0.4,0,0.4-0.2C662.5,136.6,662.4,136.4,662.2,136.3z"/>
			<path id="Pfad_55_7_" class="st6" d="M662.4,127.5c0,0-0.7-3.1,0.6-3.2c1.3-0.1,2.7,1.9,2.7,1.9s1.7-1.7,4-0.8s2.7,4,2.7,4
				s1.3-0.5,2-0.2s1,1.4,1,1.4s0.4-0.5,0.9-0.3c0.5,0.2,0.6,1.1,0.6,1.1s0.5-0.4,1-0.1s0.5,1.4,0.5,1.4s1.8-3.2,2.4-2.9
				c0,0-1.2-0.8-0.5-1.1c0.7-0.3,0.5,1.1,0.5,1.1s0.8-0.8,1-0.3s-1,0.3-1,0.3c0.8,0.5-1,3.7-1,3.7s3.6-3.1,4.6-2.3c0,0-0.7-0.8,0-1
				s0,1,0,1s0.9-0.6,1-0.1c0.1,0.5-1,0.1-1,0.1c0.5,0.9-3.5,3.6-3.5,3.6L662.4,127.5z"/>
		</g>
	</g>
</g>
</svg>
