<svg id="prozess-of-order" xmlns="http://www.w3.org/2000/svg" xmlns:xlink="http://www.w3.org/1999/xlink" viewBox="0 0 811.44 544.16">
  <defs>
    <clipPath id="clip-path" transform="translate(-28.21 -16.48)">
      <rect x="694.28" y="189.01" width="181.21" height="181.21" fill="none"/>
    </clipPath>
  </defs>
  <title>prozess_icons2</title>
  <g id="money" data-tippy-content="Der Gastronom bezahlt Landwirten.">
    <circle cx="358.75" cy="418.73" r="52.11" fill="#fff"/>
    <path d="M410.47,457.72H350.73V416.08h9.68a1.23,1.23,0,0,0,0-2.46H349.5a1.23,1.23,0,0,0-1.22,1.23V459a1.22,1.22,0,0,0,1.22,1.22h10.68l4.58,9.87a1.26,1.26,0,0,0,1.64.6l4.48-2.08,13.6,9.7a1.21,1.21,0,0,0,1.69-.26l0,0,12.7-17.8h11.59a1.23,1.23,0,0,0,1.23-1.22,1.25,1.25,0,0,0-1.22-1.28Zm-47.57,2.46h20.23l-16.65,7.72Zm22,15.37-11.45-8.16,15.52-7.2h6.89Z" transform="translate(-28.21 -16.48)" fill="#213959"/>
    <path d="M430.8,413.61H420.12l-4.58-9.87a1.26,1.26,0,0,0-1.64-.6l-4.48,2.07-13.58-9.68a1.23,1.23,0,0,0-1.71.3l-12.7,17.79H365.34a1.23,1.23,0,0,0-1.23,1.23,1.21,1.21,0,0,0,1.22,1.23h64.24v41.66H415.39a1.23,1.23,0,1,0-.22,2.45H430.8A1.24,1.24,0,0,0,432,459V414.85A1.24,1.24,0,0,0,430.8,413.61Zm-13.4,0H397.17l16.65-7.72Zm-22-15.36,11.45,8.16-15.52,7.2h-6.89Z" transform="translate(-28.21 -16.48)" fill="#213959"/>
    <path d="M390.15,448.64a11.73,11.73,0,1,0-11.73-11.73h0A11.74,11.74,0,0,0,390.15,448.64Zm0-21a9.28,9.28,0,1,1-9.27,9.29h0A9.29,9.29,0,0,1,390.15,427.64Z" transform="translate(-28.21 -16.48)" fill="#213959"/>
    <path d="M379.75,454.16h37.42a1.24,1.24,0,0,0,1.23-1.23,6.66,6.66,0,0,1,6.3-6.13,1.24,1.24,0,0,0,1.23-1.23V428.21A1.23,1.23,0,0,0,424.7,427a6.66,6.66,0,0,1-6.3-6.14,1.23,1.23,0,0,0-1.23-1.22H362.46a1.23,1.23,0,0,0-1.23,1.22c0,3.29-2.63,6.17-5.63,6.17a1.23,1.23,0,0,0-1.22,1.23v17.29a1.22,1.22,0,0,0,1.22,1.22h0c3,0,5.63,2.88,5.63,6.17a1.24,1.24,0,0,0,1.23,1.23h12.38a1.23,1.23,0,0,0,0-2.46H363.6a9.17,9.17,0,0,0-2.22-4.71,7.84,7.84,0,0,0-4.53-2.57v-15a8,8,0,0,0,4.53-2.57,9,9,0,0,0,2.22-4.71h52.46a9.38,9.38,0,0,0,7.41,7.26v15.1a9.34,9.34,0,0,0-7.41,7.26H379.75a1.24,1.24,0,0,0-1.23,1.23A1.22,1.22,0,0,0,379.75,454.16Z" transform="translate(-28.21 -16.48)" fill="#213959"/>
  </g>
  <g id="clock" data-tippy-content="Der Gastronom gibt im besprochenen Zeitraum seine gewünschte Bestellmenge des verhandelten Angebots an und sendet den Bestellauftrag über die landchef App an den Landwirten.">
    <rect x="230.87" y="215.11" width="100.88" height="92.15" fill="#fff"/>
    <path d="M316.33,307c-.47.12-.95.22-1.44.31A2.3,2.3,0,0,0,313,310a2.27,2.27,0,0,0,1,1.5,2.33,2.33,0,0,0,1.76.38c.56-.11,1.15-.23,1.71-.37a2.31,2.31,0,0,0-1.12-4.49h0Z" transform="translate(-28.21 -16.48)" fill="#213959"/>
    <path d="M340.92,265.4a2.22,2.22,0,0,0,.72,1.14,1.73,1.73,0,0,0,2.67-.53,2.61,2.61,0,0,0,.25-2c-.15-.55-.31-1.09-.49-1.62a1.83,1.83,0,0,0-2.49-1.27,2.44,2.44,0,0,0-1.07,3C340.65,264.48,340.78,264.94,340.92,265.4Z" transform="translate(-28.21 -16.48)" fill="#213959"/>
    <path d="M326.37,302.58c-.41.27-.83.53-1.25.77a2.34,2.34,0,0,0-.86,3.16,2.46,2.46,0,0,0,.7.7,2.3,2.3,0,0,0,2.49.11q.76-.45,1.5-.93a2.31,2.31,0,1,0-2.55-3.85h0Z" transform="translate(-28.21 -16.48)" fill="#213959"/>
    <path d="M345.25,274.75a2.14,2.14,0,1,0-4.21,0v1.83a2.82,2.82,0,0,0,.89,2.15,1.87,1.87,0,0,0,1.17.46,2.35,2.35,0,0,0,2.15-2.5h0C345.27,276.05,345.27,275.39,345.25,274.75Z" transform="translate(-28.21 -16.48)" fill="#213959"/>
    <path d="M337.7,294.69a2.37,2.37,0,0,0-3.31.47c-.31.41-.63.8-.94,1.18a2.37,2.37,0,0,0,.26,3.34l.18.14a2.38,2.38,0,0,0,3.17-.4c.39-.46.76-.93,1.13-1.43A2.36,2.36,0,0,0,337.7,294.69Z" transform="translate(-28.21 -16.48)" fill="#213959"/>
    <path d="M342.31,284a2.3,2.3,0,0,0-2.89,1.51v0c-.14.47-.3.93-.48,1.39a2.32,2.32,0,0,0,.83,2.72,2.49,2.49,0,0,0,.51.27,2.33,2.33,0,0,0,3-1.34c.21-.55.39-1.1.56-1.66a2.3,2.3,0,0,0-1.49-2.9Z" transform="translate(-28.21 -16.48)" fill="#213959"/>
    <path d="M304.25,308.41a31.46,31.46,0,0,1-7.69-2.44l-.08-.05a15.32,15.32,0,0,1-1.7-.9h0a32.24,32.24,0,0,1-3-1.81c-16.3-9.65-18.79-33.3-7.57-46.53,2.1-3,3.84-4.46,7.16-6.92l1.74-1.18c10.54-7.25,24.36-6,35,1.06L325.82,253c-.66.91-.26,1.64.91,1.52l10.17-.9c.93,0,.64.18.6-.74a1.44,1.44,0,0,0-.08-.46l-2.71-9.83c-.31-1.1-1.09-1.24-1.74-.29l-2.35,3.4A37,37,0,0,0,303.51,240c-1,.16-1.91.37-2.84.61h-.11A37,37,0,0,0,280,254.32a1,1,0,0,0-.13.16c-.17.22-.33.47-.5.7-.27.39-.52.79-.78,1.18a.39.39,0,0,0-.08.14,37.05,37.05,0,0,0-5.92,21.78v.08a19,19,0,0,0,.19,2.26v.15c.07.75.19,1.51.31,2.26a36.93,36.93,0,0,0,10.43,20.05h0a38.64,38.64,0,0,0,4.77,4,37.19,37.19,0,0,0,14.86,6.21,3,3,0,0,0,3.49-2.42c.29-1.63-.8-2.19-2.43-2.49Z" transform="translate(-28.21 -16.48)" fill="#213959"/>
    <path d="M307.24,253c-1.32,0-1.71,1-1.71,2.3v23.83l21.81,11.28c1.18.61,1.88.64,2.48-.53s.18-1.74-1-2.35h0L309,277.1l-.08-22C308.94,253.75,308.56,253,307.24,253Z" transform="translate(-28.21 -16.48)" fill="#213959"/>
  </g>
  <g id="partner" data-tippy-content="Während einem persönlichen Gespräch wird  ein individuelles Angebot verhandelt.">
    <rect y="211.63" width="111.62" height="101.96" fill="#fff"/>
    <path d="M112,255.64a1.94,1.94,0,1,0-2.74,0h0A1.93,1.93,0,0,0,112,255.64Z" transform="translate(-28.21 -16.48)" fill="#213959"/>
    <path d="M57.92,259.67a1.94,1.94,0,1,0-2.74,0h0A1.93,1.93,0,0,0,57.92,259.67Z" transform="translate(-28.21 -16.48)" fill="#213959"/>
    <path d="M46.46,270.88l5.82-5.82a1.94,1.94,0,1,0-2.75-2.74h0l-5.82,5.82a1.94,1.94,0,0,0,2.75,2.74Z" transform="translate(-28.21 -16.48)" fill="#213959"/>
    <path d="M118.45,265.24a1.94,1.94,0,0,0,2.74-2.75l-3.87-3.87a1.94,1.94,0,1,0-2.75,2.74Z" transform="translate(-28.21 -16.48)" fill="#213959"/>
    <path d="M131.63,263.08l-22-22a1.94,1.94,0,0,0-2.7,0L97,250.29h0A8.17,8.17,0,0,1,90.92,253c-4.69,0-8.29,1.32-11.29,4.17a14.59,14.59,0,0,0-9.11-3.94l-9.73-9.73a1.94,1.94,0,0,0-2.74,0h0l-25,25a1.94,1.94,0,0,0,0,2.7h0L49.3,287.47l-.68.68a6.81,6.81,0,0,0,4.88,11.62,6.78,6.78,0,0,0,6.69,6.87h.19A6.77,6.77,0,0,0,67,313.51h.22a6.8,6.8,0,0,0,11.62,4.89l.68-.68.68.68a6.81,6.81,0,0,0,11.63-4.89,6.78,6.78,0,0,0,6.87-6.69v-.18a6.77,6.77,0,0,0,4.88-2,6.6,6.6,0,0,0,2-4.89,6.81,6.81,0,0,0,4.89-11.62l-.69-.68c13.57-13.55-3.6,3.62,21.71-21.69a1.87,1.87,0,0,0,.15-2.64Zm-94.42,6.81L59.4,247.7l7.48,7.47L44.69,277.36ZM51.4,295.08a2.9,2.9,0,0,1,0-4.1l0,0,6.89-6.89a2.94,2.94,0,0,1,4.13,0,2.9,2.9,0,0,1,0,4.1l0,0-6.87,6.87A3,3,0,0,1,51.4,295.08ZM58.29,302a2.92,2.92,0,0,1,0-4.13h0l6.9-6.89a2.89,2.89,0,0,1,4.09,0l0,0a2.92,2.92,0,0,1,0,4.13h0L62.42,302a2.9,2.9,0,0,1-4.1,0Zm6.9,6.89a2.89,2.89,0,0,1,0-4.09l0,0,6.89-6.9A2.92,2.92,0,0,1,76.2,302h0l-6.89,6.89a2.94,2.94,0,0,1-4.12-.05Zm6.87,6.88a2.9,2.9,0,0,1,0-4.1l0,0L79,304.7a2.92,2.92,0,0,1,4.13,4.12l-6.89,6.9a2.92,2.92,0,0,1-4.13,0l0,0Zm15.14,0a3,3,0,0,1-4.12,0L82.4,315l3.44-3.44a7.55,7.55,0,0,0,.64-.74l.74.74h0a2.92,2.92,0,0,1,0,4.13l0,0Zm20.66-20.64a2.94,2.94,0,0,1-4.13,0l-9-9A1.94,1.94,0,0,0,92,288.87l9,8.95A2.94,2.94,0,1,1,96.86,302l-9-8.95a1.94,1.94,0,0,0-2.74,2.74l9,9a2.93,2.93,0,0,1,0,4.12,2.9,2.9,0,0,1-2.06.86c-1.85,0-2.45-1.46-4.2-3a6.79,6.79,0,0,0-2-4.75A6.89,6.89,0,0,0,81,300a6.77,6.77,0,0,0-6.65-6.87H74.1a6.82,6.82,0,0,0-6.74-6.9h-.15a6.8,6.8,0,0,0-11.62-4.88l-3.45,3.44-4.63-4.63,22.85-22.87A10.63,10.63,0,0,1,76.87,260l-5.51,5.49a7.79,7.79,0,0,0,11,11l5.5-5.51,20,19.95a3,3,0,0,1,0,4.15Zm-.7-10.34L90.63,268.21,92,266.83a1.94,1.94,0,0,0-2.74-2.74l-9.64,9.65a3.9,3.9,0,0,1-5.51-5.51L82,260.31C84.32,258,87,257,90.88,257a11.33,11.33,0,0,0,7.36-2.57l19.39,19.9-10.47,10.45Zm13.25-13.22-19.27-19.8,7-6.62,19.31,19.31Z" transform="translate(-28.21 -16.48)" fill="#213959"/>
  </g>
  <g id="arrows">
    <path d="M183.59,287.52a1,1,0,0,1-1.44,0h0a1.06,1.06,0,0,1,0-1.47h0l12.72-12.94-12.72-12.94a1.05,1.05,0,0,1,0-1.47,1,1,0,0,1,1.44,0h0l13.46,13.68a1.09,1.09,0,0,1,0,1.47Z" transform="translate(-28.21 -16.48)" fill="#69bc90"/>
    <path d="M447.77,110.27a1,1,0,0,1-1.39.41,1.08,1.08,0,0,1-.4-1.42l8.72-16L439,84.38a1,1,0,0,1-.3-1.44,1,1,0,0,1,1.29-.38l16.64,9.37a1.05,1.05,0,0,1,.4,1.41h0Z" transform="translate(-28.21 -16.48)" fill="#69bc90"/>
    <path d="M746,198.39a1,1,0,0,1-.62-.48,1,1,0,0,1-.09-.8,1,1,0,0,1,1.24-.72h0l17.35,4.88,4.8-17.64a1,1,0,0,1,1.2-.82,1.05,1.05,0,0,1,.81,1.22l0,.13-5.06,18.67a1,1,0,0,1-1.26.72h0Z" transform="translate(-28.21 -16.48)" fill="#69bc90"/>
    <path d="M751.25,354.6a1,1,0,0,1,.82-1.21,1,1,0,0,1,1.19.83h0l3.3,18,17.69-3.36a1,1,0,0,1,1.19.83,1,1,0,0,1-.81,1.22l-18.7,3.57a1,1,0,0,1-1.19-.83h0Z" transform="translate(-28.21 -16.48)" fill="#69bc90"/>
    <path d="M634.52,478a1,1,0,0,1,1.27-.68h0a1,1,0,0,1,.67,1.3h0l-5.36,17.48,17.19,5.45a1,1,0,0,1,.62,1.33,1,1,0,0,1-1.23.65l-18.16-5.75a1.08,1.08,0,0,1-.68-1.31Z" transform="translate(-28.21 -16.48)" fill="#69bc90"/>
    <path d="M452.55,478.11a1,1,0,0,1,1.27.69h0a1,1,0,0,1-.68,1.3h0l-17.24,5.26,5.18,17.53a1.06,1.06,0,0,1-.69,1.3,1,1,0,0,1-1.27-.7L433.65,485a1.06,1.06,0,0,1,.68-1.29Z" transform="translate(-28.21 -16.48)" fill="#69bc90"/>
    <path d="M614.9,108.62a1.06,1.06,0,0,1-.78.12,1,1,0,0,1-.75-1.26,1.06,1.06,0,0,1,.47-.64l15.42-9.44L620,81.72a1.05,1.05,0,0,1,.36-1.43,1,1,0,0,1,1.4.36l9.81,16.57a1.08,1.08,0,0,1-.36,1.43Z" transform="translate(-28.21 -16.48)" fill="#69bc90"/>
    <path d="M330,359.23a1,1,0,0,1,.59.54,1,1,0,0,1-1.24,1.45h0l-17.05-5.85-5.75,17.34a1,1,0,0,1-1.3.65,1,1,0,0,1-.64-1.32h0l6.08-18.32a1.05,1.05,0,0,1,1.3-.66Z" transform="translate(-28.21 -16.48)" fill="#69bc90"/>
    <path d="M327.68,208a1,1,0,0,1-.71,1.28,1,1,0,0,1-1.26-.71h0L320.77,191l-17.31,5a1,1,0,0,1-1.26-.72,1,1,0,0,1,.7-1.28h0l18.29-5.31a1.05,1.05,0,0,1,1.27.72Z" transform="translate(-28.21 -16.48)" fill="#69bc90"/>
  </g>
  <g id="circle">
    <g id="circle-2" data-name="circle">
      <circle cx="521.6" cy="263.87" r="113.11" fill="none" stroke="#213959" stroke-miterlimit="10"/>
      <g style="isolation: isolate">
        <text transform="translate(429.87 286.47)" font-size="21" fill="#213959" font-family="NunitoSans-Regular, Nunito Sans" style="isolation: isolate">Be</text>
        <text transform="translate(455.09 286.47)" font-size="21" fill="#213959" font-family="NunitoSans-Regular, Nunito Sans" style="isolation: isolate">s</text>
        <text transform="translate(465.07 286.47)" font-size="21" fill="#213959" font-family="NunitoSans-Regular, Nunito Sans" style="isolation: isolate">tella</text>
        <text transform="translate(504.15 286.47)" font-size="21" fill="#213959" font-family="NunitoSans-Regular, Nunito Sans" letter-spacing="-0.01em" style="isolation: isolate">b</text>
        <text transform="translate(516.24 286.47)" font-size="21" fill="#213959" font-family="NunitoSans-Regular, Nunito Sans" style="isolation: isolate">wicklungs-</text>
        <text transform="translate(488.35 311.67)" font-size="21" fill="#213959" font-family="NunitoSans-Regular, Nunito Sans" style="isolation: isolate">p</text>
        <text transform="translate(500.58 311.67)" font-size="21" fill="#213959" font-family="NunitoSans-Regular, Nunito Sans" letter-spacing="-0.01em" style="isolation: isolate">r</text>
        <text transform="translate(507.78 311.67)" font-size="21" fill="#213959" font-family="NunitoSans-Regular, Nunito Sans" letter-spacing="-0.02em" style="isolation: isolate">o<tspan x="11.21" y="0" letter-spacing="-0.01em">z</tspan></text>
        <text transform="translate(529.54 311.67)" font-size="21" fill="#213959" font-family="NunitoSans-Regular, Nunito Sans" style="isolation: isolate">ess</text>
      </g>
    </g>
    <g id="Gruppe_31" data-name="Gruppe 31">
      <path id="Pfad_56" data-name="Pfad 56" d="M549.35,218.16c38.69,0,36.18,12.66,36.18,32.57s-16.27,20.87-36.18,20.87-36.93-1-36.93-20.87S510.66,218.16,549.35,218.16Z" transform="translate(-28.21 -16.48)" fill="#57cf95"/>
      <g id="Gruppe_30" data-name="Gruppe 30">
        <path id="Differenzmenge_5" data-name="Differenzmenge 5" d="M578.73,236.2H520.65V226h58.08Zm-4.55-5.87a1.12,1.12,0,1,0,1.12,1.12h0A1.12,1.12,0,0,0,574.18,230.33Zm-49.57,0a1.12,1.12,0,1,0,1.12,1.12A1.13,1.13,0,0,0,524.61,230.33Z" transform="translate(-28.21 -16.48)" fill="#203858"/>
        <path id="Differenzmenge_6" data-name="Differenzmenge 6" d="M578.73,248.16H520.65V238h58.08Zm-4.55-5.87a1.12,1.12,0,1,0,1.12,1.12h0A1.12,1.12,0,0,0,574.18,242.29Zm-49.57,0a1.12,1.12,0,1,0,1.12,1.12A1.13,1.13,0,0,0,524.61,242.29Z" transform="translate(-28.21 -16.48)" fill="#203858"/>
        <path id="Differenzmenge_7" data-name="Differenzmenge 7" d="M578.73,260.11H520.65V249.92h58.08Zm-4.55-5.87a1.13,1.13,0,1,0,1.12,1.13h0A1.13,1.13,0,0,0,574.18,254.24Zm-49.57,0a1.13,1.13,0,1,0,1.12,1.13A1.14,1.14,0,0,0,524.61,254.24Z" transform="translate(-28.21 -16.48)" fill="#203858"/>
        <path id="Pfad_55" data-name="Pfad 55" d="M520.65,224.66s-3.81-9.37,0-11.42,8.93,2.69,8.93,2.69,4.08-7.89,11.4-7.86S551,218,551,218s3.48-3.28,5.87-3.28S560.6,218,560.6,218s1-2.19,2.53-2,2.42,2.7,2.42,2.7,1.22-2.06,2.86-1.75,2.23,3.87,2.23,3.87,3.74-13.15,5.45-12.69c0,0-4-1.11-2-3.19s2,3.19,2,3.19,1.84-3.75,2.77-2.31-2.77,2.31-2.77,2.31c2.64.63-1.11,13.5-1.11,13.5s9.12-15,12.35-13.5c0,0-2.44-1.63-.56-3.39s.56,3.39.56,3.39,2.19-3.23,2.87-1.61-2.87,1.61-2.87,1.61c1.95,2.28-8.6,16.59-8.6,16.59Z" transform="translate(-28.21 -16.48)" fill="#203858"/>
      </g>
    </g>
  </g>
  <g id="cart" data-tippy-content="Der Landwirt erhält den Bestellauftrag des Gasrtonoms.">
    <circle cx="358.84" cy="113.95" r="56.22" fill="#fff"/>
    <g id="cart-2" data-name="cart">
      <path d="M387,94.45c-20.37,0-36.9,15.87-36.91,35.47s16.49,35.51,36.87,35.52,36.9-15.87,36.92-35.47v0C423.85,110.36,407.36,94.48,387,94.45Zm0,68.68c-19.05,0-34.49-14.86-34.49-33.19S368,96.76,387,96.76s34.5,14.86,34.5,33.18h0c0,18.32-15.46,33.17-34.5,33.19Z" transform="translate(-28.21 -16.48)" fill="#213959" stroke="#213959" stroke-miterlimit="10"/>
      <path d="M410.57,116c-1.61-1.72-3.9-1.07-5.69.47L379.39,138.7l-10.46-13.45c-1.19-2-3-3.08-5.09-1.93s-1.81,3.15-.61,5.17a5,5,0,0,0,.48.66l11.35,15.45a4.44,4.44,0,0,0,3.08,1.73h.48a4.53,4.53,0,0,0,2.9-1.07l28.17-24.45a3.54,3.54,0,0,0,.88-4.82Z" transform="translate(-28.21 -16.48)" fill="#213959" stroke="#213959" stroke-miterlimit="10"/>
    </g>
  </g>
  <g id="app" data-tippy-content="Der Landwirt bereitet  die Bestellung mithilfe der Übersicht durch die landchef App vor.">
    <circle cx="520.17" cy="56.22" r="56.22" fill="#fff"/>
    <g id="app-2" data-name="app">
      <path d="M536.85,102.44a1.52,1.52,0,0,0-1.11-.45,1.6,1.6,0,0,0-1.11.45,1.49,1.49,0,0,0-.46,1.11,1.58,1.58,0,0,0,2.68,1.12,1.57,1.57,0,0,0,.46-1.12A1.66,1.66,0,0,0,536.85,102.44Z" transform="translate(-28.21 -16.48)" fill="#213959"/>
      <path d="M557.89,35.07h-9.84a1.57,1.57,0,1,0,0,3.14h9.84a1.57,1.57,0,1,0,0-3.14Z" transform="translate(-28.21 -16.48)" fill="#213959"/>
      <path d="M574.28,66.11a1.57,1.57,0,0,0,1.57-1.57h0V36.37a5.67,5.67,0,0,0-5.67-5.67H535.77a5.67,5.67,0,0,0-5.67,5.67h0V47.2a40.1,40.1,0,0,0-14.88,31.21V94.78h-1.41a3.14,3.14,0,0,0-3.14,3.13v11.44a1.57,1.57,0,0,0,3.14,0V97.91H541.6v11.44a1.57,1.57,0,0,0,3.13.25,1,1,0,0,0,0-.25v-6.89h25.44a5.69,5.69,0,0,0,5.68-5.67V77.56a1.57,1.57,0,0,0-3.14,0V89.14H549.23l5-7a5.4,5.4,0,0,0,.39-5.67,5.46,5.46,0,0,0-7.36-2.35,5.87,5.87,0,0,0-.75.47L536.59,82a2.09,2.09,0,0,1-2.94-.42,2.12,2.12,0,0,1-.42-1.26V42.61h39.48V64.54a1.57,1.57,0,0,0,1.57,1.57Zm-1.57,26.16v4.52h0a2.54,2.54,0,0,1-2.54,2.53H544.73V97.91a3.08,3.08,0,0,0-1.27-2.5,15.39,15.39,0,0,0,3.5-3.14Zm-37.38-6.78a5.45,5.45,0,0,0,3.14-1l9.9-7.38a2.33,2.33,0,0,1,1.39-.47,2.27,2.27,0,0,1,2.07,1.27,2.32,2.32,0,0,1-.17,2.43l-6.61,9.32a12.29,12.29,0,0,1-10,5.15h-16.7V78.39A36.81,36.81,0,0,1,530.1,51.32V80.26A5.24,5.24,0,0,0,535.33,85.49Zm-2.1-46V36.37a2.54,2.54,0,0,1,2.54-2.53h34.42a2.54,2.54,0,0,1,2.54,2.53v3.11Z" transform="translate(-28.21 -16.48)" fill="#213959"/>
      <path d="M554.08,94.56a1.49,1.49,0,0,0-1.11-.45,1.6,1.6,0,0,0-1.11.45,1.52,1.52,0,0,0-.45,1.11,1.7,1.7,0,0,0,.45,1.12,1.57,1.57,0,1,0,2.22-2.23Z" transform="translate(-28.21 -16.48)" fill="#213959"/>
      <path d="M575.39,69.7a1.53,1.53,0,0,0-1.11-.46,1.66,1.66,0,0,0-1.11.46,1.53,1.53,0,0,0-.46,1.11,1.66,1.66,0,0,0,.46,1.11,1.53,1.53,0,0,0,1.11.46,1.59,1.59,0,0,0,1.11-.46,1.53,1.53,0,0,0,.46-1.11A1.66,1.66,0,0,0,575.39,69.7Z" transform="translate(-28.21 -16.48)" fill="#213959"/>
    </g>
    <g id="Gruppe_31-2" data-name="Gruppe 31">
      <path id="Pfad_56-2" data-name="Pfad 56" d="M553.79,51.37c12.56,0,11.74,4.11,11.74,10.57s-5.28,6.78-11.74,6.78-12-.31-12-6.78S541.22,51.37,553.79,51.37Z" transform="translate(-28.21 -16.48)" fill="#57cf95"/>
      <g id="Gruppe_30-2" data-name="Gruppe 30">
        <path id="Differenzmenge_5-2" data-name="Differenzmenge 5" d="M563.32,57.22H544.47V53.91h18.85Zm-1.47-1.9a.36.36,0,0,0-.36.36.36.36,0,1,0,.72,0h0A.36.36,0,0,0,561.85,55.32Zm-16.1,0a.36.36,0,0,0-.36.36.37.37,0,0,0,.36.37.38.38,0,0,0,.37-.37A.37.37,0,0,0,545.75,55.32Z" transform="translate(-28.21 -16.48)" fill="#203858"/>
        <path id="Differenzmenge_6-2" data-name="Differenzmenge 6" d="M563.32,61.11H544.47V57.8h18.85Zm-1.47-1.91a.37.37,0,1,0,.36.36h0A.36.36,0,0,0,561.85,59.2Zm-16.1,0a.37.37,0,0,0,0,.73.37.37,0,1,0,0-.73Z" transform="translate(-28.21 -16.48)" fill="#203858"/>
        <path id="Differenzmenge_7-2" data-name="Differenzmenge 7" d="M563.32,65H544.47V61.68h18.85Zm-1.47-1.91a.37.37,0,0,0-.36.37.36.36,0,1,0,.72,0h0A.37.37,0,0,0,561.85,63.08Zm-16.1,0a.37.37,0,0,0-.36.37.36.36,0,0,0,.36.36.37.37,0,0,0,.37-.36A.38.38,0,0,0,545.75,63.08Z" transform="translate(-28.21 -16.48)" fill="#203858"/>
        <path id="Pfad_55-2" data-name="Pfad 55" d="M544.47,53.48s-1.24-3,0-3.71,2.9.87,2.9.87,1.32-2.56,3.7-2.55,3.26,3.21,3.26,3.21,1.13-1.07,1.9-1.07,1.21,1.07,1.21,1.07.33-.71.82-.66.79.88.79.88.39-.67.93-.57.72,1.26.72,1.26,1.21-4.27,1.77-4.12c0,0-1.31-.36-.65-1s.65,1,.65,1,.6-1.22.9-.75-.9.75-.9.75c.86.2-.36,4.38-.36,4.38s3-4.88,4-4.38c0,0-.79-.53-.18-1.1s.18,1.1.18,1.1.71-1.05.93-.52-.93.52-.93.52c.63.74-2.79,5.39-2.79,5.39Z" transform="translate(-28.21 -16.48)" fill="#203858"/>
      </g>
    </g>
  </g>
  <g id="truck" >
    <circle cx="755.22" cy="262.62" r="56.22" fill="#fff" data-tippy-content="Anschließend wir die Ware direkt geliefert."/>
    <g id="truck-2" data-name="truck">
      <g clip-path="url(#clip-path)">
        <g id="Truck_blue" data-name="Truck blue">
          <g id="Gruppe_5" data-name="Gruppe 5">
            <path id="Pfad_41" data-name="Pfad 41" d="M798.48,257.53h15a3.49,3.49,0,0,1,2.84,1.41s12.45,17.56,13,18.69a8,8,0,0,1,1.13,3.68v17a4.53,4.53,0,0,1-1.41,3.12L826.56,304c-.85.85-1.13,1.14-3.12,1.14h-3.39s-1.14-9.91-9.91-9.63a10.13,10.13,0,0,0-9.63,9.63H780.92a10.22,10.22,0,0,0-10.19-9.63c-9.34-.28-9.91,9.63-9.91,9.63h-5.66a3.55,3.55,0,0,1-2.27-1.14c-.28-.56-1.7-3.68-1.7-3.68a3.48,3.48,0,0,1-.56-2.83V287.26" transform="translate(-28.21 -16.48)" fill="none" stroke="#213959" stroke-linejoin="round" stroke-width="2.83"/>
            <g id="Rechteck_5" data-name="Rechteck 5">
              <path d="M750.91,242.81h39.65a8.33,8.33,0,0,1,8.49,8.19v28.61a8.34,8.34,0,0,1-8.12,8.55h-40a8.35,8.35,0,0,1-8.49-8.19V251.3a8.34,8.34,0,0,1,8.19-8.49Z" transform="translate(-28.21 -16.48)" fill="none"/>
              <path d="M750.91,244.22h39.65a7,7,0,0,1,7.08,6.92v28.47a7,7,0,0,1-6.92,7.08H750.91a7,7,0,0,1-7.08-6.92V251.3a7,7,0,0,1,6.92-7.08Z" transform="translate(-28.21 -16.48)" fill="none" stroke="#213959" stroke-width="2.83"/>
            </g>
            <path id="Pfad_42" data-name="Pfad 42" d="M805.27,285.84H820V279.9a5.35,5.35,0,0,0-.57-2c-.28-.56-7.93-11.32-7.93-11.32-.85-1.42-1.13-2-3.11-2H805Z" transform="translate(-28.21 -16.48)" fill="none" stroke="#213959" stroke-linejoin="round" stroke-width="2.83"/>
            <g id="Ellipse_1" data-name="Ellipse 1" >
              <circle cx="742.52" cy="288.62" r="11.33" fill="none"/>
              <circle cx="742.52" cy="288.62" r="9.91" fill="none" stroke="#213959" stroke-width="2.83"/>
            </g>
            <g id="Ellipse_2" data-name="Ellipse 2">
              <circle cx="782.16" cy="288.62" r="11.33" fill="none"/>
              <circle cx="782.16" cy="288.62" r="9.91" fill="none" stroke="#213959" stroke-width="2.83"/>
            </g>
          </g>
        </g>
      </g>
    </g>
  </g>
  <g id="bill" data-tippy-content="Der Landwirt verschickt die vom System automatisch generierte Rechnung an den Gastronom.">
    <circle cx="681.34" cy="418.9" r="56.22" fill="#fff"/>
    <g id="bill-2" data-name="bill">
      <path d="M748.74,430.56H737V393.12a1.56,1.56,0,0,0-1-1.46,1.59,1.59,0,0,0-1.73.35l-4.49,4.49-4.47-4.5a1.59,1.59,0,0,0-2.25,0h0l-4.49,4.49L714.08,392a1.58,1.58,0,0,0-2.23,0h0l-4.51,4.51L702.84,392a1.57,1.57,0,0,0-2.22,0h0l-4.49,4.49L691.61,392a1.59,1.59,0,0,0-2.25,0h0l-4.49,4.51L680.38,392a1.6,1.6,0,0,0-2.72,1.18v71.35a8.27,8.27,0,0,0,8.25,8.25h56.17a8.27,8.27,0,0,0,8.25-8.25V432.15a1.59,1.59,0,0,0-1.59-1.59Zm-62.83,39a5.09,5.09,0,0,1-5.07-5.08V397l2.9,2.9a1.58,1.58,0,0,0,2.23,0h0l4.49-4.49L695,399.9a1.57,1.57,0,0,0,2.22,0h0l4.49-4.49,4.49,4.49a1.58,1.58,0,0,0,2.23,0h0l4.49-4.49,4.49,4.49a1.58,1.58,0,0,0,2.23,0h0l4.49-4.49,4.49,4.49a1.58,1.58,0,0,0,2.23,0h0l3-2.92v67.58a8.08,8.08,0,0,0,1.76,5.08Zm61.25-5.08a5.08,5.08,0,0,1-10.16,0V433.74h10.16v30.74Z" transform="translate(-28.21 -16.48)" fill="#213959"/>
      <path d="M707.33,427.85a2.48,2.48,0,1,1,2.86-2.44,1.59,1.59,0,0,0,3.17,0,5.72,5.72,0,0,0-4.44-5.43V418.9a1.59,1.59,0,0,0-3.17,0V420a5.73,5.73,0,0,0-4.45,5.43,5.84,5.84,0,0,0,6,5.61,2.47,2.47,0,1,1-2.85,2.45,1.59,1.59,0,0,0-3.18,0h0a5.72,5.72,0,0,0,4.45,5.42v1.31a1.59,1.59,0,0,0,3.17,0v-1.31a5.72,5.72,0,0,0,4.44-5.42A5.84,5.84,0,0,0,707.33,427.85Z" transform="translate(-28.21 -16.48)" fill="#213959"/>
      <path d="M723.28,427.85h-3.1a1.59,1.59,0,0,0,0,3.17h3.1a1.59,1.59,0,0,0,.25-3.17A1,1,0,0,0,723.28,427.85Z" transform="translate(-28.21 -16.48)" fill="#213959"/>
      <path d="M694.48,427.85h-3.09a1.59,1.59,0,1,0-.25,3.17h3.34a1.59,1.59,0,0,0,.25-3.17A1,1,0,0,0,694.48,427.85Z" transform="translate(-28.21 -16.48)" fill="#213959"/>
      <path d="M724.07,444.84H698.94a1.59,1.59,0,0,0,0,3.18h25.13a1.59,1.59,0,0,0,0-3.18Z" transform="translate(-28.21 -16.48)" fill="#213959"/>
      <path d="M691.7,445.3a1.57,1.57,0,0,0-1.12-.46,1.71,1.71,0,0,0-1.13.46,1.56,1.56,0,0,0-.46,1.13,1.71,1.71,0,0,0,.46,1.13,1.6,1.6,0,0,0,1.13.46,1.62,1.62,0,0,0,1.12-.46,1.62,1.62,0,0,0,0-2.26Z" transform="translate(-28.21 -16.48)" fill="#213959"/>
      <path d="M724.07,455.32H698.94a1.59,1.59,0,1,0-.25,3.17h25.38a1.59,1.59,0,1,0,.25-3.17Z" transform="translate(-28.21 -16.48)" fill="#213959"/>
      <path d="M691.7,455.78a1.52,1.52,0,0,0-1.12-.46,1.64,1.64,0,0,0-1.13.46,1.52,1.52,0,0,0-.46,1.12,1.71,1.71,0,0,0,.46,1.13,1.6,1.6,0,0,0,1.13.46,1.59,1.59,0,0,0,1.12-2.71Z" transform="translate(-28.21 -16.48)" fill="#213959"/>
    </g>
  </g>
  <g id="vegiBox" data-tippy-content="Der Gastronom erhält Lieferung.">
    <circle cx="519.95" cy="487.94" r="56.22" fill="#fff"/>
    <g id="vegiBox-2" data-name="vegiBox">
      <path d="M518.15,533.28h0a1.63,1.63,0,0,0-2.29.28h0a1.61,1.61,0,0,0,.28,2.26l0,0h0a1.64,1.64,0,1,0,2-2.59h0Z" transform="translate(-28.21 -16.48)" fill="#213959"/>
      <path d="M518.15,519.9h0a1.63,1.63,0,0,0-2.29.28h0a1.61,1.61,0,0,0,.28,2.26l0,0h0a1.64,1.64,0,1,0,2-2.59h0Z" transform="translate(-28.21 -16.48)" fill="#213959"/>
      <path d="M518.15,506.52h0a1.63,1.63,0,1,0-2,2.58h0a1.65,1.65,0,0,0,1,.34,1.63,1.63,0,0,0,1.29-.63A1.65,1.65,0,0,0,518.15,506.52Z" transform="translate(-28.21 -16.48)" fill="#213959"/>
      <path d="M580.79,533.28h0a1.64,1.64,0,1,0-2.18,2.45l.18.14h0a1.63,1.63,0,0,0,1,.32,1.68,1.68,0,0,0,1.31-.65A1.62,1.62,0,0,0,580.79,533.28Z" transform="translate(-28.21 -16.48)" fill="#213959"/>
      <path d="M580.79,519.9h0a1.64,1.64,0,1,0-2.18,2.45l.18.14h0a1.57,1.57,0,0,0,1,.32,1.68,1.68,0,0,0,1.31-.65A1.62,1.62,0,0,0,580.79,519.9Z" transform="translate(-28.21 -16.48)" fill="#213959"/>
      <path d="M580.79,506.52h0a1.64,1.64,0,1,0-2.18,2.45l.18.14h0a1.57,1.57,0,0,0,1,.32,1.65,1.65,0,0,0,1.31-.65A1.63,1.63,0,0,0,580.79,506.52Z" transform="translate(-28.21 -16.48)" fill="#213959"/>
      <path d="M567,512.86h0a1.64,1.64,0,0,0,0,3.27h0a1.64,1.64,0,0,0,0-3.27Z" transform="translate(-28.21 -16.48)" fill="#213959"/>
      <path d="M530,526.24h0a1.64,1.64,0,0,0,0,3.27h0a1.64,1.64,0,0,0,.26-3.27Z" transform="translate(-28.21 -16.48)" fill="#213959"/>
      <path d="M519.89,489.56a1.55,1.55,0,0,0-1.15-.47,1.68,1.68,0,0,0-1.16.47,1.63,1.63,0,0,0-.48,1.16,1.73,1.73,0,0,0,.48,1.16,1.59,1.59,0,0,0,1.16.47,1.63,1.63,0,0,0,1.15-2.79Z" transform="translate(-28.21 -16.48)" fill="#213959"/>
      <path d="M588.62,499.48h-6.77a9.71,9.71,0,0,0-.48-17.09,9.52,9.52,0,0,0,.85-4,9.73,9.73,0,0,0-9.71-9.71,9.61,9.61,0,0,0-4.74,1.24,11.32,11.32,0,0,0-6.51-2.05h-.48a12.62,12.62,0,0,0-23.33-1.4c-.39,0-.78-.05-1.17-.05a12.64,12.64,0,0,0-11.64,7.72c-.34-.1-.7-.2-1.06-.28a7.17,7.17,0,0,1,2-4.76,4.51,4.51,0,0,1,2-1.14h0a1.62,1.62,0,0,0,1.38-1.62,1.74,1.74,0,0,0-.47-1.16,1.59,1.59,0,0,0-1.16-.47h-.28a7.09,7.09,0,0,0-3.5,1.8V461a1.64,1.64,0,0,0-1.63-1.63H518a1.63,1.63,0,0,0-1.63,1.63h0v6.1a20.09,20.09,0,0,0-4.06-3.75,1.63,1.63,0,1,0-2,2.58,1.28,1.28,0,0,0,.21.14c.05,0,5,3.35,5.72,8.1a13,13,0,0,0-9.51,12.23c0,2.39,1.36,8.08,2.68,13.1h-1.05a1.65,1.65,0,0,0-1.63,1.64v40.13a1.65,1.65,0,0,0,1.63,1.64h80.28a1.65,1.65,0,0,0,1.63-1.64V501.12a1.65,1.65,0,0,0-1.66-1.64Zm-52.33-29.76a11.85,11.85,0,0,1,1.88.18,1.61,1.61,0,0,0,1.86-1.06,9.36,9.36,0,0,1,17.52-.34A11.32,11.32,0,0,0,550,479.17a1.63,1.63,0,1,0,3.26,0,8,8,0,0,1,13.38-6,1.62,1.62,0,0,0,2.06.08,6.34,6.34,0,0,1,3.87-1.29,6.46,6.46,0,0,1,5.17,10.3,1.63,1.63,0,0,0,.33,2.27,1.54,1.54,0,0,0,.58.27,6.44,6.44,0,0,1-1.58,12.69,6.22,6.22,0,0,1-1.22-.11,1.64,1.64,0,0,0-1.85,1.06,7.58,7.58,0,0,1-.47,1h-2.06l6.68-9.57a1.69,1.69,0,0,0,.26-1.24,1.59,1.59,0,0,0-.7-1.06l-4.77-3.17a1.69,1.69,0,0,0-1.26-.23,1.65,1.65,0,0,0-1,.75l-2.4,3.94,1.94-9.86a1.62,1.62,0,0,0-1.27-1.91h0l-4.14-.85a1.66,1.66,0,0,0-1.94,1.3h0l-.54,2.85h-3.8a1.66,1.66,0,0,0-1.64,1.64v9.38A12.08,12.08,0,0,0,545,481.7a11.91,11.91,0,0,0-7.26,2.43,12.26,12.26,0,0,0-3.92,5.09,18.14,18.14,0,0,0,.31-2.84,12.09,12.09,0,0,0-1.66-6.12,6,6,0,0,1,5.61-3.91,5.92,5.92,0,0,1,1.19.11,1.61,1.61,0,0,0,1.86-1.06,6,6,0,0,1,1.76-2.56,1.63,1.63,0,1,0-2.12-2.48h0a9.45,9.45,0,0,0-2.18,2.73h-.53a9.21,9.21,0,0,0-7.83,4.36,13.57,13.57,0,0,0-2.59-2A9.4,9.4,0,0,1,536.29,469.72Zm30.07,28.57,6.15-10.18,1.94,1.31-7,10.06h-1.31Zm-2-6.51v-4.63l1.37-7.33.93.2Zm-4.22,4.88v-13h1v15.77h-.53v-.31a7.2,7.2,0,0,0-.51-2.51ZM537.71,489h-.15a8.8,8.8,0,0,1,16.09,3.14,6.8,6.8,0,0,0-5.5,2.88A12.05,12.05,0,0,0,537.71,489Zm8.67,10.44H529.05a8.82,8.82,0,0,1,17.33,0Zm7.32-4a3.67,3.67,0,0,1,3.59,3.73,1.61,1.61,0,0,1,0,.31h-7.14v-.31A3.68,3.68,0,0,1,553.7,495.44Zm-34.07-32.83h.66v10.95h-.66Zm-9.56,22.48a1.61,1.61,0,0,0,.31,0h8.08a1.64,1.64,0,0,0,0-3.27h-7.25a10.65,10.65,0,0,1,9.21-5.05c5.76,0,10.44,4.29,10.44,9.57a17.11,17.11,0,0,1-.33,2.66h-6.47a1.64,1.64,0,0,0-.26,3.27h5.67a12.2,12.2,0,0,0-3.72,7.17h-13C511,492.83,510,488.1,510,486.38A9.3,9.3,0,0,1,510.07,485.09ZM587,512.86H572.63a1.64,1.64,0,0,0,0,3.27H587v10.11H535.53a1.64,1.64,0,0,0-.26,3.27H587v10.11H510V529.51h14.36a1.64,1.64,0,0,0,0-3.27H510V516.13h51.46a1.64,1.64,0,0,0,.26-3.27H510V502.75h77Z" transform="translate(-28.21 -16.48)" fill="#213959"/>
      <path d="M546.77,468.16h0a1.63,1.63,0,0,0,0,3.26h0a1.63,1.63,0,0,0,0-3.26Z" transform="translate(-28.21 -16.48)" fill="#213959"/>
    </g>
    <g id="Gruppe_31-4" data-name="Gruppe 31">
      <path id="Pfad_56-3" data-name="Pfad 56" d="M548.93,510c15.61,0,14.59,5.11,14.59,13.14s-6.56,8.42-14.59,8.42-14.9-.39-14.9-8.42S533.31,510,548.93,510Z" transform="translate(-28.21 -16.48)" fill="#57cf95"/>
      <g id="Gruppe_30-3" data-name="Gruppe 30">
        <path id="Differenzmenge_5-3" data-name="Differenzmenge 5" d="M560.78,517.26H537.35v-4.12h23.43ZM559,514.89a.45.45,0,1,0,0,.9.45.45,0,0,0,.45-.45h0A.45.45,0,0,0,559,514.89Zm-20,0a.45.45,0,1,0,.45.45A.45.45,0,0,0,538.94,514.89Z" transform="translate(-28.21 -16.48)" fill="#203858"/>
        <path id="Differenzmenge_6-3" data-name="Differenzmenge 6" d="M560.78,522.08H537.35V518h23.43ZM559,519.71a.47.47,0,0,0-.46.46.46.46,0,1,0,.91,0h0A.45.45,0,0,0,559,519.71Zm-20,0a.46.46,0,0,0-.45.46.45.45,0,0,0,.45.45.46.46,0,0,0,.45-.46A.45.45,0,0,0,538.94,519.71Z" transform="translate(-28.21 -16.48)" fill="#203858"/>
        <path id="Differenzmenge_7-3" data-name="Differenzmenge 7" d="M560.78,526.91H537.35v-4.12h23.43ZM559,524.54a.45.45,0,1,0,0,.9.45.45,0,0,0,.45-.45h0A.45.45,0,0,0,559,524.54Zm-20,0a.45.45,0,1,0,.45.45A.45.45,0,0,0,538.94,524.54Z" transform="translate(-28.21 -16.48)" fill="#203858"/>
        <path id="Pfad_55-3" data-name="Pfad 55" d="M537.35,512.6s-1.54-3.78,0-4.61,3.6,1.09,3.6,1.09,1.64-3.19,4.6-3.17,4.05,4,4.05,4,1.4-1.32,2.37-1.32,1.5,1.32,1.5,1.32.4-.88,1-.81,1,1.09,1,1.09.5-.83,1.16-.71.9,1.57.9,1.57,1.5-5.31,2.2-5.12c0,0-1.63-.45-.82-1.29s.82,1.29.82,1.29.74-1.52,1.11-.94-1.11.94-1.11.94c1.06.25-.45,5.44-.45,5.44s3.68-6.07,5-5.44c0,0-1-.66-.22-1.37s.22,1.37.22,1.37.89-1.31,1.16-.65-1.16.65-1.16.65c.79.92-3.47,6.69-3.47,6.69Z" transform="translate(-28.21 -16.48)" fill="#203858"/>
      </g>
    </g>
  </g>
  <g id="order" data-tippy-content="Nach Vorbereitung der bestellten Ware, wird Ware verpackt und geliefert .">
    <circle cx="683.69" cy="115.66" r="56.22" fill="#fff"/>
    <g id="getOrder">
      <path d="M751.1,119.58h-4.83a4.72,4.72,0,0,0-4.53-3.49h-5.16v-12.6a1.3,1.3,0,0,0-.64-1.18l-36.35-21a1.33,1.33,0,0,0-1.36,0l-36.35,21a1.36,1.36,0,0,0-.68,1.18v42a1.36,1.36,0,0,0,.68,1.18l36.37,21a1.41,1.41,0,0,0,1.38,0l19.13-11v8a5.74,5.74,0,0,0,5.72,5.76H751.1a5.77,5.77,0,0,0,5.83-5.71h0v-39.2a5.86,5.86,0,0,0-5.79-5.93Zm-9.32-.78a2,2,0,0,1,2,2h0v.13a2,2,0,0,1-2,2h-7.89a2,2,0,0,1-2-2h0v-.13a2,2,0,0,1,2-2ZM698.93,84.06l15.12,8.72-33.66,19.47-15.12-8.72Zm-1.3,80.07-33.72-19.44V105.84l33.72,19.41Zm1.3-41.22-15.83-9.13,33.64-19.43,15.83,9.14Zm19.83,2.52v28.06l-18.41,10.64V125.25l33.52-19.43v10.27h0a4.76,4.76,0,0,0-4.54,3.49h-4.82A5.81,5.81,0,0,0,718.76,125.43Zm35.46,39.16a3.06,3.06,0,0,1-3.08,3H724.55a3,3,0,0,1-3.08-2.92V125.43a3.12,3.12,0,0,1,3.08-3.14h4.88a4.64,4.64,0,0,0,4.48,3.29h7.83a4.63,4.63,0,0,0,4.48-3.29h4.88a3.15,3.15,0,0,1,3.12,3.14v39.16Z" transform="translate(-28.21 -16.48)" fill="#213959"/>
      <path d="M726.1,139.15h1.41a1.37,1.37,0,0,0,1.48-1.24,1.36,1.36,0,0,0-1.24-1.47h-.24v-3.69h3.74a1.27,1.27,0,0,0,1.29.91,1.34,1.34,0,0,0,1.36-1.34h0v-.91a1.36,1.36,0,0,0-1.38-1.36h-6.39a1.33,1.33,0,0,0-1.34,1.32v0h0v6.39a1.36,1.36,0,0,0,1.34,1.36Z" transform="translate(-28.21 -16.48)" fill="#213959"/>
      <path d="M726.12,151.55h6.39a1.34,1.34,0,0,0,1.36-1.34V143.8a1.34,1.34,0,0,0-1.34-1.36h-6.41a1.35,1.35,0,0,0-1.36,1.34v6.41a1.36,1.36,0,0,0,1.34,1.36Zm1.36-6.39h3.68v3.68h-3.68Z" transform="translate(-28.21 -16.48)" fill="#213959"/>
      <path d="M727.53,161.25h0v-3.68h3.66a1.38,1.38,0,0,0,1.49,1.25,1.37,1.37,0,0,0,1.24-1.25v-1.32a1.41,1.41,0,0,0-1.38-1.41H726.1a1.38,1.38,0,0,0-1.34,1.4h0v6.4a1.31,1.31,0,0,0,1.3,1.31h1.45a1.34,1.34,0,0,0,1.36-1.34h0a1.36,1.36,0,0,0-1.34-1.38h0Z" transform="translate(-28.21 -16.48)" fill="#213959"/>
      <path d="M735.61,131.71l-4,4-1.2-1.2a1.36,1.36,0,1,0-2,1.81l.11.11,2.17,2.17a1.38,1.38,0,0,0,1.92,0h0l4.94-4.94a1.36,1.36,0,0,0,0-1.92,1.38,1.38,0,0,0-1.94,0Z" transform="translate(-28.21 -16.48)" fill="#213959"/>
      <path d="M735.61,156.74l-4,4-1.2-1.2a1.35,1.35,0,1,0-1.92,1.91l2.17,2.17a1.36,1.36,0,0,0,1.92,0h0l4.94-4.94a1.36,1.36,0,0,0,0-1.92,1.4,1.4,0,0,0-1.94,0Z" transform="translate(-28.21 -16.48)" fill="#213959"/>
      <path d="M749.55,133.34H741a1.36,1.36,0,0,0,0,2.71h8.53a1.36,1.36,0,0,0,0-2.71Z" transform="translate(-28.21 -16.48)" fill="#213959"/>
      <path d="M749.55,145.74H741a1.36,1.36,0,0,0,0,2.71h8.53a1.36,1.36,0,0,0,0-2.71Z" transform="translate(-28.21 -16.48)" fill="#213959"/>
      <path d="M749.55,158.14H741a1.36,1.36,0,0,0,0,2.71h8.53a1.33,1.33,0,0,0,1.35-1.33v0A1.36,1.36,0,0,0,749.55,158.14Z" transform="translate(-28.21 -16.48)" fill="#213959"/>
    </g>
    <g id="Gruppe_31-5" data-name="Gruppe 31">
      <path id="Pfad_56-4" data-name="Pfad 56" d="M681,129.24c12.24,4.83,10.82,8.07,9.84,13.66s-6.17,3.84-12.47,1.36-11.64-4.88-10.66-10.47S668.8,124.41,681,129.24Z" transform="translate(-28.21 -16.48)" fill="#57cf95"/>
      <g id="Gruppe_30-4" data-name="Gruppe 30">
        <path id="Differenzmenge_5-4" data-name="Differenzmenge 5" d="M689.45,138l-18.38-7.24.51-2.87L690,135.11Zm-1.15-2.21c-.2-.08-.38,0-.41.17a.45.45,0,0,0,.3.46c.2.07.38,0,.41-.18h0A.44.44,0,0,0,688.3,135.76Zm-15.69-6.19a.28.28,0,0,0-.41.18.45.45,0,0,0,.3.45c.2.08.38,0,.41-.17A.45.45,0,0,0,672.61,129.57Z" transform="translate(-28.21 -16.48)" fill="#203858"/>
        <path id="Differenzmenge_6-4" data-name="Differenzmenge 6" d="M688.86,141.33l-18.37-7.24.5-2.87,18.37,7.25Zm-1.15-2.21c-.2-.08-.38,0-.41.17a.45.45,0,0,0,.3.46c.2.07.38,0,.41-.18h0A.44.44,0,0,0,687.71,139.12ZM672,132.93c-.2-.07-.38,0-.41.18a.43.43,0,0,0,.3.45.27.27,0,0,0,.4-.17A.44.44,0,0,0,672,132.93Z" transform="translate(-28.21 -16.48)" fill="#203858"/>
        <path id="Differenzmenge_7-4" data-name="Differenzmenge 7" d="M688.27,144.69l-18.37-7.24.5-2.87,18.37,7.25Zm-1.15-2.21a.28.28,0,0,0-.41.17.46.46,0,0,0,.3.46c.2.07.38,0,.41-.18h0A.44.44,0,0,0,687.12,142.48Zm-15.68-6.19c-.2-.07-.38,0-.41.18a.44.44,0,0,0,.3.45.28.28,0,0,0,.41-.17A.46.46,0,0,0,671.44,136.29Z" transform="translate(-28.21 -16.48)" fill="#203858"/>
        <path id="Pfad_55-4" data-name="Pfad 55" d="M671.64,127.49s-.74-3.11.57-3.21,2.69,1.87,2.69,1.87a3.81,3.81,0,0,1,4-.79c2.32.92,2.69,4,2.69,4a3.52,3.52,0,0,1,2-.19c.76.3,1,1.38,1,1.38s.43-.49.9-.25.64,1.06.64,1.06a.91.91,0,0,1,1-.13c.5.29.51,1.36.51,1.36s1.83-3.22,2.35-2.88c0,0-1.22-.82-.48-1.15s.48,1.15.48,1.15.77-.83,1-.3-1,.3-1,.3c.8.51-1,3.65-1,3.65s3.63-3.09,4.58-2.25c0,0-.69-.76,0-1s0,1,0,1,.85-.63,1-.09-1,.09-1,.09c.5.88-3.54,3.59-3.54,3.59Z" transform="translate(-28.21 -16.48)" fill="#203858"/>
      </g>
    </g>
  </g>
</svg>
