<svg id="Ebene_1" data-name="Ebene 1" xmlns="http://www.w3.org/2000/svg" xmlns:xlink="http://www.w3.org/1999/xlink" viewBox="0 0 823.88 544.16">
  <defs>
    <clipPath id="clip-path" transform="translate(-18.21 -16.48)">
      <rect x="696.72" y="189.85" width="181.21" height="181.21" fill="none"/>
    </clipPath>
  </defs>
  <title>prozess_icons</title>
  <g id="money">
    <circle cx="348.75" cy="413.73" r="52.11" fill="#fff"/>
    <path d="M390.47,452.72H330.73V411.08h9.68a1.23,1.23,0,0,0,0-2.46H329.5a1.23,1.23,0,0,0-1.22,1.23V454a1.22,1.22,0,0,0,1.22,1.22h10.68l4.58,9.87a1.26,1.26,0,0,0,1.64.6l4.48-2.08,13.6,9.7a1.21,1.21,0,0,0,1.69-.26l0,0,12.7-17.8h11.59a1.23,1.23,0,0,0,1.23-1.22,1.25,1.25,0,0,0-1.22-1.28Zm-47.57,2.46h20.23l-16.65,7.72Zm22,15.37-11.45-8.16,15.52-7.2h6.89Z" transform="translate(-18.21 -16.48)" fill="#213959"/>
    <path d="M410.8,408.61H400.12l-4.58-9.87a1.26,1.26,0,0,0-1.64-.6l-4.48,2.07-13.58-9.68a1.23,1.23,0,0,0-1.71.3l-12.7,17.79H345.34a1.23,1.23,0,0,0-1.23,1.23,1.21,1.21,0,0,0,1.22,1.23h64.24v41.66H395.39a1.23,1.23,0,1,0-.22,2.45H410.8A1.24,1.24,0,0,0,412,454V409.85A1.24,1.24,0,0,0,410.8,408.61Zm-13.4,0H377.17l16.65-7.72Zm-22-15.36,11.45,8.16-15.52,7.2h-6.89Z" transform="translate(-18.21 -16.48)" fill="#213959"/>
    <path d="M370.15,443.64a11.73,11.73,0,1,0-11.73-11.73h0A11.74,11.74,0,0,0,370.15,443.64Zm0-21a9.28,9.28,0,1,1-9.27,9.29h0A9.29,9.29,0,0,1,370.15,422.64Z" transform="translate(-18.21 -16.48)" fill="#213959"/>
    <path d="M359.75,449.16h37.42a1.24,1.24,0,0,0,1.23-1.23,6.66,6.66,0,0,1,6.3-6.13,1.24,1.24,0,0,0,1.23-1.23V423.21A1.23,1.23,0,0,0,404.7,422a6.66,6.66,0,0,1-6.3-6.14,1.23,1.23,0,0,0-1.23-1.22H342.46a1.23,1.23,0,0,0-1.23,1.22c0,3.29-2.63,6.17-5.63,6.17a1.23,1.23,0,0,0-1.22,1.23v17.29a1.22,1.22,0,0,0,1.22,1.22h0c3,0,5.63,2.88,5.63,6.17a1.24,1.24,0,0,0,1.23,1.23h12.38a1.23,1.23,0,0,0,0-2.46H343.6a9.17,9.17,0,0,0-2.22-4.71,7.84,7.84,0,0,0-4.53-2.57v-15a8,8,0,0,0,4.53-2.57,9,9,0,0,0,2.22-4.71h52.46a9.38,9.38,0,0,0,7.41,7.26v15.1a9.34,9.34,0,0,0-7.41,7.26H359.75a1.24,1.24,0,0,0-1.23,1.23A1.22,1.22,0,0,0,359.75,449.16Z" transform="translate(-18.21 -16.48)" fill="#213959"/>
  </g>
  <g id="clock">
    <rect x="214.09" y="204.88" width="111.62" height="101.96" fill="#fff"/>
    <path d="M298.2,306.26c-.67.18-1.36.32-2.06.44a3.33,3.33,0,1,0,1.21,6.54c.81-.15,1.65-.33,2.46-.53a3.31,3.31,0,1,0-1.61-6.43h0Z" transform="translate(-18.21 -16.48)" fill="#213959"/>
    <path d="M322.71,261.82a3.25,3.25,0,0,0,1.25,1.67,3.31,3.31,0,0,0,5.06-3.74c-.26-.8-.54-1.58-.86-2.36a3.31,3.31,0,0,0-6.15,2.46C322.25,260.49,322.48,261.16,322.71,261.82Z" transform="translate(-18.21 -16.48)" fill="#213959"/>
    <path d="M309,301.53c-.59.39-1.19.76-1.79,1.11a3.33,3.33,0,0,0-1.23,4.52,3.4,3.4,0,0,0,1,1,3.28,3.28,0,0,0,3.56.16c.73-.43,1.44-.87,2.15-1.33a3.3,3.3,0,1,0-3.65-5.51h0Z" transform="translate(-18.21 -16.48)" fill="#213959"/>
    <path d="M331.06,271.09a3.31,3.31,0,1,0-6.62,0,2.35,2.35,0,0,0,0,.26v2.11a3.33,3.33,0,0,0,1.4,2.78,3.23,3.23,0,0,0,1.83.6,3.31,3.31,0,0,0,3.38-3.24h0C331.1,272.78,331.1,271.92,331.06,271.09Z" transform="translate(-18.21 -16.48)" fill="#213959"/>
    <path d="M322.16,292.8a3.32,3.32,0,0,0-4.64.66c-.42.57-.87,1.12-1.31,1.65a3.33,3.33,0,0,0,.37,4.68l.25.19a3.32,3.32,0,0,0,4.43-.56c.55-.64,1.06-1.3,1.58-2A3.31,3.31,0,0,0,322.16,292.8Z" transform="translate(-18.21 -16.48)" fill="#213959"/>
    <path d="M327,280.82a3.29,3.29,0,0,0-4.14,2.15v0c-.21.68-.44,1.33-.69,2a3.3,3.3,0,0,0,1.19,3.88,3.6,3.6,0,0,0,.72.39,3.32,3.32,0,0,0,4.28-1.92c.3-.78.56-1.57.81-2.37a3.3,3.3,0,0,0-2.13-4.15Z" transform="translate(-18.21 -16.48)" fill="#213959"/>
    <path d="M283.74,306.74a34.43,34.43,0,0,1-8.51-2.7l-.09-.05a16.92,16.92,0,0,1-1.88-1h0a37.93,37.93,0,0,1-3.29-2,34.57,34.57,0,0,1,.16-56.65.27.27,0,0,1,.12-.09,34.7,34.7,0,0,1,38.84-.32l-2.59,3.74c-.73,1-.29,1.81,1,1.68l11.26-1a1.85,1.85,0,0,0,1.77-1.92,1.71,1.71,0,0,0-.09-.51l-3-10.88c-.34-1.22-1.21-1.37-1.93-.32l-2.59,3.76a41,41,0,0,0-30-6.38c-1.06.17-2.11.41-3.14.67h-.13A41,41,0,0,0,256.88,248a1.15,1.15,0,0,0-.14.17c-.19.25-.37.52-.55.78-.3.43-.58.87-.87,1.3a.51.51,0,0,0-.09.16,41,41,0,0,0-6.54,24.1v.09a23.18,23.18,0,0,0,.2,2.5v.16c.08.83.21,1.67.35,2.5A40.86,40.86,0,0,0,260.78,302h0a42,42,0,0,0,5.28,4.41,41,41,0,0,0,16.44,6.88,3.32,3.32,0,1,0,1.17-6.54Z" transform="translate(-18.21 -16.48)" fill="#213959"/>
    <path d="M287.83,245.9a2.68,2.68,0,0,0-2.68,2.68v26.71l24.45,12.64a2.68,2.68,0,0,0,2.46-4.77h0L290.52,272V248.58A2.7,2.7,0,0,0,287.83,245.9Z" transform="translate(-18.21 -16.48)" fill="#213959"/>
  </g>
  <g id="partner">
    <rect y="203.63" width="111.62" height="101.96" fill="#fff"/>
    <path d="M102,247.64a1.94,1.94,0,1,0-2.74,0h0A1.93,1.93,0,0,0,102,247.64Z" transform="translate(-18.21 -16.48)" fill="#213959"/>
    <path d="M47.92,251.67a1.94,1.94,0,1,0-2.74,0h0A1.93,1.93,0,0,0,47.92,251.67Z" transform="translate(-18.21 -16.48)" fill="#213959"/>
    <path d="M36.46,262.88l5.82-5.82a1.94,1.94,0,1,0-2.75-2.74h0l-5.82,5.82a1.94,1.94,0,0,0,2.75,2.74Z" transform="translate(-18.21 -16.48)" fill="#213959"/>
    <path d="M108.45,257.24a1.94,1.94,0,0,0,2.74-2.75l-3.87-3.87a1.94,1.94,0,1,0-2.75,2.74Z" transform="translate(-18.21 -16.48)" fill="#213959"/>
    <path d="M121.63,255.08l-22-22a1.94,1.94,0,0,0-2.7,0L87,242.29h0A8.17,8.17,0,0,1,80.92,245c-4.69,0-8.29,1.32-11.29,4.17a14.59,14.59,0,0,0-9.11-3.94l-9.73-9.73a1.94,1.94,0,0,0-2.74,0h0l-25,25a1.94,1.94,0,0,0,0,2.7h0L39.3,279.47l-.68.68a6.81,6.81,0,0,0,4.88,11.62,6.78,6.78,0,0,0,6.69,6.87h.19A6.77,6.77,0,0,0,57,305.51h.22a6.8,6.8,0,0,0,11.62,4.89l.68-.68.68.68a6.81,6.81,0,0,0,11.63-4.89,6.78,6.78,0,0,0,6.87-6.69v-.18a6.77,6.77,0,0,0,4.88-2,6.6,6.6,0,0,0,2-4.89,6.81,6.81,0,0,0,4.89-11.62l-.69-.68c13.57-13.55-3.6,3.62,21.71-21.69a1.87,1.87,0,0,0,.15-2.64Zm-94.42,6.81L49.4,239.7l7.48,7.47L34.69,269.36ZM41.4,287.08a2.9,2.9,0,0,1,0-4.1l0,0,6.89-6.89a2.94,2.94,0,0,1,4.13,0,2.9,2.9,0,0,1,0,4.1l0,0-6.87,6.87A3,3,0,0,1,41.4,287.08ZM48.29,294a2.92,2.92,0,0,1,0-4.13h0l6.9-6.89a2.89,2.89,0,0,1,4.09,0l0,0a2.92,2.92,0,0,1,0,4.13h0L52.42,294a2.9,2.9,0,0,1-4.1,0Zm6.9,6.89a2.89,2.89,0,0,1,0-4.09l0,0,6.89-6.9A2.92,2.92,0,0,1,66.2,294h0l-6.89,6.89a2.94,2.94,0,0,1-4.12-.05Zm6.87,6.88a2.9,2.9,0,0,1,0-4.1l0,0L69,296.7a2.92,2.92,0,0,1,4.13,4.12l-6.89,6.9a2.92,2.92,0,0,1-4.13,0l0,0Zm15.14,0a3,3,0,0,1-4.12,0L72.4,307l3.44-3.44a7.55,7.55,0,0,0,.64-.74l.74.74h0a2.92,2.92,0,0,1,0,4.13l0,0Zm20.66-20.64a2.94,2.94,0,0,1-4.13,0l-9-9A1.94,1.94,0,0,0,82,280.87l9,8.95A2.94,2.94,0,1,1,86.86,294l-9-8.95a1.94,1.94,0,0,0-2.74,2.74l9,9a2.93,2.93,0,0,1,0,4.12,2.9,2.9,0,0,1-2.06.86c-1.85,0-2.45-1.46-4.2-3a6.79,6.79,0,0,0-2-4.75A6.89,6.89,0,0,0,71,292a6.77,6.77,0,0,0-6.65-6.87H64.1a6.82,6.82,0,0,0-6.74-6.9h-.15a6.8,6.8,0,0,0-11.62-4.88l-3.45,3.44-4.63-4.63,22.85-22.87A10.63,10.63,0,0,1,66.87,252l-5.51,5.49a7.79,7.79,0,0,0,11,11l5.5-5.51,20,19.95a3,3,0,0,1,0,4.15Zm-.7-10.34L80.63,260.21,82,258.83a1.94,1.94,0,0,0-2.74-2.74l-9.64,9.65a3.9,3.9,0,0,1-5.51-5.51L72,252.31C74.32,250,77,249,80.88,249a11.33,11.33,0,0,0,7.36-2.57l19.39,19.9L97.16,276.74Zm13.25-13.22-19.27-19.8,7-6.62,19.31,19.31Z" transform="translate(-18.21 -16.48)" fill="#213959"/>
  </g>
  <g id="arrows">
    <path d="M162.09,300.45a1.93,1.93,0,0,1-2.73,0h0a1.94,1.94,0,0,1,0-2.74h0l24.15-24.16-24.15-24.15a1.94,1.94,0,1,1,2.74-2.75h0l25.54,25.53a2,2,0,0,1,0,2.75Z" transform="translate(-18.21 -16.48)" fill="#69bc90"/>
    <path d="M431.78,122.73a1.94,1.94,0,0,1-3.4-1.88L444.94,91,415.05,74.41a1.95,1.95,0,0,1,1.89-3.4L448.52,88.5a1.94,1.94,0,0,1,.76,2.64h0Z" transform="translate(-18.21 -16.48)" fill="#69bc90"/>
    <path d="M736.79,197.48a1.93,1.93,0,0,1-1.35-2.39,1.93,1.93,0,0,1,2.37-1.36h0l32.92,9.11,9.12-32.93a1.94,1.94,0,1,1,3.81.75,2.33,2.33,0,0,1-.07.25L774,205.76a1.94,1.94,0,0,1-2.39,1.35h0Z" transform="translate(-18.21 -16.48)" fill="#69bc90"/>
    <path d="M755.92,346.91a1.94,1.94,0,1,1,3.82-.71h0L766,379.78l33.58-6.27a1.94,1.94,0,0,1,.72,3.82L764.81,384a1.94,1.94,0,0,1-2.26-1.56h0Z" transform="translate(-18.21 -16.48)" fill="#69bc90"/>
    <path d="M621.16,461.21a1.93,1.93,0,0,1,2.41-1.28h0a1.94,1.94,0,0,1,1.28,2.43h0L614.7,495l32.62,10.17a1.94,1.94,0,0,1-1.16,3.7l-34.47-10.74a2,2,0,0,1-1.28-2.44Z" transform="translate(-18.21 -16.48)" fill="#69bc90"/>
    <path d="M463.15,467.9a1.94,1.94,0,0,1,2.42,1.3h0a1.94,1.94,0,0,1-1.3,2.42h0l-32.72,9.82,9.82,32.72a1.94,1.94,0,0,1-3.72,1.12L427.27,480.7a2,2,0,0,1,1.3-2.42Z" transform="translate(-18.21 -16.48)" fill="#69bc90"/>
    <path d="M601,99.15a2,2,0,0,1-1.47.22,1.94,1.94,0,0,1-.53-3.55L628.26,78.2,610.64,48.93a1.94,1.94,0,1,1,3.33-2l18.62,30.93a2,2,0,0,1-.67,2.67Z" transform="translate(-18.21 -16.48)" fill="#69bc90"/>
    <path d="M346.46,352.5a1.88,1.88,0,0,1,1.12,1,1.9,1.9,0,0,1,.1,1.48,1.94,1.94,0,0,1-2.45,1.23h0l-32.36-10.93-10.93,32.37a1.94,1.94,0,0,1-3.68-1.24h0l11.55-34.21a2,2,0,0,1,2.46-1.22Z" transform="translate(-18.21 -16.48)" fill="#69bc90"/>
    <path d="M335.19,223.92a1.94,1.94,0,1,1-3.74,1.06h0l-9.37-32.85-32.86,9.38a1.94,1.94,0,0,1-1.06-3.74h0l34.72-9.91a2,2,0,0,1,2.4,1.34Z" transform="translate(-18.21 -16.48)" fill="#69bc90"/>
  </g>
  <g id="circle">
    <g id="circle-2" data-name="circle">
      <circle cx="525.6" cy="265.87" r="113.11" fill="none" stroke="#213959" stroke-miterlimit="10"/>
      <g style="isolation: isolate">
        <text transform="translate(433.87 288.47)" font-size="21" fill="#213959" font-family="NunitoSans-Regular, Nunito Sans" style="isolation: isolate">Be</text>
        <text transform="translate(459.09 288.47)" font-size="21" fill="#213959" font-family="NunitoSans-Regular, Nunito Sans" style="isolation: isolate">s</text>
        <text transform="translate(469.07 288.47)" font-size="21" fill="#213959" font-family="NunitoSans-Regular, Nunito Sans" style="isolation: isolate">tella</text>
        <text transform="translate(508.15 288.47)" font-size="21" fill="#213959" font-family="NunitoSans-Regular, Nunito Sans" letter-spacing="-0.01em" style="isolation: isolate">b</text>
        <text transform="translate(520.24 288.47)" font-size="21" fill="#213959" font-family="NunitoSans-Regular, Nunito Sans" style="isolation: isolate">wicklungs-</text>
        <text transform="translate(492.35 313.67)" font-size="21" fill="#213959" font-family="NunitoSans-Regular, Nunito Sans" style="isolation: isolate">p</text>
        <text transform="translate(504.58 313.67)" font-size="21" fill="#213959" font-family="NunitoSans-Regular, Nunito Sans" letter-spacing="-0.01em" style="isolation: isolate">r</text>
        <text transform="translate(511.78 313.67)" font-size="21" fill="#213959" font-family="NunitoSans-Regular, Nunito Sans" letter-spacing="-0.02em" style="isolation: isolate">o<tspan x="11.21" y="0" letter-spacing="-0.01em">z</tspan></text>
        <text transform="translate(533.54 313.67)" font-size="21" fill="#213959" font-family="NunitoSans-Regular, Nunito Sans" style="isolation: isolate">ess</text>
      </g>
    </g>
    <g id="Gruppe_31" data-name="Gruppe 31">
      <path id="Pfad_56" data-name="Pfad 56" d="M543.35,220.16c38.69,0,36.18,12.66,36.18,32.57s-16.27,20.87-36.18,20.87-36.93-1-36.93-20.87S504.66,220.16,543.35,220.16Z" transform="translate(-18.21 -16.48)" fill="#57cf95"/>
      <g id="Gruppe_30" data-name="Gruppe 30">
        <path id="Differenzmenge_5" data-name="Differenzmenge 5" d="M572.73,238.2H514.65V228h58.08Zm-4.55-5.87a1.12,1.12,0,1,0,1.12,1.12h0A1.12,1.12,0,0,0,568.18,232.33Zm-49.57,0a1.12,1.12,0,1,0,1.12,1.12A1.13,1.13,0,0,0,518.61,232.33Z" transform="translate(-18.21 -16.48)" fill="#203858"/>
        <path id="Differenzmenge_6" data-name="Differenzmenge 6" d="M572.73,250.16H514.65V240h58.08Zm-4.55-5.87a1.12,1.12,0,1,0,1.12,1.12h0A1.12,1.12,0,0,0,568.18,244.29Zm-49.57,0a1.12,1.12,0,1,0,1.12,1.12A1.13,1.13,0,0,0,518.61,244.29Z" transform="translate(-18.21 -16.48)" fill="#203858"/>
        <path id="Differenzmenge_7" data-name="Differenzmenge 7" d="M572.73,262.11H514.65V251.92h58.08Zm-4.55-5.87a1.13,1.13,0,1,0,1.12,1.13h0A1.13,1.13,0,0,0,568.18,256.24Zm-49.57,0a1.13,1.13,0,1,0,1.12,1.13A1.14,1.14,0,0,0,518.61,256.24Z" transform="translate(-18.21 -16.48)" fill="#203858"/>
        <path id="Pfad_55" data-name="Pfad 55" d="M514.65,226.66s-3.81-9.37,0-11.42,8.93,2.69,8.93,2.69,4.08-7.89,11.4-7.86S545,220,545,220s3.48-3.28,5.87-3.28S554.6,220,554.6,220s1-2.19,2.53-2,2.42,2.7,2.42,2.7,1.22-2.06,2.86-1.75,2.23,3.87,2.23,3.87,3.74-13.15,5.45-12.69c0,0-4-1.11-2-3.19s2,3.19,2,3.19,1.84-3.75,2.77-2.31-2.77,2.31-2.77,2.31c2.64.63-1.11,13.5-1.11,13.5s9.12-15,12.35-13.5c0,0-2.44-1.63-.56-3.39s.56,3.39.56,3.39,2.19-3.23,2.87-1.61-2.87,1.61-2.87,1.61c1.95,2.28-8.6,16.59-8.6,16.59Z" transform="translate(-18.21 -16.48)" fill="#203858"/>
      </g>
    </g>
  </g>
  <g id="cart">
    <circle cx="337.43" cy="111.45" r="56.22" fill="#fff"/>
    <g id="cart-2" data-name="cart">
      <path d="M357.74,150.47a8.5,8.5,0,1,0,8.49,8.51h0A8.52,8.52,0,0,0,357.74,150.47Zm0,15.91a7.4,7.4,0,1,1,7.4-7.4h0A7.42,7.42,0,0,1,357.74,166.38Z" transform="translate(-18.21 -16.48)" fill="#213959"/>
      <path d="M357.74,155.18a3.81,3.81,0,1,0,3.8,3.82v0A3.8,3.8,0,0,0,357.74,155.18Zm0,6.51a2.71,2.71,0,1,1,2.7-2.72h0a2.72,2.72,0,0,1-2.7,2.71Z" transform="translate(-18.21 -16.48)" fill="#213959"/>
      <path d="M377.91,150.47A8.5,8.5,0,1,0,386.4,159h0A8.52,8.52,0,0,0,377.91,150.47Zm0,15.91a7.4,7.4,0,1,1,7.4-7.4h0A7.42,7.42,0,0,1,377.91,166.38Z" transform="translate(-18.21 -16.48)" fill="#213959"/>
      <path d="M377.91,155.18a3.81,3.81,0,1,0,3.8,3.82v0A3.8,3.8,0,0,0,377.91,155.18Zm0,6.51a2.71,2.71,0,1,1,2.7-2.72h0a2.72,2.72,0,0,1-2.7,2.71Z" transform="translate(-18.21 -16.48)" fill="#213959"/>
      <path d="M397.66,104.58a3,3,0,0,0-2.43-1.24H337.46a.54.54,0,0,0-.44.22.47.47,0,0,0-.09.47l9.13,36.16a.58.58,0,0,0,.53.42H368a.55.55,0,0,0,0-1.1H347l-8.86-35.06h57.08a1.91,1.91,0,0,1,1.91,1.91,2,2,0,0,1-.09.59L386.9,138.18a1.89,1.89,0,0,1-1.82,1.31h-11.6a.55.55,0,1,0,0,1.1h11.6A3,3,0,0,0,388,138.5l10.14-31.22a3,3,0,0,0-.43-2.7Z" transform="translate(-18.21 -16.48)" fill="#213959"/>
      <path d="M389,145.17H348.46L333.84,87.31a3.22,3.22,0,0,0-3.11-2.41H316.48a3.2,3.2,0,0,0,0,6.4h11.75l1.92,7.58a.55.55,0,0,0,.71.32.55.55,0,0,0,.35-.58l-2-8a.54.54,0,0,0-.53-.42h-12.2a2.1,2.1,0,0,1,0-4.2h14.25a2.11,2.11,0,0,1,2,1.59l14.73,58.28a.54.54,0,0,0,.53.42h41a2.1,2.1,0,0,1,0,4.2H346a2.07,2.07,0,0,1-2-1.59l-11.31-44.74a.52.52,0,0,0-.63-.4h0a.53.53,0,0,0-.41.61v0l11.3,44.75a3.2,3.2,0,0,0,3.11,2.41h43a3.2,3.2,0,0,0,0-6.4Z" transform="translate(-18.21 -16.48)" fill="#213959"/>
      <path d="M327.36,113.48c-.35,4.22-4.76,4.89-4.76,4.89,3.79.18,4.72,5.14,4.72,5.14.07-3.55,4.86-5.19,4.86-5.19C328.6,118.1,327.36,113.48,327.36,113.48Z" transform="translate(-18.21 -16.48)" fill="#213959"/>
      <path d="M332.21,117.77c-3.14-.18-4.33-4.39-4.33-4.44a.55.55,0,0,0-1.07.09c-.31,3.73-4.13,4.37-4.3,4.4a.54.54,0,0,0,.08,1.08c3.3.17,4.2,4.64,4.2,4.7a.55.55,0,0,0,.53.44h.05a.55.55,0,0,0,.51-.53c.08-3.11,4.46-4.68,4.5-4.68a.53.53,0,0,0,.36-.59A.59.59,0,0,0,332.21,117.77Zm-4.95,3.78a6.35,6.35,0,0,0-2.77-3.25,5.86,5.86,0,0,0,3-3,6.62,6.62,0,0,0,3,3.18,7.83,7.83,0,0,0-3.23,3.07Z" transform="translate(-18.21 -16.48)" fill="#213959"/>
      <path d="M319.43,119.67c-.26,3-3.37,3.45-3.37,3.45,2.67.15,3.35,3.66,3.35,3.66,0-2.51,3.43-3.68,3.43-3.68C320.3,123,319.43,119.67,319.43,119.67Z" transform="translate(-18.21 -16.48)" fill="#213959"/>
      <path d="M322.88,122.56c-2.1-.13-2.91-3-2.92-3a.56.56,0,0,0-.59-.4.54.54,0,0,0-.49.49,3.44,3.44,0,0,1-2.91,3,.54.54,0,0,0-.45.57.53.53,0,0,0,.53.51c2.21.11,2.81,3.16,2.83,3.2a.55.55,0,0,0,.53.44h0a.58.58,0,0,0,.52-.53c.05-2.09,3.05-3.16,3.07-3.16a.53.53,0,0,0,.36-.59.55.55,0,0,0-.51-.47ZM319.37,125a4.85,4.85,0,0,0-1.62-1.94,4.36,4.36,0,0,0,1.77-1.79,4.73,4.73,0,0,0,1.81,1.9A5.82,5.82,0,0,0,319.37,125Z" transform="translate(-18.21 -16.48)" fill="#213959"/>
      <path d="M319.43,109.93c-.26,3-3.37,3.47-3.37,3.47,2.67.13,3.35,3.64,3.35,3.64,0-2.5,3.43-3.67,3.43-3.67C320.3,113.2,319.43,109.93,319.43,109.93Z" transform="translate(-18.21 -16.48)" fill="#213959"/>
      <path d="M322.88,112.82c-2.1-.13-2.91-3-2.92-3a.56.56,0,0,0-.59-.4.54.54,0,0,0-.49.49,3.44,3.44,0,0,1-2.91,3,.54.54,0,0,0-.45.57.53.53,0,0,0,.53.51c2.21.11,2.81,3.16,2.83,3.18a.55.55,0,0,0,.53.44h0A.58.58,0,0,0,320,117v0c.05-2.08,3.05-3.16,3.07-3.16a.53.53,0,0,0,.36-.59A.55.55,0,0,0,322.88,112.82Zm-3.51,2.48a4.6,4.6,0,0,0-1.62-1.93,4.55,4.55,0,0,0,1.77-1.79,4.86,4.86,0,0,0,1.81,1.9A5.7,5.7,0,0,0,319.37,115.3Z" transform="translate(-18.21 -16.48)" fill="#213959"/>
      <path d="M332.42,133.68a16.9,16.9,0,1,0,16.89,16.91h0A16.92,16.92,0,0,0,332.42,133.68Zm0,32.7a15.8,15.8,0,1,1,15.8-15.8h0a15.82,15.82,0,0,1-15.8,15.8Z" transform="translate(-18.21 -16.48)" fill="#213959"/>
      <path d="M343,143.42a2,2,0,0,0-2.82-.15l-11.25,10.14L325,147.9a2,2,0,0,0-3.47,2,2.18,2.18,0,0,0,.22.31l5.2,7.36a2,2,0,0,0,1.41.82h.22a2,2,0,0,0,1.33-.51l12.9-11.64a2,2,0,0,0,.18-2.82h0Z" transform="translate(-18.21 -16.48)" fill="#213959"/>
      <path d="M343.36,143.05a2.54,2.54,0,0,0-3.6-.18L329,152.59l-3.54-5a2.56,2.56,0,0,0-1.65-1,2.51,2.51,0,0,0-1.9.43,2.6,2.6,0,0,0-1,1.65,2.56,2.56,0,0,0,.44,1.9l5.21,7.36a2.55,2.55,0,0,0,1.79,1.06h.27a2.48,2.48,0,0,0,1.7-.66l12.9-11.64a2.56,2.56,0,0,0,.18-3.6Zm-.91,2.78-12.9,11.64a1.52,1.52,0,0,1-1.14.36,1.45,1.45,0,0,1-1-.6l-5.21-7.36a1.42,1.42,0,0,1-.23-1.08,1.47,1.47,0,0,1,1.42-1.21,1.13,1.13,0,0,1,.26,0,1.48,1.48,0,0,1,.93.59l3.91,5.52a.54.54,0,0,0,.77.09l0,0,11.24-10.14a1.41,1.41,0,0,1,1-.37,1.49,1.49,0,0,1,1,.48,1.51,1.51,0,0,1-.11,2.08Z" transform="translate(-18.21 -16.48)" fill="#213959"/>
    </g>
    <g id="Gruppe_31-2" data-name="Gruppe 31">
      <path id="Pfad_56-2" data-name="Pfad 56" d="M366.68,114.38c12.57,0,11.75,4.11,11.75,10.58s-5.28,6.77-11.75,6.77-12-.31-12-6.77S354.12,114.38,366.68,114.38Z" transform="translate(-18.21 -16.48)" fill="#57cf95"/>
      <g id="Gruppe_30-2" data-name="Gruppe 30">
        <path id="Differenzmenge_5-2" data-name="Differenzmenge 5" d="M376.22,120.24H357.37v-3.31h18.85Zm-1.47-1.91a.37.37,0,1,0,0,.73.36.36,0,0,0,.36-.37h0A.36.36,0,0,0,374.75,118.33Zm-16.1,0a.37.37,0,1,0,.36.36A.36.36,0,0,0,358.65,118.33Z" transform="translate(-18.21 -16.48)" fill="#203858"/>
        <path id="Differenzmenge_6-2" data-name="Differenzmenge 6" d="M376.22,124.12H357.37v-3.31h18.85Zm-1.47-1.91a.38.38,0,0,0-.37.37.37.37,0,0,0,.37.36.36.36,0,0,0,.36-.36h0A.37.37,0,0,0,374.75,122.21Zm-16.1,0a.37.37,0,0,0-.36.37.36.36,0,0,0,.72,0A.37.37,0,0,0,358.65,122.21Z" transform="translate(-18.21 -16.48)" fill="#203858"/>
        <path id="Differenzmenge_7-2" data-name="Differenzmenge 7" d="M376.22,128H357.37v-3.31h18.85Zm-1.47-1.9a.37.37,0,0,0-.37.36.37.37,0,1,0,.73,0h0A.36.36,0,0,0,374.75,126.1Zm-16.1,0a.36.36,0,0,0-.36.36.37.37,0,0,0,.36.37.37.37,0,0,0,.36-.37A.36.36,0,0,0,358.65,126.1Z" transform="translate(-18.21 -16.48)" fill="#203858"/>
        <path id="Pfad_55-2" data-name="Pfad 55" d="M357.37,116.49s-1.24-3,0-3.71,2.89.88,2.89.88,1.33-2.57,3.71-2.56,3.26,3.21,3.26,3.21,1.13-1.06,1.9-1.06,1.21,1.06,1.21,1.06.33-.71.82-.65.79.88.79.88.39-.67.92-.57.73,1.25.73,1.25,1.21-4.26,1.77-4.12c0,0-1.31-.36-.66-1s.66,1,.66,1,.59-1.22.9-.75-.9.75-.9.75c.86.21-.36,4.39-.36,4.39s3-4.89,4-4.39c0,0-.79-.53-.18-1.1s.18,1.1.18,1.1.71-1,.93-.52-.93.52-.93.52c.63.74-2.8,5.39-2.8,5.39Z" transform="translate(-18.21 -16.48)" fill="#203858"/>
      </g>
    </g>
  </g>
  <g id="app">
    <circle cx="511.17" cy="56.22" r="56.22" fill="#fff"/>
    <g id="app-2" data-name="app">
      <path d="M517.85,102.44a1.52,1.52,0,0,0-1.11-.45,1.6,1.6,0,0,0-1.11.45,1.49,1.49,0,0,0-.46,1.11,1.58,1.58,0,0,0,2.68,1.12,1.57,1.57,0,0,0,.46-1.12A1.66,1.66,0,0,0,517.85,102.44Z" transform="translate(-18.21 -16.48)" fill="#213959"/>
      <path d="M538.89,35.07h-9.84a1.57,1.57,0,1,0,0,3.14h9.84a1.57,1.57,0,1,0,0-3.14Z" transform="translate(-18.21 -16.48)" fill="#213959"/>
      <path d="M555.28,66.11a1.57,1.57,0,0,0,1.57-1.57h0V36.37a5.67,5.67,0,0,0-5.67-5.67H516.77a5.67,5.67,0,0,0-5.67,5.67h0V47.2a40.1,40.1,0,0,0-14.88,31.21V94.78h-1.41a3.14,3.14,0,0,0-3.14,3.13v11.44a1.57,1.57,0,1,0,3.14,0V97.91H522.6v11.44a1.57,1.57,0,1,0,3.13.25,1,1,0,0,0,0-.25v-6.89h25.44a5.69,5.69,0,0,0,5.68-5.67V77.56a1.57,1.57,0,0,0-3.14,0V89.14H530.23l5-7a5.4,5.4,0,0,0,.39-5.67,5.46,5.46,0,0,0-7.36-2.35,5.87,5.87,0,0,0-.75.47L517.59,82a2.09,2.09,0,0,1-2.94-.42,2.12,2.12,0,0,1-.42-1.26V42.61h39.48V64.54a1.57,1.57,0,0,0,1.57,1.57Zm-1.57,26.16v4.52h0a2.54,2.54,0,0,1-2.54,2.53H525.73V97.91a3.08,3.08,0,0,0-1.27-2.5,15.39,15.39,0,0,0,3.5-3.14Zm-37.38-6.78a5.45,5.45,0,0,0,3.14-1l9.9-7.38a2.33,2.33,0,0,1,1.39-.47,2.27,2.27,0,0,1,2.07,1.27,2.32,2.32,0,0,1-.17,2.43l-6.61,9.32a12.29,12.29,0,0,1-10,5.15h-16.7V78.39A36.81,36.81,0,0,1,511.1,51.32V80.26A5.24,5.24,0,0,0,516.33,85.49Zm-2.1-46V36.37a2.54,2.54,0,0,1,2.54-2.53h34.42a2.54,2.54,0,0,1,2.54,2.53v3.11Z" transform="translate(-18.21 -16.48)" fill="#213959"/>
      <path d="M535.08,94.56a1.49,1.49,0,0,0-1.11-.45,1.6,1.6,0,0,0-1.11.45,1.52,1.52,0,0,0-.45,1.11,1.7,1.7,0,0,0,.45,1.12,1.57,1.57,0,1,0,2.22-2.23Z" transform="translate(-18.21 -16.48)" fill="#213959"/>
      <path d="M556.39,69.7a1.53,1.53,0,0,0-1.11-.46,1.66,1.66,0,0,0-1.11.46,1.53,1.53,0,0,0-.46,1.11,1.66,1.66,0,0,0,.46,1.11,1.53,1.53,0,0,0,1.11.46,1.59,1.59,0,0,0,1.11-.46,1.53,1.53,0,0,0,.46-1.11A1.66,1.66,0,0,0,556.39,69.7Z" transform="translate(-18.21 -16.48)" fill="#213959"/>
    </g>
    <g id="Gruppe_31-3" data-name="Gruppe 31">
      <path id="Pfad_56-3" data-name="Pfad 56" d="M534.79,51.37c12.56,0,11.74,4.11,11.74,10.57s-5.28,6.78-11.74,6.78-12-.31-12-6.78S522.22,51.37,534.79,51.37Z" transform="translate(-18.21 -16.48)" fill="#57cf95"/>
      <g id="Gruppe_30-3" data-name="Gruppe 30">
        <path id="Differenzmenge_5-3" data-name="Differenzmenge 5" d="M544.32,57.22H525.47V53.91h18.85Zm-1.47-1.9a.36.36,0,0,0-.36.36.36.36,0,1,0,.72,0h0A.36.36,0,0,0,542.85,55.32Zm-16.1,0a.36.36,0,0,0-.36.36.37.37,0,0,0,.36.37.38.38,0,0,0,.37-.37A.37.37,0,0,0,526.75,55.32Z" transform="translate(-18.21 -16.48)" fill="#203858"/>
        <path id="Differenzmenge_6-3" data-name="Differenzmenge 6" d="M544.32,61.11H525.47V57.8h18.85Zm-1.47-1.91a.37.37,0,1,0,.36.36h0A.36.36,0,0,0,542.85,59.2Zm-16.1,0a.37.37,0,0,0,0,.73.37.37,0,1,0,0-.73Z" transform="translate(-18.21 -16.48)" fill="#203858"/>
        <path id="Differenzmenge_7-3" data-name="Differenzmenge 7" d="M544.32,65H525.47V61.68h18.85Zm-1.47-1.91a.37.37,0,0,0-.36.37.36.36,0,1,0,.72,0h0A.37.37,0,0,0,542.85,63.08Zm-16.1,0a.37.37,0,0,0-.36.37.36.36,0,0,0,.36.36.37.37,0,0,0,.37-.36A.38.38,0,0,0,526.75,63.08Z" transform="translate(-18.21 -16.48)" fill="#203858"/>
        <path id="Pfad_55-3" data-name="Pfad 55" d="M525.47,53.48s-1.24-3,0-3.71,2.9.87,2.9.87,1.32-2.56,3.7-2.55,3.26,3.21,3.26,3.21,1.13-1.07,1.9-1.07,1.21,1.07,1.21,1.07.33-.71.82-.66.79.88.79.88.39-.67.93-.57.72,1.26.72,1.26,1.21-4.27,1.77-4.12c0,0-1.31-.36-.65-1s.65,1,.65,1,.6-1.22.9-.75-.9.75-.9.75c.86.2-.36,4.38-.36,4.38s3-4.88,4-4.38c0,0-.79-.53-.18-1.1s.18,1.1.18,1.1.71-1.05.93-.52-.93.52-.93.52c.63.74-2.79,5.39-2.79,5.39Z" transform="translate(-18.21 -16.48)" fill="#203858"/>
      </g>
    </g>
  </g>
  <g id="truck">
    <circle cx="767.66" cy="263.46" r="56.22" fill="#fff"/>
    <g id="truck-2" data-name="truck">
      <g clip-path="url(#clip-path)">
        <g id="Truck_blue" data-name="Truck blue">
          <g id="Gruppe_5" data-name="Gruppe 5">
            <path id="Pfad_41" data-name="Pfad 41" d="M800.92,258.37h15a3.52,3.52,0,0,1,2.84,1.41s12.45,17.56,13,18.69a8,8,0,0,1,1.13,3.68v17a4.57,4.57,0,0,1-1.41,3.12L829,304.8c-.85.85-1.13,1.14-3.12,1.14h-3.39s-1.14-9.91-9.91-9.63a10.13,10.13,0,0,0-9.63,9.63H783.36a10.23,10.23,0,0,0-10.19-9.63c-9.34-.28-9.91,9.63-9.91,9.63H757.6a3.51,3.51,0,0,1-2.27-1.14c-.28-.56-1.7-3.68-1.7-3.68a3.48,3.48,0,0,1-.56-2.83V288.1" transform="translate(-18.21 -16.48)" fill="none" stroke="#213959" stroke-linejoin="round" stroke-width="2.83"/>
            <g id="Rechteck_5" data-name="Rechteck 5">
              <path d="M753.35,243.65H793a8.34,8.34,0,0,1,8.49,8.19v28.61a8.34,8.34,0,0,1-8.13,8.55h-40a8.34,8.34,0,0,1-8.49-8.19V252.14a8.34,8.34,0,0,1,8.19-8.49Z" transform="translate(-18.21 -16.48)" fill="none"/>
              <path d="M753.35,245.06H793a7,7,0,0,1,7.08,6.92v28.47a7,7,0,0,1-6.92,7.08H753.35a7,7,0,0,1-7.08-6.92V252.14a7,7,0,0,1,6.92-7.08Z" transform="translate(-18.21 -16.48)" fill="none" stroke="#213959" stroke-width="2.83"/>
            </g>
            <path id="Pfad_42" data-name="Pfad 42" d="M807.71,286.68h14.73v-5.94a5.35,5.35,0,0,0-.57-2c-.28-.56-7.93-11.32-7.93-11.32-.85-1.42-1.13-2-3.11-2h-3.4Z" transform="translate(-18.21 -16.48)" fill="none" stroke="#213959" stroke-linejoin="round" stroke-width="2.83"/>
            <g id="Ellipse_1" data-name="Ellipse 1">
              <circle cx="754.96" cy="289.46" r="11.33" fill="none"/>
              <circle cx="754.96" cy="289.46" r="9.91" fill="none" stroke="#213959" stroke-width="2.83"/>
            </g>
            <g id="Ellipse_2" data-name="Ellipse 2">
              <circle cx="794.6" cy="289.46" r="11.33" fill="none"/>
              <circle cx="794.6" cy="289.46" r="9.91" fill="none" stroke="#213959" stroke-width="2.83"/>
            </g>
          </g>
        </g>
      </g>
    </g>
    <g id="Gruppe_31-4" data-name="Gruppe 31">
      <path id="Pfad_56-4" data-name="Pfad 56" d="M772.57,257.69c12.56,0,11.75,4.11,11.75,10.58S779,275,772.57,275s-12-.31-12-6.77S760,257.69,772.57,257.69Z" transform="translate(-18.21 -16.48)" fill="#57cf95"/>
      <g id="Gruppe_30-4" data-name="Gruppe 30">
        <path id="Differenzmenge_5-4" data-name="Differenzmenge 5" d="M782.11,263.55H763.25v-3.31h18.86Zm-1.48-1.91a.37.37,0,0,0-.36.37.37.37,0,0,0,.73,0h0A.36.36,0,0,0,780.63,261.64Zm-16.09,0a.38.38,0,0,0-.37.37.37.37,0,0,0,.37.36.37.37,0,0,0,0-.73Z" transform="translate(-18.21 -16.48)" fill="#203858"/>
        <path id="Differenzmenge_6-4" data-name="Differenzmenge 6" d="M782.11,267.43H763.25v-3.31h18.86Zm-1.48-1.9a.36.36,0,1,0,.37.36h0A.36.36,0,0,0,780.63,265.53Zm-16.09,0a.36.36,0,1,0,0,.72.36.36,0,1,0,0-.72Z" transform="translate(-18.21 -16.48)" fill="#203858"/>
        <path id="Differenzmenge_7-4" data-name="Differenzmenge 7" d="M782.11,271.31H763.25V268h18.86Zm-1.48-1.9a.36.36,0,0,0-.36.36.37.37,0,1,0,.73,0h0A.36.36,0,0,0,780.63,269.41Zm-16.09,0a.37.37,0,0,0-.37.36.38.38,0,0,0,.37.37.37.37,0,0,0,.36-.37A.36.36,0,0,0,764.54,269.41Z" transform="translate(-18.21 -16.48)" fill="#203858"/>
        <path id="Pfad_55-4" data-name="Pfad 55" d="M763.25,259.8s-1.23-3,0-3.71,2.9.88,2.9.88,1.33-2.57,3.7-2.56,3.26,3.21,3.26,3.21,1.13-1.06,1.91-1.06,1.2,1.06,1.2,1.06.33-.71.83-.65.78.88.78.88.4-.67.93-.57.72,1.26.72,1.26,1.22-4.27,1.77-4.12c0,0-1.31-.37-.65-1s.65,1,.65,1,.6-1.22.9-.75-.9.75-.9.75c.86.2-.36,4.38-.36,4.38s3-4.89,4-4.38c0,0-.79-.54-.18-1.1s.18,1.1.18,1.1.72-1,.94-.53-.94.53-.94.53c.64.73-2.79,5.38-2.79,5.38Z" transform="translate(-18.21 -16.48)" fill="#203858"/>
      </g>
    </g>
  </g>
  <g id="bill">
    <circle cx="678.34" cy="421.9" r="56.22" fill="#fff"/>
    <g id="bill-2" data-name="bill">
      <path d="M735.74,433.56H724V396.12a1.56,1.56,0,0,0-1-1.46,1.59,1.59,0,0,0-1.73.35l-4.49,4.49-4.47-4.5a1.59,1.59,0,0,0-2.25,0h0l-4.49,4.49L701.08,395a1.58,1.58,0,0,0-2.23,0h0l-4.51,4.51L689.84,395a1.57,1.57,0,0,0-2.22,0h0l-4.49,4.49L678.61,395a1.59,1.59,0,0,0-2.25,0h0l-4.49,4.51L667.38,395a1.6,1.6,0,0,0-2.72,1.18v71.35a8.27,8.27,0,0,0,8.25,8.25h56.17a8.27,8.27,0,0,0,8.25-8.25V435.15a1.59,1.59,0,0,0-1.59-1.59Zm-62.83,39a5.09,5.09,0,0,1-5.07-5.08V400l2.9,2.9a1.58,1.58,0,0,0,2.23,0h0l4.49-4.49L682,402.9a1.57,1.57,0,0,0,2.22,0h0l4.49-4.49,4.49,4.49a1.58,1.58,0,0,0,2.23,0h0l4.49-4.49,4.49,4.49a1.58,1.58,0,0,0,2.23,0h0l4.49-4.49,4.49,4.49a1.58,1.58,0,0,0,2.23,0h0l3-2.92v67.58a8.08,8.08,0,0,0,1.76,5.08Zm61.25-5.08a5.08,5.08,0,0,1-10.16,0V436.74h10.16v30.74Z" transform="translate(-18.21 -16.48)" fill="#213959"/>
      <path d="M694.33,430.85a2.48,2.48,0,1,1,2.86-2.44,1.59,1.59,0,0,0,3.17,0,5.72,5.72,0,0,0-4.44-5.43V421.9a1.59,1.59,0,0,0-3.17,0V423a5.73,5.73,0,0,0-4.45,5.43,5.84,5.84,0,0,0,6,5.61,2.47,2.47,0,1,1-2.85,2.45,1.59,1.59,0,0,0-3.18,0h0a5.72,5.72,0,0,0,4.45,5.42v1.31a1.59,1.59,0,0,0,3.17,0v-1.31a5.72,5.72,0,0,0,4.44-5.42A5.84,5.84,0,0,0,694.33,430.85Z" transform="translate(-18.21 -16.48)" fill="#213959"/>
      <path d="M710.28,430.85h-3.1a1.59,1.59,0,0,0,0,3.17h3.1a1.59,1.59,0,0,0,.25-3.17A1,1,0,0,0,710.28,430.85Z" transform="translate(-18.21 -16.48)" fill="#213959"/>
      <path d="M681.48,430.85h-3.09a1.59,1.59,0,1,0-.25,3.17h3.34a1.59,1.59,0,0,0,.25-3.17A1,1,0,0,0,681.48,430.85Z" transform="translate(-18.21 -16.48)" fill="#213959"/>
      <path d="M711.07,447.84H685.94a1.59,1.59,0,0,0,0,3.18h25.13a1.59,1.59,0,0,0,0-3.18Z" transform="translate(-18.21 -16.48)" fill="#213959"/>
      <path d="M678.7,448.3a1.57,1.57,0,0,0-1.12-.46,1.71,1.71,0,0,0-1.13.46,1.56,1.56,0,0,0-.46,1.13,1.71,1.71,0,0,0,.46,1.13,1.6,1.6,0,0,0,1.13.46,1.62,1.62,0,0,0,1.12-.46,1.62,1.62,0,0,0,0-2.26Z" transform="translate(-18.21 -16.48)" fill="#213959"/>
      <path d="M711.07,458.32H685.94a1.59,1.59,0,1,0-.25,3.17h25.38a1.59,1.59,0,1,0,.25-3.17Z" transform="translate(-18.21 -16.48)" fill="#213959"/>
      <path d="M678.7,458.78a1.52,1.52,0,0,0-1.12-.46,1.64,1.64,0,0,0-1.13.46,1.52,1.52,0,0,0-.46,1.12,1.71,1.71,0,0,0,.46,1.13,1.6,1.6,0,0,0,1.13.46,1.59,1.59,0,0,0,1.12-2.71Z" transform="translate(-18.21 -16.48)" fill="#213959"/>
    </g>
    <g id="Gruppe_31-5" data-name="Gruppe 31">
      <path id="Pfad_56-5" data-name="Pfad 56" d="M695.64,405.69c8.55,0,8,2.8,8,7.2s-3.59,4.61-8,4.61-8.16-.22-8.16-4.61S687.09,405.69,695.64,405.69Z" transform="translate(-18.21 -16.48)" fill="#57cf95"/>
      <g id="Gruppe_30-5" data-name="Gruppe 30">
        <path id="Differenzmenge_5-5" data-name="Differenzmenge 5" d="M702.13,409.68H689.3v-2.26h12.83Zm-1-1.3a.25.25,0,1,0,0,.49.24.24,0,0,0,.24-.24h0A.25.25,0,0,0,701.13,408.38Zm-11,0a.25.25,0,1,0,0,.49.25.25,0,1,0,0-.49Z" transform="translate(-18.21 -16.48)" fill="#203858"/>
        <path id="Differenzmenge_6-5" data-name="Differenzmenge 6" d="M702.13,412.32H689.3v-2.25h12.83Zm-1-1.3a.25.25,0,1,0,.24.25h0A.25.25,0,0,0,701.13,411Zm-11,0a.25.25,0,0,0,0,.5.25.25,0,1,0,0-.5Z" transform="translate(-18.21 -16.48)" fill="#203858"/>
        <path id="Differenzmenge_7-5" data-name="Differenzmenge 7" d="M702.13,415H689.3v-2.25h12.83Zm-1-1.3a.25.25,0,1,0,.24.25h0A.25.25,0,0,0,701.13,413.66Zm-11,0a.25.25,0,0,0,0,.5.25.25,0,0,0,0-.5Z" transform="translate(-18.21 -16.48)" fill="#203858"/>
        <path id="Pfad_55-5" data-name="Pfad 55" d="M689.3,407.13s-.84-2.07,0-2.53,2,.6,2,.6a3.22,3.22,0,0,1,2.52-1.74c1.62,0,2.22,2.18,2.22,2.18s.77-.72,1.3-.72.81.72.81.72.23-.48.56-.44.54.6.54.6.27-.46.63-.39.49.86.49.86.83-2.91,1.21-2.81c0,0-.9-.24-.45-.7s.45.7.45.7.4-.83.61-.51-.61.51-.61.51c.58.14-.25,3-.25,3s2-3.32,2.73-3c0,0-.54-.36-.12-.75s.12.75.12.75.49-.71.63-.35-.63.35-.63.35c.43.51-1.9,3.67-1.9,3.67Z" transform="translate(-18.21 -16.48)" fill="#203858"/>
      </g>
    </g>
  </g>
  <g id="vegiBox">
    <circle cx="521.95" cy="487.94" r="56.22" fill="#fff"/>
    <g id="vegiBox-2" data-name="vegiBox">
      <path d="M510.15,533.28h0a1.63,1.63,0,0,0-2.29.28h0a1.61,1.61,0,0,0,.28,2.26l0,0h0a1.64,1.64,0,1,0,2-2.59h0Z" transform="translate(-18.21 -16.48)" fill="#213959"/>
      <path d="M510.15,519.9h0a1.63,1.63,0,0,0-2.29.28h0a1.61,1.61,0,0,0,.28,2.26l0,0h0a1.64,1.64,0,1,0,2-2.59h0Z" transform="translate(-18.21 -16.48)" fill="#213959"/>
      <path d="M510.15,506.52h0a1.63,1.63,0,1,0-2,2.58h0a1.65,1.65,0,0,0,1,.34,1.63,1.63,0,0,0,1.29-.63A1.65,1.65,0,0,0,510.15,506.52Z" transform="translate(-18.21 -16.48)" fill="#213959"/>
      <path d="M572.79,533.28h0a1.64,1.64,0,1,0-2.18,2.45l.18.14h0a1.63,1.63,0,0,0,1,.32,1.68,1.68,0,0,0,1.31-.65A1.62,1.62,0,0,0,572.79,533.28Z" transform="translate(-18.21 -16.48)" fill="#213959"/>
      <path d="M572.79,519.9h0a1.64,1.64,0,1,0-2.18,2.45l.18.14h0a1.57,1.57,0,0,0,1,.32,1.68,1.68,0,0,0,1.31-.65A1.62,1.62,0,0,0,572.79,519.9Z" transform="translate(-18.21 -16.48)" fill="#213959"/>
      <path d="M572.79,506.52h0a1.64,1.64,0,1,0-2.18,2.45l.18.14h0a1.57,1.57,0,0,0,1,.32,1.65,1.65,0,0,0,1.31-.65A1.63,1.63,0,0,0,572.79,506.52Z" transform="translate(-18.21 -16.48)" fill="#213959"/>
      <path d="M559,512.86h0a1.64,1.64,0,0,0,0,3.27h0a1.64,1.64,0,0,0,0-3.27Z" transform="translate(-18.21 -16.48)" fill="#213959"/>
      <path d="M522,526.24h0a1.64,1.64,0,0,0,0,3.27h0a1.64,1.64,0,0,0,.26-3.27Z" transform="translate(-18.21 -16.48)" fill="#213959"/>
      <path d="M511.89,489.56a1.55,1.55,0,0,0-1.15-.47,1.68,1.68,0,0,0-1.16.47,1.63,1.63,0,0,0-.48,1.16,1.73,1.73,0,0,0,.48,1.16,1.59,1.59,0,0,0,1.16.47,1.63,1.63,0,0,0,1.15-2.79Z" transform="translate(-18.21 -16.48)" fill="#213959"/>
      <path d="M580.62,499.48h-6.77a9.71,9.71,0,0,0-.48-17.09,9.52,9.52,0,0,0,.85-4,9.73,9.73,0,0,0-9.71-9.71,9.61,9.61,0,0,0-4.74,1.24,11.32,11.32,0,0,0-6.51-2.05h-.48a12.62,12.62,0,0,0-23.33-1.4c-.39,0-.78-.05-1.17-.05a12.64,12.64,0,0,0-11.64,7.72c-.34-.1-.7-.2-1.06-.28a7.17,7.17,0,0,1,2-4.76,4.51,4.51,0,0,1,2-1.14h0a1.62,1.62,0,0,0,1.38-1.62,1.74,1.74,0,0,0-.47-1.16,1.59,1.59,0,0,0-1.16-.47h-.28a7.09,7.09,0,0,0-3.5,1.8V461a1.64,1.64,0,0,0-1.63-1.63H510a1.63,1.63,0,0,0-1.63,1.63h0v6.1a20.09,20.09,0,0,0-4.06-3.75,1.63,1.63,0,1,0-2,2.58,1.28,1.28,0,0,0,.21.14c.05,0,5,3.35,5.72,8.1a13,13,0,0,0-9.51,12.23c0,2.39,1.36,8.08,2.68,13.1h-1.05a1.65,1.65,0,0,0-1.63,1.64v40.13a1.65,1.65,0,0,0,1.63,1.64h80.28a1.65,1.65,0,0,0,1.63-1.64V501.12a1.65,1.65,0,0,0-1.66-1.64Zm-52.33-29.76a11.85,11.85,0,0,1,1.88.18,1.61,1.61,0,0,0,1.86-1.06,9.36,9.36,0,0,1,17.52-.34A11.32,11.32,0,0,0,542,479.17a1.63,1.63,0,1,0,3.26,0,8,8,0,0,1,13.38-6,1.62,1.62,0,0,0,2.06.08,6.34,6.34,0,0,1,3.87-1.29,6.46,6.46,0,0,1,5.17,10.3,1.63,1.63,0,0,0,.33,2.27,1.54,1.54,0,0,0,.58.27,6.44,6.44,0,0,1-1.58,12.69,6.22,6.22,0,0,1-1.22-.11,1.64,1.64,0,0,0-1.85,1.06,7.58,7.58,0,0,1-.47,1h-2.06l6.68-9.57a1.69,1.69,0,0,0,.26-1.24,1.59,1.59,0,0,0-.7-1.06l-4.77-3.17a1.69,1.69,0,0,0-1.26-.23,1.65,1.65,0,0,0-1,.75l-2.4,3.94,1.94-9.86a1.62,1.62,0,0,0-1.27-1.91h0l-4.14-.85a1.66,1.66,0,0,0-1.94,1.3h0l-.54,2.85h-3.8a1.66,1.66,0,0,0-1.64,1.64v9.38A12.08,12.08,0,0,0,537,481.7a11.91,11.91,0,0,0-7.26,2.43,12.26,12.26,0,0,0-3.92,5.09,18.14,18.14,0,0,0,.31-2.84,12.09,12.09,0,0,0-1.66-6.12,6,6,0,0,1,5.61-3.91,5.92,5.92,0,0,1,1.19.11,1.61,1.61,0,0,0,1.86-1.06,6,6,0,0,1,1.76-2.56,1.63,1.63,0,1,0-2.12-2.48h0a9.45,9.45,0,0,0-2.18,2.73h-.53a9.21,9.21,0,0,0-7.83,4.36,13.57,13.57,0,0,0-2.59-2A9.4,9.4,0,0,1,528.29,469.72Zm30.07,28.57,6.15-10.18,1.94,1.31-7,10.06h-1.31Zm-2-6.51v-4.63l1.37-7.33.93.2Zm-4.22,4.88v-13h1v15.77h-.53v-.31a7.2,7.2,0,0,0-.51-2.51ZM529.71,489h-.15a8.8,8.8,0,0,1,16.09,3.14,6.8,6.8,0,0,0-5.5,2.88A12.05,12.05,0,0,0,529.71,489Zm8.67,10.44H521.05a8.82,8.82,0,0,1,17.33,0Zm7.32-4a3.67,3.67,0,0,1,3.59,3.73,1.61,1.61,0,0,1,0,.31h-7.14v-.31A3.68,3.68,0,0,1,545.7,495.44Zm-34.07-32.83h.66v10.95h-.66Zm-9.56,22.48a1.61,1.61,0,0,0,.31,0h8.08a1.64,1.64,0,0,0,0-3.27h-7.25a10.65,10.65,0,0,1,9.21-5.05c5.76,0,10.44,4.29,10.44,9.57a17.11,17.11,0,0,1-.33,2.66h-6.47a1.64,1.64,0,0,0-.26,3.27h5.67a12.2,12.2,0,0,0-3.72,7.17h-13C503,492.83,502,488.1,502,486.38A9.3,9.3,0,0,1,502.07,485.09ZM579,512.86H564.63a1.64,1.64,0,0,0,0,3.27H579v10.11H527.53a1.64,1.64,0,0,0-.26,3.27H579v10.11H502V529.51h14.36a1.64,1.64,0,0,0,0-3.27H502V516.13h51.46a1.64,1.64,0,0,0,.26-3.27H502V502.75h77Z" transform="translate(-18.21 -16.48)" fill="#213959"/>
      <path d="M538.77,468.16h0a1.63,1.63,0,0,0,0,3.26h0a1.63,1.63,0,0,0,0-3.26Z" transform="translate(-18.21 -16.48)" fill="#213959"/>
    </g>
    <g id="Gruppe_31-6" data-name="Gruppe 31">
      <path id="Pfad_56-6" data-name="Pfad 56" d="M540.93,510c15.61,0,14.59,5.11,14.59,13.14s-6.56,8.42-14.59,8.42-14.9-.39-14.9-8.42S525.31,510,540.93,510Z" transform="translate(-18.21 -16.48)" fill="#57cf95"/>
      <g id="Gruppe_30-6" data-name="Gruppe 30">
        <path id="Differenzmenge_5-6" data-name="Differenzmenge 5" d="M552.78,517.26H529.35v-4.12h23.43ZM551,514.89a.45.45,0,1,0,0,.9.45.45,0,0,0,.45-.45h0A.45.45,0,0,0,551,514.89Zm-20,0a.45.45,0,1,0,.45.45A.45.45,0,0,0,530.94,514.89Z" transform="translate(-18.21 -16.48)" fill="#203858"/>
        <path id="Differenzmenge_6-6" data-name="Differenzmenge 6" d="M552.78,522.08H529.35V518h23.43ZM551,519.71a.47.47,0,0,0-.46.46.46.46,0,1,0,.91,0h0A.45.45,0,0,0,551,519.71Zm-20,0a.46.46,0,0,0-.45.46.45.45,0,0,0,.45.45.46.46,0,0,0,.45-.46A.45.45,0,0,0,530.94,519.71Z" transform="translate(-18.21 -16.48)" fill="#203858"/>
        <path id="Differenzmenge_7-6" data-name="Differenzmenge 7" d="M552.78,526.91H529.35v-4.12h23.43ZM551,524.54a.45.45,0,1,0,0,.9.45.45,0,0,0,.45-.45h0A.45.45,0,0,0,551,524.54Zm-20,0a.45.45,0,1,0,.45.45A.45.45,0,0,0,530.94,524.54Z" transform="translate(-18.21 -16.48)" fill="#203858"/>
        <path id="Pfad_55-6" data-name="Pfad 55" d="M529.35,512.6s-1.54-3.78,0-4.61,3.6,1.09,3.6,1.09,1.64-3.19,4.6-3.17,4.05,4,4.05,4,1.4-1.32,2.37-1.32,1.5,1.32,1.5,1.32.4-.88,1-.81,1,1.09,1,1.09.5-.83,1.16-.71.9,1.57.9,1.57,1.5-5.31,2.2-5.12c0,0-1.63-.45-.82-1.29s.82,1.29.82,1.29.74-1.52,1.11-.94-1.11.94-1.11.94c1.06.25-.45,5.44-.45,5.44s3.68-6.07,5-5.44c0,0-1-.66-.22-1.37s.22,1.37.22,1.37.89-1.31,1.16-.65-1.16.65-1.16.65c.79.92-3.47,6.69-3.47,6.69Z" transform="translate(-18.21 -16.48)" fill="#203858"/>
      </g>
    </g>
  </g>
  <g id="order">
    <circle cx="701" cy="109.41" r="56.22" fill="#fff"/>
    <g id="getOrder">
      <path d="M758.41,113.33h-4.83a4.74,4.74,0,0,0-4.53-3.49h-5.16V97.24a1.32,1.32,0,0,0-.64-1.18l-36.35-21a1.33,1.33,0,0,0-1.36,0l-36.35,21a1.36,1.36,0,0,0-.68,1.18v42a1.36,1.36,0,0,0,.68,1.18l36.37,21a1.41,1.41,0,0,0,1.38,0l19.13-11v8a5.74,5.74,0,0,0,5.72,5.76h26.62a5.77,5.77,0,0,0,5.83-5.71h0v-39.2a5.86,5.86,0,0,0-5.79-5.93Zm-9.32-.78a2,2,0,0,1,2,2h0v.13a2,2,0,0,1-2,2H741.2a2,2,0,0,1-2-2h0v-.13a2,2,0,0,1,2-2ZM706.24,77.81l15.12,8.72L687.7,106l-15.12-8.72Zm-1.3,80.07-33.72-19.44V99.59L704.94,119Zm1.3-41.22-15.83-9.13L724.05,88.1l15.83,9.14Zm19.83,2.52v28.06l-18.41,10.64V119l33.52-19.43v10.27h0a4.76,4.76,0,0,0-4.54,3.49h-4.82A5.81,5.81,0,0,0,726.07,119.18Zm35.46,39.16a3.06,3.06,0,0,1-3.08,3H731.86a3,3,0,0,1-3.08-2.92V119.18a3.11,3.11,0,0,1,3.08-3.14h4.88a4.64,4.64,0,0,0,4.48,3.29h7.83a4.63,4.63,0,0,0,4.48-3.29h4.88a3.16,3.16,0,0,1,3.12,3.14v39.16Z" transform="translate(-18.21 -16.48)" fill="#213959"/>
      <path d="M733.41,132.9h1.41a1.36,1.36,0,0,0,.23-2.71h-.23V126.5h3.74a1.27,1.27,0,0,0,1.29.91,1.34,1.34,0,0,0,1.36-1.34h0v-.91a1.37,1.37,0,0,0-1.38-1.36h-6.39a1.34,1.34,0,0,0-1.34,1.32v0h0v6.39a1.36,1.36,0,0,0,1.34,1.36Z" transform="translate(-18.21 -16.48)" fill="#213959"/>
      <path d="M733.43,145.3h6.39a1.34,1.34,0,0,0,1.36-1.34v-6.41a1.34,1.34,0,0,0-1.34-1.36h-6.41a1.34,1.34,0,0,0-1.36,1.34v6.41a1.34,1.34,0,0,0,1.34,1.36Zm1.36-6.39h3.68v3.68h-3.68Z" transform="translate(-18.21 -16.48)" fill="#213959"/>
      <path d="M734.84,155h-.05v-3.68h3.66a1.37,1.37,0,0,0,2.73,0V150a1.42,1.42,0,0,0-1.38-1.41h-6.39a1.37,1.37,0,0,0-1.34,1.4h0v6.4a1.31,1.31,0,0,0,1.3,1.31h1.45a1.34,1.34,0,0,0,1.36-1.34h0a1.36,1.36,0,0,0-1.34-1.38h0Z" transform="translate(-18.21 -16.48)" fill="#213959"/>
      <path d="M742.92,125.46l-4,4-1.2-1.2a1.36,1.36,0,0,0-2,1.81,1.14,1.14,0,0,0,.11.11l2.17,2.17a1.38,1.38,0,0,0,1.92,0h0l4.94-4.94a1.36,1.36,0,0,0,0-1.92,1.38,1.38,0,0,0-1.94,0Z" transform="translate(-18.21 -16.48)" fill="#213959"/>
      <path d="M742.92,150.49l-4,4-1.2-1.2a1.35,1.35,0,0,0-1.92,1.91l2.17,2.17a1.36,1.36,0,0,0,1.92,0h0l4.94-4.94a1.36,1.36,0,0,0,0-1.92,1.4,1.4,0,0,0-1.94,0Z" transform="translate(-18.21 -16.48)" fill="#213959"/>
      <path d="M756.86,127.09h-8.53a1.36,1.36,0,0,0,0,2.71h8.53a1.36,1.36,0,0,0,0-2.71Z" transform="translate(-18.21 -16.48)" fill="#213959"/>
      <path d="M756.86,139.49h-8.53a1.36,1.36,0,0,0,0,2.71h8.53a1.36,1.36,0,0,0,0-2.71Z" transform="translate(-18.21 -16.48)" fill="#213959"/>
      <path d="M756.86,151.89h-8.53a1.36,1.36,0,0,0,0,2.71h8.53a1.34,1.34,0,0,0,1.35-1.33v0A1.36,1.36,0,0,0,756.86,151.89Z" transform="translate(-18.21 -16.48)" fill="#213959"/>
    </g>
    <g id="Gruppe_31-7" data-name="Gruppe 31">
      <path id="Pfad_56-7" data-name="Pfad 56" d="M688.35,123c12.24,4.83,10.82,8.07,9.84,13.66S692,140.49,685.72,138s-11.64-4.88-10.66-10.47S676.11,118.16,688.35,123Z" transform="translate(-18.21 -16.48)" fill="#57cf95"/>
      <g id="Gruppe_30-7" data-name="Gruppe 30">
        <path id="Differenzmenge_5-7" data-name="Differenzmenge 5" d="M696.75,131.72l-18.37-7.24.5-2.87,18.38,7.25Zm-1.14-2.21c-.2-.08-.38,0-.41.17a.45.45,0,0,0,.3.46.29.29,0,0,0,.41-.18h0A.45.45,0,0,0,695.61,129.51Zm-15.69-6.19c-.2-.08-.38,0-.41.18a.44.44,0,0,0,.3.45c.2.08.38,0,.41-.17A.45.45,0,0,0,679.92,123.32Z" transform="translate(-18.21 -16.48)" fill="#203858"/>
        <path id="Differenzmenge_6-7" data-name="Differenzmenge 6" d="M696.17,135.08l-18.38-7.24.5-2.87,18.38,7.25ZM695,132.87c-.2-.08-.38,0-.41.17a.45.45,0,0,0,.3.46c.19.07.38,0,.41-.18h0A.45.45,0,0,0,695,132.87Zm-15.69-6.19c-.19-.07-.38,0-.41.18a.45.45,0,0,0,.3.45c.2.08.38,0,.41-.17A.45.45,0,0,0,679.33,126.68Z" transform="translate(-18.21 -16.48)" fill="#203858"/>
        <path id="Differenzmenge_7-7" data-name="Differenzmenge 7" d="M695.58,138.44,677.2,131.2l.51-2.87,18.37,7.25Zm-1.15-2.21c-.2-.08-.38,0-.41.17a.45.45,0,0,0,.3.46c.19.07.38,0,.41-.18h0A.45.45,0,0,0,694.43,136.23ZM678.74,130c-.19-.07-.38,0-.41.18a.45.45,0,0,0,.3.45c.2.08.38,0,.41-.17A.45.45,0,0,0,678.74,130Z" transform="translate(-18.21 -16.48)" fill="#203858"/>
        <path id="Pfad_55-7" data-name="Pfad 55" d="M679,121.24s-.74-3.11.56-3.21,2.69,1.87,2.69,1.87a3.82,3.82,0,0,1,4-.79c2.31.92,2.69,4,2.69,4a3.52,3.52,0,0,1,2-.19c.75.3,1,1.38,1,1.38s.43-.49.9-.25.63,1.06.63,1.06a.91.91,0,0,1,1-.13c.51.29.52,1.37.52,1.37s1.83-3.23,2.35-2.89c0,0-1.23-.82-.48-1.15s.48,1.15.48,1.15.76-.83,1-.3-1,.3-1,.3c.8.51-1,3.65-1,3.65s3.63-3.09,4.57-2.25c0,0-.69-.76,0-1s0,1,0,1,.86-.63,1-.09-1,.09-1,.09c.51.88-3.54,3.59-3.54,3.59Z" transform="translate(-18.21 -16.48)" fill="#203858"/>
      </g>
    </g>
  </g>
</svg>
