<svg id="tractor" xmlns="http://www.w3.org/2000/svg" viewBox="0 0 64 64">
  <title>tractorNew</title>
  <circle cx="32" cy="32" r="32" fill="#c75c5c"/>
  <g opacity="0.2">
    <path d="M47.5,38A6.71,6.71,0,0,1,52,39.8V34a4,4,0,0,0-4-4H37.6c-1.5-5.3-3.5-12.4-3.6-13a2,2,0,0,0-2-2H20a2,2,0,0,0-2,2V27.7a13.44,13.44,0,0,1,4-.7V19h8.4l3,11H29.9A12,12,0,0,1,34,39a12.22,12.22,0,0,1-1.6,6H41v-.5A6.49,6.49,0,0,1,47.5,38Z" transform="translate(0 0)" fill="#231f20"/>
    <circle cx="22" cy="39" r="8" fill="#231f20"/>
    <circle cx="47.5" cy="44.5" r="2.5" fill="#231f20"/>
  </g>
  <path d="M30.4,17c.7,2.5,2.2,8.1,3.6,13.1l-12,1V17h8.4M32,13H20a2,2,0,0,0-2,2V35.4l21.2-1.8s-5-17.7-5.2-18.7A2,2,0,0,0,32,13Z" transform="translate(0 0)" fill="#76c2af"/>
  <path d="M52,39a4,4,0,0,1-4,4H30a4,4,0,0,1-4-4V32a4,4,0,0,1,4-4H48a4,4,0,0,1,4,4Z" transform="translate(0 0)" fill="#76c2af"/>
  <circle cx="22" cy="37" r="8" fill="#f5cf87"/>
  <circle cx="47.5" cy="42.5" r="2.5" fill="#f5cf87"/>
  <path d="M29.9,30A11.75,11.75,0,0,0,22,27a13.44,13.44,0,0,0-4,.7A11.91,11.91,0,0,0,10,39a12,12,0,0,0,22.4,6A12.22,12.22,0,0,0,34,39,12,12,0,0,0,29.9,30ZM22,47a8,8,0,1,1,8-8A8,8,0,0,1,22,47Z" transform="translate(0 0)" fill="#231f20" opacity="0.2" style="isolation: isolate"/>
  <path d="M52,39.8A6.71,6.71,0,0,0,47.5,38,6.49,6.49,0,0,0,41,44.5V45a6.51,6.51,0,0,0,13-.5A6.74,6.74,0,0,0,52,39.8Zm-2,4.7A2.5,2.5,0,1,1,47.5,42,2.48,2.48,0,0,1,50,44.5Z" transform="translate(0 0)" fill="#231f20" opacity="0.2" style="isolation: isolate"/>
  <path d="M22,25A12,12,0,1,0,34,37,12,12,0,0,0,22,25Zm0,20a8,8,0,1,1,8-8A8,8,0,0,1,22,45Z" transform="translate(0 0)" fill="#4f5d73"/>
  <path d="M47.5,36A6.5,6.5,0,1,0,54,42.5,6.49,6.49,0,0,0,47.5,36Zm0,9A2.5,2.5,0,1,1,50,42.5,2.48,2.48,0,0,1,47.5,45Z" transform="translate(0 0)" fill="#4f5d73"/>
  <path d="M34,15l-3.6,2s.5,2.1.5,2H34a2,2,0,0,0,0-4Z" transform="translate(0 0)" fill="#231f20" opacity="0.2" style="isolation: isolate"/>
  <path d="M36,15a2,2,0,0,1-2,2H20a2,2,0,0,1-2-2h0a2,2,0,0,1,2-2H34a2,2,0,0,1,2,2Z" transform="translate(0 0)" fill="#76c2af"/>
</svg>
