<svg id="ui" xmlns="http://www.w3.org/2000/svg" viewBox="0 0 479.95 480">
  <title>uiNew</title>
  <path d="M369,368H353v32H209v16H353v24a23.94,23.94,0,0,1-24,24H153a24.06,24.06,0,0,1-20.8-12l-13.9,8A40.1,40.1,0,0,0,153,480H329a40,40,0,0,0,40-40Z" transform="translate(-1 0)" fill="#203959"/>
  <path d="M233,432h16v16H233Z" transform="translate(-1 0)" fill="#203959"/>
  <path d="M281,216V200H256.6A104,104,0,0,0,161,104.4V80H145v24.4a96.8,96.8,0,0,0-16,2.5V64H257V48H129V40a23.94,23.94,0,0,1,24-24H329a24,24,0,0,1,15.9,6l10.6-12A40.41,40.41,0,0,0,329,0H153a40,40,0,0,0-40,40v72a104.21,104.21,0,0,0-63.6,88H25v16H49.4A103.54,103.54,0,0,0,145,311.6V336h16V311.6A103.63,103.63,0,0,0,256.6,216ZM145,280v15.6a87.31,87.31,0,0,1-32-9.2V272a40,40,0,0,1,80,0v14.4a89.42,89.42,0,0,1-32,9.3V280Zm-16-88a24,24,0,1,1,24,24A23.94,23.94,0,0,1,129,192Zm82.7,81.6c-.9.8-1.8,1.4-2.7,2.2V272a56.19,56.19,0,0,0-30.2-49.7,40,40,0,1,0-51.6,0A56.19,56.19,0,0,0,97,272v3.8c-.9-.7-1.8-1.4-2.7-2.2A88.09,88.09,0,0,1,65.4,216H81V200H65.4A88.14,88.14,0,0,1,145,120.4V136h16V120.4A88.14,88.14,0,0,1,240.6,200H225v16h15.6a88.09,88.09,0,0,1-28.9,57.6Z" transform="translate(-1 0)" fill="#203959"/>
  <path d="M457,144a8,8,0,0,0,8-8V40a8,8,0,0,0-8-8H281a8,8,0,0,0-8,8v96a8,8,0,0,0,8,8ZM289,48H449v80H289Z" transform="translate(-1 0)" fill="#203959"/>
  <path d="M305,64h32V80H305Z" transform="translate(-1 0)" fill="#203959"/>
  <path d="M353,64h80V80H353Z" transform="translate(-1 0)" fill="#203959"/>
  <path d="M305,96H433v16H305Z" transform="translate(-1 0)" fill="#203959"/>
  <path d="M455.6,160a25.3,25.3,0,0,0-16.8,6.4L369,227.9V160H353v80h2.3l-45.5,40.2A56,56,0,0,0,257,336v14.1a20.89,20.89,0,0,1-11.6,18.7,8,8,0,0,0-4.2,9A8.11,8.11,0,0,0,249,384h56a55.92,55.92,0,0,0,55.8-52.8l113.8-129a25.39,25.39,0,0,0-19-42.2ZM305,368H268.4a37.25,37.25,0,0,0,4.6-17.9V336a40.07,40.07,0,0,1,36.8-39.9l35.1,35.1A40.07,40.07,0,0,1,305,368ZM462.6,191.6l-110,124.7-28-28,124.7-110a9.42,9.42,0,0,1,13.3,13.3Z" transform="translate(-1 0)" fill="#203959"/>
  <path d="M9,440H185a8,8,0,0,0,8-8V368a8,8,0,0,0-8-8H129V320H113v40H9a8,8,0,0,0-8,8v64A8,8,0,0,0,9,440Zm8-64H177v48H17Z" transform="translate(-1 0)" fill="#203959"/>
  <path d="M33,392H73v16H33Z" transform="translate(-1 0)" fill="#203959"/>
  <path d="M89,392h72v16H89Z" transform="translate(-1 0)" fill="#203959"/>
  <path d="M9,112H89a8,8,0,0,0,8-8V40a8,8,0,0,0-8-8H9a8,8,0,0,0-8,8v64A8,8,0,0,0,9,112Zm8-64H81V96H17Z" transform="translate(-1 0)" fill="#203959"/>
  <path d="M33,64H65V80H33Z" transform="translate(-1 0)" fill="#203959"/>
</svg>
