<svg id="Capa_1" data-name="Capa 1" xmlns="http://www.w3.org/2000/svg" viewBox="0 0 31.23 31.5">
  <title>world</title>
  <g>
    <path d="M28.8,7l-.5.1-2.5.2-.7,1.1-.5-.2-2-1.8-.3-.9-.4-1L20.6,3.4l-1.5-.3v.7l1.4,1.4.7.8-.8.4-.6-.2-1-.4V5l-1.3-.5-.4,1.8-1.3.3.1,1,1.7.3L18,6.4l1.4.2L20,7h1l.7,1.4,1.9,1.9-.1.7L22,10.9l-2.6,1.3-1.9,2.2-.2,1h-.7l-1.3-.6-1.2.6.3,1.3.5-.6h.9l-.1,1.2.8.2.8.9,1.3-.4,1.4.2,1.7.4.8.1,1.4,1.6,2.7,1.6-1.8,3.4-1.9.9-.7,1.9-2.7,1.8-.3,1a15.76,15.76,0,0,0,12-15.3A14.38,14.38,0,0,0,28.8,7Z" transform="translate(0 0.1)" fill="#203959"/>
    <path d="M17.5,23.9l-1.1-2.1,1-2.2-1-.3-1.2-1.2-2.6-.6-.9-1.8v1.1h-.4L9,13.7V11.2L7.4,8.5,4.8,9H3l-.8-.6,1.1-.9-1.1.3A15.13,15.13,0,0,0,0,15.7,15.66,15.66,0,0,0,15.7,31.4c.7,0,1.3-.1,2-.1l-.2-1.9s.7-2.8.7-2.9S17.5,23.9,17.5,23.9Z" transform="translate(0 0.1)" fill="#203959"/>
    <path d="M5.8,5.1l2.8-.4L9.9,4l1.4.4,2.3-.1L14.5,3l1.2.2,2.8-.3.8-.9,1.1-.7,1.5.2.6-.1A15,15,0,0,0,15.8-.1,16,16,0,0,0,3.6,5.7h0ZM16.4,1.6,18,.7l1,.6L17.5,2.4l-1.4.1-.6-.4Zm-4.8.1.7.3.9-.3.5.9-2.1.6-1-.6C10.6,2.5,11.6,1.9,11.6,1.7Z" transform="translate(0 0.1)" fill="#203959"/>
  </g>
</svg>
