<svg id="Capa_1" data-name="Capa 1" xmlns="http://www.w3.org/2000/svg" viewBox="0 0 329.9 330.2">
  <title>yin-and-yang</title>
  <g>
    <path d="M330,165.1C330,74.7,256.9,1.1,166.7.2a8.75,8.75,0,0,0-1.6-.2c-1.6,0-3.2.2-4.9.2C71.5,2.8.1,75.7.1,165.1c0,90.4,73.1,164,163.3,164.9a8.75,8.75,0,0,0,1.6.2c1.6,0,3.2-.2,4.9-.2C258.6,327.3,330,254.4,330,165.1Zm-313.7,0A148.89,148.89,0,0,1,98.4,32.2,87.46,87.46,0,0,0,79,87.2a86.12,86.12,0,0,0,86,86A69.86,69.86,0,0,1,234.8,243c0,37.5-28.7,68.2-65,70.7-1.6.1-3.2.1-4.8.1C83,313.8,16.3,247.1,16.3,165.1ZM231.7,298a87.46,87.46,0,0,0,19.4-55,86.12,86.12,0,0,0-86-86A69.86,69.86,0,0,1,95.3,87.2c0-37.5,28.7-68.2,65-70.7,1.6-.1,3.2-.1,4.8-.1,82,0,148.7,66.7,148.7,148.7C313.8,223.1,280.3,273.5,231.7,298Z" transform="translate(-0.1 0)" fill="#203959"/>
    <path d="M165.1,39.9a22.3,22.3,0,1,0,22.3,22.3A22.32,22.32,0,0,0,165.1,39.9Zm0,28.4a6.12,6.12,0,0,1-6.1-6.1,6.06,6.06,0,0,1,6.1-6.1,6.1,6.1,0,0,1,0,12.2Z" transform="translate(-0.1 0)" fill="#203959"/>
    <path d="M187.3,265.4A22.3,22.3,0,1,0,165,287.7,22.32,22.32,0,0,0,187.3,265.4Zm-28.3,0a6.1,6.1,0,0,1,12.2,0,6.1,6.1,0,0,1-12.2,0Z" transform="translate(-0.1 0)" fill="#203959"/>
  </g>
</svg>
