<?xml version="1.0" encoding="utf-8"?>
<!-- Generator: Adobe Illustrator 23.0.1, SVG Export Plug-In . SVG Version: 6.00 Build 0)  -->
<svg version="1.1" id="help" xmlns="http://www.w3.org/2000/svg" xmlns:xlink="http://www.w3.org/1999/xlink" x="0px" y="0px"
	 viewBox="0 0 414.2 414.2" style="enable-background:new 0 0 414.2 414.2;" xml:space="preserve">
<style type="text/css">
	.st0{fill:#213959;}
</style>
<g>
	<g>
		<path class="st0" d="M301.8,23.6C272.7,8.2,240.3,0.1,207.4,0C95.3,0,4.4,90.8,4.4,202.9C4.4,255.8,25,306.6,62,344.5l-8.5,60.3
			c-0.7,4.4,2.2,8.5,6.5,9.2c2,0.3,4.1-0.1,5.8-1.2l46.1-30.6c99.1,52.5,221.9,14.7,274.3-84.4S400.9,76.1,301.8,23.6z M340.4,334.3
			c-35.1,35.6-83,55.7-133,55.7c-32.2,0-63.9-8.2-91.9-24c-2.5-1.4-5.5-1.4-8,0l-36.1,23.4l7-46.5c0.3-2.5-0.5-5-2.3-6.8
			C2.5,263.7,1.7,145.3,74.2,71.8S265-2.6,338.6,69.9S412.9,260.8,340.4,334.3z"/>
	</g>
</g>
<g>
	<g>
		<path class="st0" d="M253.2,274.8h-6.6V156.6c0-4.4-3.6-8-8-8h-69c-4.4,0-8,3.6-8,8v28.8c0,4.4,3.6,8,8,8h6.7v81.4h-6.7
			c-4.4,0-8,3.6-8,8v28.8c0,4.4,3.6,8,8,8h83.7c4.4,0,8-3.6,8-8v-28.8C261.2,278.4,257.6,274.8,253.2,274.8z M177.5,303.6v-12.8h6.7
			c4.4,0,8-3.6,8-8v-97.4c0-4.4-3.6-8-8-8h-6.7v-12.8h53v118.2c0,4.4,3.6,8,8,8h6.6l0.1,12.8H177.5L177.5,303.6z"/>
	</g>
</g>
<g>
	<g>
		<path class="st0" d="M207.4,70.4c-18.5,0-33.5,15-33.5,33.5s15,33.5,33.5,33.5s33.5-15,33.5-33.5S225.9,70.4,207.4,70.4z
			 M207.4,121.5c-9.7,0-17.5-7.8-17.5-17.5s7.8-17.6,17.4-17.6h0.1v0.1c9.7,0,17.5,7.8,17.5,17.5S217.1,121.5,207.4,121.5z"/>
	</g>
</g>
</svg>
