<?xml version="1.0" encoding="utf-8"?>
<!-- Generator: Adobe Illustrator 23.0.1, SVG Export Plug-In . SVG Version: 6.00 Build 0)  -->
<svg version="1.1" id="yinyang" xmlns="http://www.w3.org/2000/svg" xmlns:xlink="http://www.w3.org/1999/xlink" x="0px" y="0px"
	 viewBox="0 0 330.1 330.1" style="enable-background:new 0 0 330.1 330.1;" xml:space="preserve">
<style type="text/css">
	.st0{fill:#213959;}
</style>
<g>
	<g>
		<path class="st0" d="M330,165.1c0-90.4-73.1-164-163.3-164.9c-0.5-0.1-1.1-0.2-1.6-0.2c-1.6,0-3.2,0.2-4.9,0.2
			C71.5,2.8,0.1,75.7,0.1,165.1c0,90.4,73.1,164,163.3,164.9c0.5,0.1,1.1,0.2,1.6,0.2c1.6,0,3.2-0.2,4.9-0.2
			C258.6,327.3,330,254.4,330,165.1z M16.3,165.1c0-58.1,33.5-108.4,82.1-132.9c-12.1,15-19.4,34.2-19.4,55c0,47.4,38.6,86,86,86
			c38.5,0,69.8,31.3,69.8,69.8c0,37.5-28.7,68.2-65,70.7c-1.6,0.1-3.2,0.1-4.8,0.1C83,313.8,16.3,247.1,16.3,165.1z M231.7,298
			c12.1-15,19.4-34.2,19.4-55c0-47.4-38.6-86-86-86c-38.5,0-69.8-31.3-69.8-69.8c0-37.5,28.7-68.2,65-70.7c1.6-0.1,3.2-0.1,4.8-0.1
			c82,0,148.7,66.7,148.7,148.7C313.8,223.1,280.3,273.5,231.7,298z"/>
		<path class="st0" d="M165.1,39.9c-12.3,0-22.3,10-22.3,22.3c0,12.3,10,22.3,22.3,22.3s22.3-10,22.3-22.3
			C187.3,49.9,177.3,39.9,165.1,39.9z M165.1,68.3c-3.3,0-6.1-2.7-6.1-6.1s2.7-6.1,6.1-6.1c3.3,0,6.1,2.7,6.1,6.1
			S168.4,68.3,165.1,68.3z"/>
		<path class="st0" d="M187.3,265.4c0-12.3-10-22.3-22.3-22.3c-12.3,0-22.3,10-22.3,22.3c0,12.3,10,22.3,22.3,22.3
			S187.3,277.7,187.3,265.4z M159,265.4c0-3.3,2.7-6.1,6.1-6.1c3.3,0,6.1,2.7,6.1,6.1s-2.7,6.1-6.1,6.1S159,268.8,159,265.4z"/>
	</g>
</g>
</svg>
