<?xml version="1.0" encoding="utf-8"?>
<!-- Generator: Adobe Illustrator 23.0.1, SVG Export Plug-In . SVG Version: 6.00 Build 0)  -->
<svg version="1.1" id="Ebene_1" xmlns="http://www.w3.org/2000/svg" xmlns:xlink="http://www.w3.org/1999/xlink" x="0px" y="0px"
	 viewBox="0 0 110 110" style="enable-background:new 0 0 110 110;" xml:space="preserve">
<style type="text/css">
	.st0{fill:#6A6A6A;}
	.st1{fill:#F1F2F2;}
	.st2{fill:#E2E4E5;}
	.st3{fill:#FFFFFF;}
</style>
<g id="Artboard">
</g>
<g id="Multicolor">
	<g>
		<circle class="st0" cx="55" cy="55" r="55"/>
	</g>
	<g>
		<g>
			<g>
				<path class="st1" d="M92.4,44.2C92.4,36.3,86,30,78.2,30c-3.3,0-6.3,1.1-8.7,3c-3.2-4.5-8.4-7.4-14.3-7.4S44.1,28.5,40.9,33
					c-2.4-1.9-5.4-3-8.7-3c-7.9,0-14.2,6.4-14.2,14.2c0,5,2.6,9.5,6.6,12v22h61.3v-22C89.8,53.6,92.4,49.2,92.4,44.2z"/>
			</g>
			<g>
				<rect x="68.3" y="54.1" class="st2" width="4.4" height="19.7"/>
			</g>
			<g>
				<path class="st3" d="M55.2,78.1V25.6c-5.9,0-11.1,2.9-14.3,7.4c-2.4-1.9-5.4-3-8.7-3c-7.9,0-14.2,6.4-14.2,14.2
					c0,5,2.6,9.5,6.6,12v22H55.2z"/>
			</g>
			<g>
				<rect x="53" y="54.1" class="st2" width="4.4" height="19.7"/>
			</g>
			<g>
				<rect x="37.7" y="54.1" class="st2" width="4.4" height="19.7"/>
			</g>
		</g>
	</g>
</g>
</svg>
