<?xml version="1.0" encoding="utf-8"?>
<!-- Generator: Adobe Illustrator 23.0.1, SVG Export Plug-In . SVG Version: 6.00 Build 0)  -->
<svg version="1.1" id="Layer_1" xmlns="http://www.w3.org/2000/svg" xmlns:xlink="http://www.w3.org/1999/xlink" x="0px" y="0px"
	 viewBox="0 0 512 512" style="enable-background:new 0 0 512 512;" xml:space="preserve">
<style type="text/css">
	.st0{fill:#203959;}
</style>
<g>
	<path class="st0" d="M414.2,0h-92.7c-21.6,0-39.2,17.6-39.2,39.2v92.7c0,21.6,17.6,39.2,39.2,39.2h92.7c21.6,0,39.2-17.6,39.2-39.2
		V39.2C453.4,17.6,435.8,0,414.2,0z M423.4,131.9c0,5.1-4.1,9.2-9.2,9.2h-92.7c-5.1,0-9.2-4.1-9.2-9.2V39.2c0-5.1,4.1-9.2,9.2-9.2
		h92.7c5.1,0,9.2,4.1,9.2,9.2V131.9z"/>
	<path class="st0" d="M342.4,208.5c-7.2,0-14,1.8-19.9,4.9c-7.7-11.5-20.8-19.1-35.6-19.1c-7.7,0-14.9,2-21.1,5.6
		c-7.8-10.6-20.3-17.5-34.5-17.5c-4.4,0-8.7,0.7-12.8,1.9V171h3.6c21.6,0,39.2-17.6,39.2-39.2V39.2c0-21.6-17.6-39.2-39.2-39.2
		h-92.7c-21.6,0-39.2,17.6-39.2,39.2v92.7c0,21.6,17.6,39.2,39.2,39.2h3.6V264c-2.3-2.3-4.9-4.4-7.8-6.2c-9.2-5.7-20-7.7-30.6-5.7
		c-11.4,0.5-21.6,5.4-28.3,13.8c-7,8.8-9.4,20.6-6.7,32.3l19.7,84.4c11.2,70.4,66.2,123,68.5,125.3c2.8,2.6,6.5,4.1,10.3,4.1h168.7
		c5,0,9.8-2.5,12.5-6.8c29.9-45.5,45.7-98.2,45.7-152.6l0-101.4c0,0,0,0,0,0C385.2,227.7,366,208.5,342.4,208.5z M164.5,482
		c-12.1-12.9-47.7-54.4-55.6-104.6c-0.1-0.4-0.1-0.7-0.2-1.1l-19.8-84.9c-0.7-2.8-0.3-5.3,0.9-6.9s3.4-2.4,6.3-2.7
		c1.5-0.1,2.1-0.3,3.4-0.4c3.4-0.2,6.9,0,9.8,1.8s4.9,4.6,5.7,7.9l17.1,73.2c1.4,6.1,6.5,10.7,12.7,11.5l1.2,0.1
		c4.3,0.5,8.6-0.8,11.8-3.6c3.2-2.8,5.1-6.9,5.1-11.2V122.8c0-7,5.7-12.8,12.8-12.8s12.8,5.7,12.8,12.8v102.4v38.2
		c0,8.3,6.7,15,15,15s15-6.7,15-15v-38.2c0-7,5.7-12.8,12.8-12.8s12.8,5.7,12.8,12.8v11.9v28c0,8.3,6.7,15,15,15c8.3,0,15-6.7,15-15
		v-28c0-7,5.7-12.8,12.8-12.8s12.8,5.7,12.8,12.8v14.1v24.4c0,8.3,6.7,15,15,15s15-6.7,15-15v-24.4c0-7,5.7-12.8,12.8-12.8
		s12.8,5.7,12.8,12.8l0,101.4c0,45.8-12.6,90.4-36.5,129.4L164.5,482L164.5,482z M120.3,131.9V39.2c0-5.1,4.1-9.2,9.2-9.2h92.7
		c5.1,0,9.2,4.1,9.2,9.2v92.7c0,5.1-4.1,9.2-9.2,9.2h-3.6v-18.3c0-23.6-19.2-42.8-42.8-42.8S133,99.2,133,122.8v18.3h-3.6
		C124.4,141.1,120.3,136.9,120.3,131.9z"/>
</g>
</svg>
