<svg xmlns="http://www.w3.org/2000/svg" xmlns:xlink="http://www.w3.org/1999/xlink" viewBox="0 0 65.17 80.21"><defs><style>.cls-1{fill:#213959;}.cls-2{isolation:isolate;}</style></defs><title>01Element 33</title><g id="Ebene_2" data-name="Ebene 2"><g id="Ebene_1-2" data-name="Ebene 1"><path class="cls-1" d="M26.18,71.74a1.55,1.55,0,0,0-1.11-.46,1.64,1.64,0,0,0-1.12.46,1.55,1.55,0,0,0-.45,1.11A1.61,1.61,0,0,0,24,74a1.56,1.56,0,0,0,1.12.46A1.59,1.59,0,0,0,26.18,74a1.52,1.52,0,0,0,.45-1.11A1.63,1.63,0,0,0,26.18,71.74Z"/><path class="cls-1" d="M47.22,4.37H37.38a1.57,1.57,0,1,0,0,3.13h9.84a1.57,1.57,0,1,0,0-3.13Z"/><path class="cls-1" d="M63.61,35.41a1.57,1.57,0,0,0,1.56-1.57V5.67A5.67,5.67,0,0,0,59.5,0H25.1a5.67,5.67,0,0,0-5.67,5.67V16.5A40.09,40.09,0,0,0,4.54,47.71V64.08H3.13A3.14,3.14,0,0,0,0,67.21V78.65a1.57,1.57,0,0,0,3.13,0V67.21h27.8V78.65a1.57,1.57,0,0,0,3.13,0v-6.9H59.5a5.67,5.67,0,0,0,5.67-5.67V46.86a1.57,1.57,0,1,0-3.13,0V58.44H38.56l5-7a5.4,5.4,0,0,0,.39-5.67,5.47,5.47,0,0,0-8.12-1.88l-9.9,7.38a2.16,2.16,0,0,1-1.25.42,2.1,2.1,0,0,1-2.1-2.1V11.91H62V33.84A1.58,1.58,0,0,0,63.61,35.41ZM62,61.57v4.51h0a2.54,2.54,0,0,1-2.54,2.54H34.06V67.21a3.12,3.12,0,0,0-1.27-2.51,15.25,15.25,0,0,0,3.49-3.13H62ZM24.66,54.79a5.39,5.39,0,0,0,3.13-1l9.9-7.38a2.45,2.45,0,0,1,1.4-.47,2.28,2.28,0,0,1,2.07,1.27A2.32,2.32,0,0,1,41,49.6l-6.61,9.32a12.25,12.25,0,0,1-10,5.16H7.68V47.69A36.76,36.76,0,0,1,19.43,20.62V49.55A5.24,5.24,0,0,0,24.66,54.79Zm-2.1-46V5.67A2.54,2.54,0,0,1,25.1,3.13H59.52a2.54,2.54,0,0,1,2.54,2.54v3.1Z"/><path class="cls-1" d="M43.41,63.86a1.53,1.53,0,0,0-1.11-.46,1.64,1.64,0,0,0-1.11.46A1.55,1.55,0,0,0,40.73,65a1.64,1.64,0,0,0,.46,1.11,1.55,1.55,0,0,0,1.11.46,1.57,1.57,0,0,0,1.11-.46A1.53,1.53,0,0,0,43.87,65,1.56,1.56,0,0,0,43.41,63.86Z"/><path class="cls-1" d="M64.72,39a1.57,1.57,0,0,0-2.22,0A1.52,1.52,0,0,0,62,40.11a1.63,1.63,0,0,0,.46,1.11,1.51,1.51,0,0,0,1.11.45,1.63,1.63,0,0,0,1.11-.45,1.54,1.54,0,0,0,.45-1.11A1.63,1.63,0,0,0,64.72,39Z"/><image class="cls-2" width="263" height="222" transform="translate(30.71 17.43) scale(0.1)" xlink:href="../../Logo.png"/></g></g></svg>