<svg xmlns="http://www.w3.org/2000/svg" xmlns:xlink="http://www.w3.org/1999/xlink" viewBox="0 0 72.67 81.24"><defs><style>.cls-1{fill:#213959;}.cls-2{isolation:isolate;}</style></defs><title>01Element 63</title><g id="Ebene_2" data-name="Ebene 2"><g id="Ebene_1-2" data-name="Ebene 1"><path class="cls-1" d="M71.08,39H59.34V1.59a1.57,1.57,0,0,0-1-1.46,1.59,1.59,0,0,0-1.73.35L52.14,5,47.65.46a1.61,1.61,0,0,0-2.25,0L40.91,5,36.41.46a1.59,1.59,0,0,0-2.23,0L29.67,5,25.18.46a1.6,1.6,0,0,0-2.24,0L18.45,5,14,.46a1.62,1.62,0,0,0-2.26,0L7.2,5,2.71.46A1.59,1.59,0,0,0,.48.46,1.55,1.55,0,0,0,0,1.64V73a8.26,8.26,0,0,0,8.25,8.25H64.42A8.26,8.26,0,0,0,72.67,73V40.62A1.59,1.59,0,0,0,71.08,39Zm-62.83,39A5.1,5.1,0,0,1,3.17,73V5.43l2.91,2.9a1.58,1.58,0,0,0,2.24,0l4.49-4.49L17.3,8.33a1.57,1.57,0,0,0,2.23,0L24,3.84l4.49,4.49a1.58,1.58,0,0,0,2.24,0l4.49-4.49,4.49,4.49a1.58,1.58,0,0,0,2.24,0l4.49-4.49L51,8.33a1.58,1.58,0,0,0,2.24,0l3-2.92V73a8.13,8.13,0,0,0,1.76,5.08ZM69.5,73a5.08,5.08,0,0,1-10.16,0V42.21H69.5V73Z"/><path class="cls-1" d="M29.67,36.32a2.67,2.67,0,0,1-2.85-2.44,2.67,2.67,0,0,1,2.85-2.44,2.68,2.68,0,0,1,2.86,2.44,1.59,1.59,0,1,0,3.17,0,5.72,5.72,0,0,0-4.44-5.43V27.37a1.59,1.59,0,0,0-3.18,0v1.08a5.72,5.72,0,0,0-4.44,5.43,5.85,5.85,0,0,0,6,5.62,2.68,2.68,0,0,1,2.86,2.44,2.68,2.68,0,0,1-2.86,2.44,2.67,2.67,0,0,1-2.85-2.44,1.59,1.59,0,0,0-3.18,0,5.72,5.72,0,0,0,4.44,5.43v1.3a1.59,1.59,0,0,0,3.18,0v-1.3a5.72,5.72,0,0,0,4.44-5.43A5.84,5.84,0,0,0,29.67,36.32Z"/><path class="cls-1" d="M45.62,36.32h-3.1a1.59,1.59,0,0,0,0,3.18h3.1a1.59,1.59,0,0,0,0-3.18Z"/><path class="cls-1" d="M16.82,36.32H13.73a1.59,1.59,0,1,0,0,3.18h3.09a1.59,1.59,0,1,0,0-3.18Z"/><path class="cls-1" d="M46.41,53.32H21.28a1.59,1.59,0,1,0,0,3.17H46.41a1.59,1.59,0,1,0,0-3.17Z"/><path class="cls-1" d="M14,53.78a1.53,1.53,0,0,0-1.12-.46,1.62,1.62,0,0,0-1.13.46,1.52,1.52,0,0,0-.46,1.12A1.62,1.62,0,0,0,11.79,56a1.58,1.58,0,0,0,1.13.46A1.66,1.66,0,0,0,14,56a1.61,1.61,0,0,0,0-2.25Z"/><path class="cls-1" d="M46.41,63.79H21.28a1.59,1.59,0,1,0,0,3.17H46.41a1.59,1.59,0,1,0,0-3.17Z"/><path class="cls-1" d="M14,64.25a1.57,1.57,0,0,0-1.12-.46,1.62,1.62,0,0,0-1.13.46,1.54,1.54,0,0,0-.46,1.12,1.62,1.62,0,0,0,.46,1.13,1.58,1.58,0,0,0,1.13.46A1.62,1.62,0,0,0,14,66.5a1.55,1.55,0,0,0,.46-1.13A1.57,1.57,0,0,0,14,64.25Z"/><image class="cls-2" width="263" height="222" transform="translate(21.42 9.09) scale(0.07)" xlink:href="../../Logo.png"/></g></g></svg>