<svg xmlns="http://www.w3.org/2000/svg" xmlns:xlink="http://www.w3.org/1999/xlink" viewBox="0 0 83.54 83.54"><defs><style>.cls-1{fill:#213959;}.cls-2{isolation:isolate;}</style></defs><title>01Element 73</title><g id="Ebene_2" data-name="Ebene 2"><g id="Ebene_1-2" data-name="Ebene 1"><path class="cls-1" d="M11.44,73.93h0a1.63,1.63,0,0,0-2.3.29,1.61,1.61,0,0,0,.31,2.28v0a1.65,1.65,0,0,0,1,.34,1.62,1.62,0,0,0,1.29-.63A1.65,1.65,0,0,0,11.44,73.93Z"/><path class="cls-1" d="M11.44,60.55h0a1.63,1.63,0,1,0-2,2.58h0a1.65,1.65,0,0,0,1,.34,1.62,1.62,0,0,0,1.29-.63A1.65,1.65,0,0,0,11.44,60.55Z"/><path class="cls-1" d="M11.44,47.17h0a1.63,1.63,0,1,0-2,2.58h0a1.67,1.67,0,0,0,1,.35,1.63,1.63,0,0,0,1.29-.64A1.65,1.65,0,0,0,11.44,47.17Z"/><path class="cls-1" d="M74.07,73.93h0a1.63,1.63,0,1,0-2,2.59l0,0a1.56,1.56,0,0,0,1,.32,1.63,1.63,0,0,0,1-2.93Z"/><path class="cls-1" d="M74.07,60.55h0a1.63,1.63,0,1,0-2,2.59l0,0a1.56,1.56,0,0,0,1,.32,1.63,1.63,0,0,0,1-2.93Z"/><path class="cls-1" d="M74.07,47.17h0a1.63,1.63,0,1,0-2,2.59l0,0a1.57,1.57,0,0,0,1,.33,1.64,1.64,0,0,0,1-2.94Z"/><path class="cls-1" d="M60.29,53.52h0a1.63,1.63,0,1,0,0,3.26h0a1.63,1.63,0,1,0,0-3.26Z"/><path class="cls-1" d="M23.28,66.89h0a1.64,1.64,0,1,0,0,3.27h0a1.64,1.64,0,0,0,0-3.27Z"/><path class="cls-1" d="M13.18,30.22A1.61,1.61,0,0,0,12,29.74a1.64,1.64,0,0,0-1.15.48,1.61,1.61,0,0,0-.48,1.16,1.68,1.68,0,0,0,.48,1.15A1.6,1.6,0,0,0,12,33a1.69,1.69,0,0,0,1.16-.48,1.63,1.63,0,0,0,0-2.31Z"/><path class="cls-1" d="M81.91,40.14H75.13A9.71,9.71,0,0,0,74.66,23a9.6,9.6,0,0,0,.85-4,9.72,9.72,0,0,0-9.71-9.7,9.57,9.57,0,0,0-4.75,1.24,11.24,11.24,0,0,0-6.51-2.06,3.7,3.7,0,0,0-.47,0A12.62,12.62,0,0,0,30.74,7.16c-.39,0-.78,0-1.18,0a12.63,12.63,0,0,0-11.63,7.72c-.34-.1-.7-.19-1.06-.28a7.26,7.26,0,0,1,2-4.76,4.53,4.53,0,0,1,2-1.14h0A1.62,1.62,0,0,0,22.22,7a1.74,1.74,0,0,0-.47-1.16,1.62,1.62,0,0,0-1.16-.47,2.66,2.66,0,0,0-.28,0h0a7.06,7.06,0,0,0-3.5,1.8V1.63A1.64,1.64,0,0,0,15.17,0H11.26A1.63,1.63,0,0,0,9.63,1.63v6.1A19.92,19.92,0,0,0,5.56,4,1.63,1.63,0,1,0,3.79,6.71s5,3.34,5.72,8.09A13,13,0,0,0,0,27c0,2.38,1.35,8.07,2.68,13.1H1.63A1.63,1.63,0,0,0,0,41.77V81.91a1.64,1.64,0,0,0,1.63,1.63H81.91a1.64,1.64,0,0,0,1.63-1.63V41.77A1.64,1.64,0,0,0,81.91,40.14ZM29.58,10.38a10,10,0,0,1,1.88.18A1.64,1.64,0,0,0,33.32,9.5a9.36,9.36,0,0,1,17.52-.35,11.32,11.32,0,0,0-7.57,10.67,1.63,1.63,0,1,0,3.26,0,8,8,0,0,1,13.38-6A1.62,1.62,0,0,0,62,13.9a6.34,6.34,0,0,1,3.86-1.29A6.46,6.46,0,0,1,71,22.91a1.62,1.62,0,0,0,.91,2.54A6.45,6.45,0,0,1,69.11,38a1.65,1.65,0,0,0-1.84,1.06,8.88,8.88,0,0,1-.47,1H64.74l6.67-9.58a1.65,1.65,0,0,0,.27-1.24A1.61,1.61,0,0,0,71,28.26l-4.76-3.17A1.65,1.65,0,0,0,65,24.87a1.6,1.6,0,0,0-1,.75l-2.4,3.93,1.94-9.86a1.62,1.62,0,0,0-1.27-1.91L58,16.94a1.63,1.63,0,0,0-1.24.24,1.71,1.71,0,0,0-.71,1.06l-.53,2.86H51.75a1.64,1.64,0,0,0-1.63,1.63v9.38a12.09,12.09,0,0,0-11.84-9.76A11.87,11.87,0,0,0,31,24.78a12.26,12.26,0,0,0-3.92,5.09A17.89,17.89,0,0,0,27.41,27a12.09,12.09,0,0,0-1.66-6.12A6,6,0,0,1,31.36,17a5.23,5.23,0,0,1,1.19.12,1.63,1.63,0,0,0,1.86-1.07,6,6,0,0,1,1.76-2.56,1.62,1.62,0,0,0,.18-2.3,1.64,1.64,0,0,0-2.3-.18,9.62,9.62,0,0,0-2.19,2.73,4.43,4.43,0,0,0-.52,0,9.22,9.22,0,0,0-7.83,4.36,13.78,13.78,0,0,0-2.59-2A9.4,9.4,0,0,1,29.58,10.38ZM59.65,39,65.8,28.76l1.94,1.31-7,10.07H59.42Zm-2-6.51V27.9a.38.38,0,0,0,0-.1L59,20.48l.93.19Zm-4.22,4.87c0-.06,0-.13,0-.19V24.36h1V40.14h-.52v-.31A7.31,7.31,0,0,0,53.39,37.31ZM31,29.69h-.15a8.81,8.81,0,0,1,16.09,3.14,6.83,6.83,0,0,0-5.5,2.89A12.1,12.1,0,0,0,31,29.69Zm8.66,10.45H22.34a8.81,8.81,0,0,1,17.32,0Zm7.33-4a3.68,3.68,0,0,1,3.59,3.74,1.67,1.67,0,0,1,0,.31H43.42c0-.1,0-.22,0-.31A3.68,3.68,0,0,1,47,36.09ZM12.92,3.26h.65v11c-.21,0-.44,0-.65,0ZM3.36,25.75l.31,0h8.08a1.63,1.63,0,1,0,0-3.26H4.5a10.61,10.61,0,0,1,9.21-5.06c5.75,0,10.44,4.29,10.44,9.58a16.62,16.62,0,0,1-.33,2.65H17.34a1.64,1.64,0,0,0,0,3.27h5.42A12.13,12.13,0,0,0,19,40.14h-13C4.27,33.48,3.26,28.75,3.26,27A9,9,0,0,1,3.36,25.75ZM80.27,53.52H65.92a1.63,1.63,0,1,0,0,3.26H80.27V66.89H28.81a1.64,1.64,0,0,0,0,3.27H80.27V80.27h-77V70.16H17.62a1.64,1.64,0,0,0,0-3.27H3.26V56.78H54.72a1.63,1.63,0,1,0,0-3.26H3.26V43.4h77Z"/><path class="cls-1" d="M40.06,8.81h0a1.63,1.63,0,1,0,0,3.26h0a1.63,1.63,0,0,0,0-3.26Z"/><image class="cls-2" width="263" height="222" transform="translate(23.72 44.26) scale(0.14)" xlink:href="../../Logo.png"/></g></g></svg>