<svg xmlns="http://www.w3.org/2000/svg" viewBox="0 0 83.75 83.21"><defs><style>.cls-1{fill:#213959;}</style></defs><title>01Element 83</title><g id="Ebene_2" data-name="Ebene 2"><g id="Ebene_1-2" data-name="Ebene 1"><path class="cls-1" d="M62.19,62.42H2.45V20.77h9.69a1.23,1.23,0,0,0,0-2.45H1.23A1.23,1.23,0,0,0,0,19.54V63.66a1.24,1.24,0,0,0,1.23,1.23H11.91l4.58,9.86a1.24,1.24,0,0,0,1.63.61l4.49-2.08L36.2,83a1.25,1.25,0,0,0,1.72-.29l12.69-17.8h11.6a1.24,1.24,0,1,0,0-2.47ZM14.62,64.87H34.86L18.21,72.59Zm22,15.38L25.17,72.09l15.53-7.2h6.88Z"/><path class="cls-1" d="M82.52,18.3H71.84L67.26,8.44a1.24,1.24,0,0,0-1.63-.61L61.15,9.91,47.57.23a1.23,1.23,0,0,0-1.72.29L33.16,18.32H17.06a1.23,1.23,0,1,0,0,2.45H81.3V62.43H67.12a1.23,1.23,0,1,0,0,2.46h15.4a1.24,1.24,0,0,0,1.23-1.23V19.54A1.24,1.24,0,0,0,82.52,18.3Zm-13.39,0H48.89l16.66-7.72Zm-22-15.36L58.58,11.1,43.05,18.3H36.17Z"/><path class="cls-1" d="M41.88,53.34A11.73,11.73,0,1,0,30.15,41.61,11.74,11.74,0,0,0,41.88,53.34Zm0-21a9.28,9.28,0,1,1-9.28,9.27A9.28,9.28,0,0,1,41.88,32.34Z"/><path class="cls-1" d="M31.47,58.85H68.9a1.23,1.23,0,0,0,1.23-1.22,6.64,6.64,0,0,1,6.29-6.14,1.24,1.24,0,0,0,1.23-1.23V32.91a1.24,1.24,0,0,0-1.23-1.23,6.64,6.64,0,0,1-6.29-6.13,1.24,1.24,0,0,0-1.23-1.23H14.18A1.23,1.23,0,0,0,13,25.55c0,3.29-2.64,6.16-5.63,6.16A1.24,1.24,0,0,0,6.1,32.94V50.23a1.24,1.24,0,0,0,1.23,1.23c3,0,5.63,2.88,5.63,6.17a1.22,1.22,0,0,0,1.22,1.22H26.57a1.23,1.23,0,0,0,0-2.45H15.33a9.06,9.06,0,0,0-2.23-4.71,7.86,7.86,0,0,0-4.53-2.57v-15A7.92,7.92,0,0,0,13.1,31.5a9,9,0,0,0,2.23-4.71H67.79a9.37,9.37,0,0,0,7.41,7.26v15.1a9.33,9.33,0,0,0-7.41,7.27H31.47a1.22,1.22,0,1,0,0,2.43Z"/></g></g></svg>