<svg id="Ebene_1" data-name="Ebene 1" xmlns="http://www.w3.org/2000/svg" xmlns:xlink="http://www.w3.org/1999/xlink" viewBox="0 0 841.89 595.28"><defs><style>.cls-1{fill:#69bc90;}.cls-2{fill:none;stroke:#213959;stroke-miterlimit:10;}.cls-3{font-size:21px;fill:#213959;font-family:NunitoSans-Regular, Nunito Sans;}.cls-4{letter-spacing:0em;}.cls-5{letter-spacing:-0.01em;}.cls-6{letter-spacing:-0.01em;}.cls-7{letter-spacing:-0.01em;}.cls-8{isolation:isolate;}</style></defs><title>01prozess_ohneBilder</title><path class="cls-1" d="M601,99.15a2,2,0,0,1-1.47.22,1.94,1.94,0,0,1-.53-3.55L628.26,78.2,610.64,48.93a1.94,1.94,0,1,1,3.33-2l18.62,30.93a2,2,0,0,1-.67,2.67Z"/><path class="cls-1" d="M162.09,300.45a1.93,1.93,0,0,1-2.74,0,1.94,1.94,0,0,1,0-2.75l24.15-24.16-24.15-24.15a1.94,1.94,0,1,1,2.74-2.75l25.54,25.53a2,2,0,0,1,0,2.75Z"/><path class="cls-1" d="M431.78,122.73a2,2,0,0,1-2.64.76,2,2,0,0,1-.76-2.64L444.94,91,415.05,74.41a1.95,1.95,0,0,1,1.89-3.4L448.52,88.5a1.94,1.94,0,0,1,.76,2.64Z"/><path class="cls-1" d="M736.79,197.48a1.89,1.89,0,0,1-1.17-.91,1.87,1.87,0,0,1-.18-1.48,1.93,1.93,0,0,1,2.39-1.35l32.92,9.11,9.12-32.93a1.94,1.94,0,1,1,3.74,1L774,205.76a1.94,1.94,0,0,1-2.39,1.35Z"/><path class="cls-1" d="M755.92,346.91a1.95,1.95,0,0,1,1.56-2.27,1.94,1.94,0,0,1,2.26,1.56L766,379.78l33.58-6.27a1.94,1.94,0,0,1,.72,3.82L764.81,384a1.94,1.94,0,0,1-2.26-1.56Z"/><path class="cls-1" d="M621.16,461.21a1.93,1.93,0,0,1,2.43-1.27,1.94,1.94,0,0,1,1.28,2.43L614.7,495l32.62,10.17a1.94,1.94,0,0,1-1.16,3.7l-34.47-10.74a2,2,0,0,1-1.28-2.44Z"/><path class="cls-1" d="M463.15,467.9a1.94,1.94,0,0,1,2.42,1.3,1.94,1.94,0,0,1-1.3,2.42l-32.72,9.82,9.82,32.72a1.94,1.94,0,0,1-3.72,1.12L427.27,480.7a2,2,0,0,1,1.3-2.42Z"/><path class="cls-1" d="M601,99.15a2,2,0,0,1-1.47.22,1.94,1.94,0,0,1-.53-3.55L628.26,78.2,610.64,48.93a1.94,1.94,0,1,1,3.33-2l18.62,30.93a2,2,0,0,1-.67,2.67Z"/><path class="cls-1" d="M346.46,352.5a1.88,1.88,0,0,1,1.12,1,1.9,1.9,0,0,1,.1,1.48,1.94,1.94,0,0,1-2.47,1.22l-32.36-10.93-10.93,32.37a1.94,1.94,0,1,1-3.68-1.24l11.55-34.21a2,2,0,0,1,2.46-1.22Z"/><path class="cls-1" d="M335.19,223.92a1.94,1.94,0,1,1-3.74,1.06l-9.37-32.85-32.86,9.38a1.94,1.94,0,0,1-1.06-3.74l34.72-9.91a2,2,0,0,1,2.4,1.34Z"/><circle class="cls-2" cx="543.81" cy="282.35" r="113.11"/><text class="cls-3" transform="translate(452.08 304.95)">Be<tspan class="cls-4" x="25.22" y="0">s</tspan><tspan x="35.2" y="0">tella</tspan><tspan class="cls-5" x="74.28" y="0">b</tspan><tspan x="86.37" y="0">wicklungs-</tspan><tspan x="58.48" y="25.2">p</tspan><tspan class="cls-6" x="70.71" y="25.2">r</tspan><tspan class="cls-7" x="77.91" y="25.2">oz</tspan><tspan x="99.67" y="25.2">ess</tspan></text><image class="cls-8" width="263" height="222" transform="translate(505.04 207.43) scale(0.3)" xlink:href="../../Logo.png"/></svg>