<svg id="Ebene_1" data-name="Ebene 1" xmlns="http://www.w3.org/2000/svg" viewBox="0 0 512 512"><title>01Zeichenfläche 1</title><path d="M408.38,128.92a10,10,0,1,0-14.14,0A10,10,0,0,0,408.38,128.92Z"/><path d="M130.49,149.63a10,10,0,1,0-14.14,0A10,10,0,0,0,130.49,149.63Z"/><path d="M71.64,207.21l29.93-29.94a10,10,0,1,0-14.14-14.14L57.5,193.07a10,10,0,0,0,14.14,14.14Z"/><path d="M441.37,178.21a10,10,0,0,0,14.14-14.14l-19.95-19.95a10,10,0,0,0-14.14,14.14Z"/><path d="M509.07,167.07,396,53.93A10,10,0,0,0,382,53.72C373.24,62,332,100.89,331.35,101.47l-.11.1c-9.78,9.78-19.41,14.14-31.22,14.14-24.15,0-42.65,6.82-58,21.37-12.59-11.93-26.87-18.1-46.8-20.15l-50-50a10,10,0,0,0-14.14,0L2.93,195.07A10,10,0,0,0,2.71,209l.22.24,83.5,83.37-3.53,3.53A35,35,0,0,0,108,355.82a35,35,0,0,0,35.36,35.37,34.92,34.92,0,0,0,35.35,35.34,35,35,0,0,0,59.74,25.14l3.54-3.54,3.54,3.54a35,35,0,0,0,59.74-25.12,35,35,0,0,0,35.34-35.35A35,35,0,0,0,376,355.82a35,35,0,0,0,25.11-59.71l-3.53-3.53c69.73-69.64-18.47,18.63,111.5-111.37A10,10,0,0,0,509.07,167.07ZM24.14,202.14l114-114,38.42,38.42-114,114ZM97,331.46a15,15,0,0,1,0-21.21l35.36-35.36a15,15,0,0,1,21.21,21.22l-35.35,35.35A15,15,0,0,1,97,331.46Zm35.36,35.36a15,15,0,0,1,0-21.22l35.35-35.35A15,15,0,0,1,189,331.46h0l-35.35,35.36A15,15,0,0,1,132.4,366.82Zm35.35,35.35a15,15,0,0,1,0-21.21l35.36-35.36a15,15,0,0,1,21.21,21.22h0L189,402.16A15,15,0,0,1,167.75,402.17Zm35.36,35.36a15,15,0,0,1,0-21.22L238.46,381a15,15,0,0,1,21.22,21.21l-35.36,35.36A15,15,0,0,1,203.11,437.53Zm77.78,0a15,15,0,0,1-21.21,0L256.14,434l17.68-17.68a35.38,35.38,0,0,0,3.27-3.79l3.79,3.79h0A15,15,0,0,1,280.89,437.53ZM387,331.46a15,15,0,0,1-21.22,0l-46-46a10,10,0,0,0-14.14,14.14l46,46a15,15,0,1,1-21.21,21.21l-46-46A10,10,0,0,0,270.29,335l46,46a15,15,0,0,1-10.61,25.6c-9.51,0-12.57-7.48-21.58-15.36a35,35,0,0,0-35.35-34.63,35,35,0,0,0-35.36-35.34A35,35,0,0,0,178,285.86a35,35,0,0,0-59.74-25.11l-17.69,17.69L76.74,254.68,194.44,137c14.57,1.67,24.38,5.86,33.38,14.22l-28.25,28.25A40,40,0,0,0,256.14,236l28.29-28.29C302.71,226,373.63,296.93,387,310.25A15,15,0,0,1,387,331.46Zm-3.53-53-84.86-84.87,7.07-7.07a10,10,0,0,0-14.14-14.14L242,221.86a20,20,0,0,1-28.29-28.29l40.72-40.71C266.29,141,280.35,135.71,300,135.71c14.14,0,26.35-4.25,37.79-13.25l99.58,102.16Zm68.1-68L352.57,109l36.1-34,99.19,99.21Z"/></svg>