<svg id="Ebene_1" data-name="Ebene 1" xmlns="http://www.w3.org/2000/svg" xmlns:xlink="http://www.w3.org/1999/xlink" viewBox="0 0 841.89 595.28"><defs><style>.cls-1,.cls-5,.cls-6,.cls-8{fill:none;}.cls-2,.cls-9{fill:#213959;}.cls-3{isolation:isolate;}.cls-4{clip-path:url(#clip-path);}.cls-5,.cls-6,.cls-8{stroke:#213959;}.cls-5{stroke-linejoin:round;}.cls-5,.cls-6{stroke-width:2.83px;}.cls-7{fill:#69bc90;}.cls-8{stroke-miterlimit:10;}.cls-9{font-size:21px;font-family:NunitoSans-Regular, Nunito Sans;}.cls-10{letter-spacing:0em;}.cls-11{letter-spacing:-0.01em;}.cls-12{letter-spacing:-0.01em;}.cls-13{letter-spacing:-0.01em;}</style><clipPath id="clip-path"><rect class="cls-1" x="696.72" y="189.85" width="181.21" height="181.21"/></clipPath><image id="image" width="263" height="222" xlink:href="../../../Documents/Bachelor/Bachelor%20Projekt/interaktive%20Darstellung/landchef-interactive-description/landchef-interactive-descirption/pictures/Logo.png"/></defs><title>01prozess_bilder</title><path class="cls-2" d="M735.74,433.56H724V396.12a1.56,1.56,0,0,0-1-1.46,1.59,1.59,0,0,0-1.73.35l-4.49,4.49L712.31,395a1.59,1.59,0,0,0-2.25,0l-4.49,4.49L701.08,395a1.58,1.58,0,0,0-2.24,0l-4.51,4.51L689.84,395a1.57,1.57,0,0,0-2.23,0l-4.49,4.49L678.61,395a1.59,1.59,0,0,0-2.25,0l-4.49,4.51L667.38,395a1.6,1.6,0,0,0-2.72,1.18v71.35a8.26,8.26,0,0,0,8.25,8.25h56.17a8.26,8.26,0,0,0,8.25-8.25V435.15A1.59,1.59,0,0,0,735.74,433.56Zm-62.83,39a5.09,5.09,0,0,1-5.07-5.08V400l2.9,2.9a1.58,1.58,0,0,0,2.24,0l4.49-4.49,4.49,4.49a1.57,1.57,0,0,0,2.23,0l4.49-4.49,4.49,4.49a1.58,1.58,0,0,0,2.24,0l4.49-4.49,4.49,4.49a1.58,1.58,0,0,0,2.24,0l4.49-4.49,4.49,4.49a1.58,1.58,0,0,0,2.24,0l3-2.92v67.58a8.13,8.13,0,0,0,1.76,5.08Zm61.25-5.08a5.08,5.08,0,1,1-10.16,0V436.74h10.16v30.78Z"/><path class="cls-2" d="M694.33,430.85a2.48,2.48,0,1,1,2.86-2.44,1.59,1.59,0,0,0,3.17,0,5.72,5.72,0,0,0-4.44-5.43V421.9a1.59,1.59,0,0,0-3.17,0V423a5.72,5.72,0,0,0-4.45,5.43,5.84,5.84,0,0,0,6,5.61,2.47,2.47,0,1,1-2.85,2.45,1.59,1.59,0,1,0-3.18,0,5.72,5.72,0,0,0,4.45,5.42v1.31a1.59,1.59,0,0,0,3.17,0v-1.31a5.72,5.72,0,0,0,4.44-5.42A5.84,5.84,0,0,0,694.33,430.85Z"/><path class="cls-2" d="M710.28,430.85h-3.1a1.59,1.59,0,0,0,0,3.17h3.1a1.59,1.59,0,1,0,0-3.17Z"/><path class="cls-2" d="M681.48,430.85h-3.09a1.59,1.59,0,1,0,0,3.17h3.09a1.59,1.59,0,1,0,0-3.17Z"/><path class="cls-2" d="M711.07,447.84H685.94a1.59,1.59,0,0,0,0,3.18h25.13a1.59,1.59,0,0,0,0-3.18Z"/><path class="cls-2" d="M678.7,448.3a1.56,1.56,0,0,0-1.12-.46,1.67,1.67,0,0,0-1.13.46,1.56,1.56,0,0,0-.46,1.13,1.67,1.67,0,0,0,.46,1.13,1.58,1.58,0,0,0,1.13.46,1.64,1.64,0,0,0,1.12-.46,1.52,1.52,0,0,0,.46-1.13A1.56,1.56,0,0,0,678.7,448.3Z"/><path class="cls-2" d="M711.07,458.32H685.94a1.59,1.59,0,1,0,0,3.17h25.13a1.59,1.59,0,1,0,0-3.17Z"/><path class="cls-2" d="M678.7,458.78a1.52,1.52,0,0,0-1.12-.46,1.62,1.62,0,0,0-1.13.46,1.52,1.52,0,0,0-.46,1.12,1.67,1.67,0,0,0,.46,1.13,1.58,1.58,0,0,0,1.13.46,1.64,1.64,0,0,0,1.12-.46,1.61,1.61,0,0,0,0-2.25Z"/><use class="cls-3" transform="translate(686.08 403.62) scale(0.07)" xlink:href="#image"/><path class="cls-2" d="M517.85,102.44a1.54,1.54,0,0,0-1.11-.45,1.61,1.61,0,0,0-1.11.45,1.52,1.52,0,0,0-.46,1.11,1.6,1.6,0,0,0,.46,1.12,1.57,1.57,0,0,0,1.11.45,1.63,1.63,0,0,0,1.11-.45,1.56,1.56,0,0,0,.46-1.12A1.64,1.64,0,0,0,517.85,102.44Z"/><path class="cls-2" d="M538.89,35.07h-9.84a1.57,1.57,0,0,0,0,3.14h9.84a1.57,1.57,0,1,0,0-3.14Z"/><path class="cls-2" d="M555.28,66.11a1.57,1.57,0,0,0,1.57-1.57V36.37a5.67,5.67,0,0,0-5.68-5.67h-34.4a5.67,5.67,0,0,0-5.67,5.67V47.2a40.08,40.08,0,0,0-14.88,31.21V94.78h-1.41a3.14,3.14,0,0,0-3.14,3.13v11.44a1.57,1.57,0,1,0,3.14,0V97.91H522.6v11.44a1.57,1.57,0,1,0,3.13,0v-6.89h25.44a5.69,5.69,0,0,0,5.68-5.67V77.56a1.57,1.57,0,0,0-3.14,0V89.14H530.23l5-7a5.4,5.4,0,0,0,.39-5.67,5.46,5.46,0,0,0-8.11-1.88L517.59,82a2.1,2.1,0,0,1-3.36-1.68V42.61h39.48V64.54A1.57,1.57,0,0,0,555.28,66.11Zm-1.57,26.16v4.52h0a2.54,2.54,0,0,1-2.54,2.53H525.73V97.91a3.08,3.08,0,0,0-1.27-2.5,15.56,15.56,0,0,0,3.5-3.14h25.75Zm-37.38-6.78a5.48,5.48,0,0,0,3.14-1l9.9-7.38a2.33,2.33,0,0,1,1.39-.47,2.28,2.28,0,0,1,2.07,1.27,2.32,2.32,0,0,1-.17,2.43l-6.61,9.32a12.3,12.3,0,0,1-10,5.15H499.35V78.39A36.78,36.78,0,0,1,511.1,51.32V80.26A5.24,5.24,0,0,0,516.33,85.49Zm-2.1-46V36.37a2.54,2.54,0,0,1,2.54-2.53h34.42a2.54,2.54,0,0,1,2.54,2.53v3.11Z"/><path class="cls-2" d="M535.08,94.56a1.51,1.51,0,0,0-1.11-.45,1.63,1.63,0,0,0-1.11.45,1.54,1.54,0,0,0-.45,1.11,1.67,1.67,0,0,0,.45,1.12,1.59,1.59,0,0,0,2.22,0,1.58,1.58,0,0,0,0-2.23Z"/><path class="cls-2" d="M556.39,69.7a1.55,1.55,0,0,0-1.11-.46,1.64,1.64,0,0,0-1.11.46,1.55,1.55,0,0,0-.46,1.11,1.64,1.64,0,0,0,.46,1.11,1.55,1.55,0,0,0,1.11.46,1.59,1.59,0,0,0,1.11-.46,1.53,1.53,0,0,0,.46-1.11A1.66,1.66,0,0,0,556.39,69.7Z"/><use class="cls-3" transform="translate(522.38 48.14) scale(0.1)" xlink:href="#image"/><path class="cls-2" d="M357.74,150.47a8.5,8.5,0,1,0,8.49,8.5A8.52,8.52,0,0,0,357.74,150.47Zm0,15.91a7.4,7.4,0,1,1,7.4-7.4A7.41,7.41,0,0,1,357.74,166.38Z"/><path class="cls-2" d="M357.74,155.18a3.81,3.81,0,1,0,3.8,3.8A3.8,3.8,0,0,0,357.74,155.18Zm0,6.51a2.71,2.71,0,1,1,2.7-2.71A2.71,2.71,0,0,1,357.74,161.69Z"/><path class="cls-2" d="M377.91,150.47a8.5,8.5,0,1,0,8.49,8.5A8.52,8.52,0,0,0,377.91,150.47Zm0,15.91a7.4,7.4,0,1,1,7.4-7.4A7.41,7.41,0,0,1,377.91,166.38Z"/><path class="cls-2" d="M377.91,155.18a3.81,3.81,0,1,0,3.8,3.8A3.8,3.8,0,0,0,377.91,155.18Zm0,6.51a2.71,2.71,0,1,1,2.7-2.71A2.71,2.71,0,0,1,377.91,161.69Z"/><path class="cls-2" d="M397.66,104.58a3,3,0,0,0-2.43-1.24H337.46a.53.53,0,0,0-.44.22.47.47,0,0,0-.09.47l9.13,36.16a.57.57,0,0,0,.53.42H368a.55.55,0,0,0,0-1.1H347l-8.86-35.06h57.08a1.91,1.91,0,0,1,1.82,2.5l-10.14,31.23a1.9,1.9,0,0,1-1.82,1.31h-11.6a.55.55,0,1,0,0,1.1h11.6A3,3,0,0,0,388,138.5l10.14-31.22a3,3,0,0,0-.43-2.7Z"/><path class="cls-2" d="M389,145.17H348.46L333.84,87.31a3.22,3.22,0,0,0-3.11-2.41H316.48a3.2,3.2,0,0,0,0,6.4h11.75l1.92,7.58a.55.55,0,0,0,1.06-.26l-2-8a.54.54,0,0,0-.53-.42H316.48a2.1,2.1,0,0,1,0-4.2h14.25a2.12,2.12,0,0,1,2,1.59l14.73,58.28a.54.54,0,0,0,.53.42h41a2.1,2.1,0,1,1,0,4.2H346a2.08,2.08,0,0,1-2-1.59l-11.31-44.74a.53.53,0,0,0-.65-.4.52.52,0,0,0-.4.65l11.3,44.75a3.2,3.2,0,0,0,3.11,2.41h43a3.2,3.2,0,0,0,0-6.4Z"/><path class="cls-2" d="M327.36,113.48c-.35,4.22-4.76,4.89-4.76,4.89,3.79.18,4.72,5.14,4.72,5.14.07-3.55,4.86-5.19,4.86-5.19C328.6,118.1,327.36,113.48,327.36,113.48Z"/><path class="cls-2" d="M332.21,117.77c-3.14-.18-4.33-4.39-4.33-4.44a.55.55,0,0,0-1.07.09c-.31,3.73-4.13,4.37-4.3,4.4a.54.54,0,0,0-.45.57.54.54,0,0,0,.53.51c3.3.17,4.2,4.64,4.2,4.7a.55.55,0,0,0,.53.44h.05a.56.56,0,0,0,.51-.53c.08-3.11,4.46-4.68,4.5-4.68a.54.54,0,0,0,.36-.59A.6.6,0,0,0,332.21,117.77Zm-4.95,3.78a6.37,6.37,0,0,0-2.77-3.25,5.85,5.85,0,0,0,3-3,6.62,6.62,0,0,0,3,3.18A7.81,7.81,0,0,0,327.26,121.55Z"/><path class="cls-2" d="M319.43,119.67c-.26,3-3.37,3.45-3.37,3.45,2.67.15,3.35,3.66,3.35,3.66,0-2.51,3.43-3.68,3.43-3.68-2.54-.14-3.41-3.43-3.41-3.43Z"/><path class="cls-2" d="M322.88,122.56c-2.1-.13-2.91-3-2.92-3a.57.57,0,0,0-.59-.4.54.54,0,0,0-.49.49,3.44,3.44,0,0,1-2.91,3,.54.54,0,0,0-.45.57.53.53,0,0,0,.53.51c2.21.11,2.81,3.16,2.83,3.2a.55.55,0,0,0,.53.44h0a.58.58,0,0,0,.52-.53c.05-2.09,3.05-3.16,3.07-3.16a.54.54,0,0,0,.36-.59.55.55,0,0,0-.51-.47ZM319.37,125a4.79,4.79,0,0,0-1.62-1.94,4.36,4.36,0,0,0,1.77-1.79,4.75,4.75,0,0,0,1.81,1.9A5.83,5.83,0,0,0,319.37,125Z"/><path class="cls-2" d="M319.43,109.93c-.26,3-3.37,3.47-3.37,3.47,2.67.13,3.35,3.64,3.35,3.64,0-2.5,3.43-3.67,3.43-3.67C320.3,113.2,319.43,109.93,319.43,109.93Z"/><path class="cls-2" d="M322.88,112.82c-2.1-.13-2.91-3-2.92-3a.57.57,0,0,0-.59-.4.54.54,0,0,0-.49.49,3.43,3.43,0,0,1-2.91,3,.54.54,0,0,0-.45.57.53.53,0,0,0,.53.51c2.21.11,2.81,3.16,2.83,3.18a.54.54,0,0,0,.53.44h0A.58.58,0,0,0,320,117c.05-2.08,3.05-3.16,3.07-3.16a.54.54,0,0,0,.36-.59A.55.55,0,0,0,322.88,112.82Zm-3.51,2.48a4.7,4.7,0,0,0-1.62-1.93,4.48,4.48,0,0,0,1.77-1.79,4.88,4.88,0,0,0,1.81,1.9A5.7,5.7,0,0,0,319.37,115.3Z"/><path class="cls-2" d="M332.42,133.68a16.9,16.9,0,1,0,16.89,16.9A16.92,16.92,0,0,0,332.42,133.68Zm0,32.7a15.8,15.8,0,1,1,15.8-15.8A15.82,15.82,0,0,1,332.42,166.38Z"/><path class="cls-2" d="M343,143.42a2,2,0,0,0-2.82-.15l-11.25,10.14L325,147.9a2,2,0,1,0-3.25,2.3l5.2,7.36a2,2,0,0,0,1.41.82l.22,0a2,2,0,0,0,1.33-.51l12.9-11.64a2,2,0,0,0,.17-2.83Z"/><path class="cls-2" d="M343.36,143.05a2.54,2.54,0,0,0-1.75-.84,2.58,2.58,0,0,0-1.85.66L329,152.59l-3.54-5a2.56,2.56,0,0,0-1.65-1,2.51,2.51,0,0,0-1.9.43,2.6,2.6,0,0,0-1,1.65,2.53,2.53,0,0,0,.44,1.9l5.21,7.36a2.52,2.52,0,0,0,1.79,1.06,1.23,1.23,0,0,0,.27,0,2.51,2.51,0,0,0,1.7-.66l12.9-11.64A2.55,2.55,0,0,0,343.36,143.05Zm-.91,2.78-12.9,11.64a1.51,1.51,0,0,1-1.14.36,1.44,1.44,0,0,1-1-.6l-5.21-7.36a1.42,1.42,0,0,1-.23-1.08,1.46,1.46,0,0,1,1.42-1.21,1.18,1.18,0,0,1,.26,0,1.5,1.5,0,0,1,.93.59l3.91,5.52a.55.55,0,0,0,.8.07l11.24-10.14a1.44,1.44,0,0,1,1-.37,1.47,1.47,0,0,1,1,.48,1.51,1.51,0,0,1-.11,2.08Z"/><use class="cls-3" transform="translate(354.36 110.97) scale(0.1)" xlink:href="#image"/><path class="cls-2" d="M510.15,533.28h0a1.63,1.63,0,0,0-2.3.29,1.61,1.61,0,0,0,.31,2.28v0a1.63,1.63,0,1,0,2-2.59Z"/><path class="cls-2" d="M510.15,519.9h0a1.63,1.63,0,0,0-2.3.29,1.61,1.61,0,0,0,.31,2.28v0a1.63,1.63,0,1,0,2-2.59Z"/><path class="cls-2" d="M510.15,506.52h0a1.63,1.63,0,1,0-2,2.58h0a1.65,1.65,0,0,0,1,.34,1.62,1.62,0,0,0,1.29-.63A1.65,1.65,0,0,0,510.15,506.52Z"/><path class="cls-2" d="M572.79,533.28h0a1.64,1.64,0,1,0-2,2.59l0,0a1.62,1.62,0,0,0,1,.32,1.68,1.68,0,0,0,1.31-.65A1.62,1.62,0,0,0,572.79,533.28Z"/><path class="cls-2" d="M572.79,519.9h0a1.64,1.64,0,1,0-2,2.59l0,0a1.56,1.56,0,0,0,1,.32,1.68,1.68,0,0,0,1.31-.65A1.62,1.62,0,0,0,572.79,519.9Z"/><path class="cls-2" d="M572.79,506.52h0a1.64,1.64,0,1,0-2,2.59l0,0a1.56,1.56,0,0,0,1,.32,1.65,1.65,0,0,0,1.31-.65A1.63,1.63,0,0,0,572.79,506.52Z"/><path class="cls-2" d="M559,512.86h0a1.64,1.64,0,0,0,0,3.27h0a1.64,1.64,0,0,0,0-3.27Z"/><path class="cls-2" d="M522,526.24h0a1.64,1.64,0,0,0,0,3.27h0a1.64,1.64,0,1,0,0-3.27Z"/><path class="cls-2" d="M511.89,489.56a1.59,1.59,0,0,0-1.15-.47,1.7,1.7,0,0,0-1.16.47,1.63,1.63,0,0,0-.48,1.16,1.69,1.69,0,0,0,.48,1.16,1.62,1.62,0,0,0,1.16.47,1.67,1.67,0,0,0,1.15-.47,1.64,1.64,0,0,0,0-2.32Z"/><path class="cls-2" d="M580.62,499.48h-6.77a9.71,9.71,0,0,0-.48-17.09,9.6,9.6,0,0,0,.85-4,9.73,9.73,0,0,0-9.71-9.71,9.61,9.61,0,0,0-4.74,1.24,11.35,11.35,0,0,0-6.51-2.05h-.48a12.62,12.62,0,0,0-23.33-1.4c-.39,0-.78-.05-1.17-.05a12.64,12.64,0,0,0-11.64,7.72c-.34-.1-.7-.2-1.06-.28a7.17,7.17,0,0,1,2-4.76,4.52,4.52,0,0,1,2-1.14h0a1.65,1.65,0,0,0,.91-.46,1.62,1.62,0,0,0,.47-1.16,1.74,1.74,0,0,0-.47-1.16,1.62,1.62,0,0,0-1.16-.47,1.33,1.33,0,0,0-.28,0h0a7.06,7.06,0,0,0-3.5,1.8V461a1.64,1.64,0,0,0-1.63-1.63H510a1.63,1.63,0,0,0-1.63,1.63v6.1a20,20,0,0,0-4.06-3.75,1.63,1.63,0,1,0-1.78,2.72c.05,0,5,3.35,5.72,8.1a13,13,0,0,0-9.51,12.23c0,2.39,1.36,8.08,2.68,13.1h-1.05a1.65,1.65,0,0,0-1.63,1.64v40.13a1.65,1.65,0,0,0,1.63,1.64h80.28a1.65,1.65,0,0,0,1.63-1.64V501.12A1.65,1.65,0,0,0,580.62,499.48Zm-52.33-29.76a10.88,10.88,0,0,1,1.88.18,1.62,1.62,0,0,0,1.86-1.06,9.36,9.36,0,0,1,17.52-.34A11.33,11.33,0,0,0,542,479.17a1.63,1.63,0,1,0,3.26,0,8,8,0,0,1,13.38-6,1.62,1.62,0,0,0,2.06.08,6.34,6.34,0,0,1,3.87-1.29,6.46,6.46,0,0,1,5.17,10.3,1.62,1.62,0,0,0,.91,2.54,6.44,6.44,0,0,1-1.58,12.69,6.22,6.22,0,0,1-1.22-.11,1.64,1.64,0,0,0-1.85,1.06,8.08,8.08,0,0,1-.47,1h-2.06l6.68-9.57a1.69,1.69,0,0,0,.26-1.24,1.59,1.59,0,0,0-.7-1.06l-4.77-3.17a1.69,1.69,0,0,0-1.26-.23,1.67,1.67,0,0,0-1,.75l-2.4,3.94,1.94-9.86a1.62,1.62,0,0,0-1.27-1.91l-4.14-.85a1.65,1.65,0,0,0-1.94,1.31l-.54,2.85h-3.8a1.65,1.65,0,0,0-1.64,1.64v9.38A12.08,12.08,0,0,0,537,481.7a11.89,11.89,0,0,0-7.26,2.43,12.26,12.26,0,0,0-3.92,5.09,17.87,17.87,0,0,0,.31-2.84,12.12,12.12,0,0,0-1.66-6.12,6,6,0,0,1,5.61-3.91,5.86,5.86,0,0,1,1.19.11,1.61,1.61,0,0,0,1.86-1.06,6,6,0,0,1,1.76-2.56,1.63,1.63,0,0,0-2.12-2.48,9.59,9.59,0,0,0-2.18,2.73,4.7,4.7,0,0,0-.53,0,9.22,9.22,0,0,0-7.83,4.36,13.78,13.78,0,0,0-2.59-2A9.41,9.41,0,0,1,528.29,469.72Zm30.07,28.57,6.15-10.18,1.94,1.31-7,10.06h-1.31Zm-2-6.51v-4.53s0-.07,0-.1l1.37-7.33.93.2Zm-4.22,4.88c0-.06,0-.13,0-.19V483.71h1v15.77h-.53v-.31A7.25,7.25,0,0,0,552.1,496.66ZM529.71,489h-.15a8.8,8.8,0,0,1,16.09,3.14,6.82,6.82,0,0,0-5.5,2.88A12.06,12.06,0,0,0,529.71,489Zm8.67,10.44H521.05a8.82,8.82,0,0,1,17.33,0Zm7.32-4a3.67,3.67,0,0,1,3.59,3.73,1.56,1.56,0,0,1,0,.31h-7.14c0-.09,0-.21,0-.31A3.68,3.68,0,0,1,545.7,495.44Zm-34.07-32.83h.66v10.95c-.22,0-.44,0-.66,0Zm-9.56,22.48a1.65,1.65,0,0,0,.31,0h8.08a1.64,1.64,0,0,0,0-3.27h-7.25a10.64,10.64,0,0,1,9.21-5.05c5.76,0,10.44,4.29,10.44,9.57a16.57,16.57,0,0,1-.33,2.66h-6.47a1.64,1.64,0,1,0,0,3.27h5.41a12.14,12.14,0,0,0-3.72,7.17h-13C503,492.83,502,488.1,502,486.38A9.22,9.22,0,0,1,502.07,485.09ZM579,512.86H564.63a1.64,1.64,0,0,0,0,3.27H579v10.11H527.53a1.64,1.64,0,1,0,0,3.27H579v10.11H502V529.51h14.36a1.64,1.64,0,0,0,0-3.27H502V516.13h51.46a1.64,1.64,0,1,0,0-3.27H502V502.75h77Z"/><path class="cls-2" d="M538.77,468.16h0a1.63,1.63,0,0,0,0,3.26h0a1.63,1.63,0,0,0,0-3.26Z"/><use class="cls-3" transform="translate(522.43 503.61) scale(0.14)" xlink:href="#image"/><g class="cls-4"><g id="Truck_blue" data-name="Truck blue"><g id="Gruppe_5" data-name="Gruppe 5"><path id="Pfad_41" data-name="Pfad 41" class="cls-5" d="M800.92,258.37h15a3.52,3.52,0,0,1,2.84,1.41s12.45,17.56,13,18.69a8,8,0,0,1,1.13,3.68v17a4.56,4.56,0,0,1-1.41,3.12L829,304.8c-.85.85-1.13,1.14-3.12,1.14h-3.39s-1.14-9.91-9.91-9.63a10.13,10.13,0,0,0-9.63,9.63H783.36a10.23,10.23,0,0,0-10.19-9.63c-9.34-.28-9.91,9.63-9.91,9.63H757.6a3.51,3.51,0,0,1-2.27-1.14c-.28-.56-1.7-3.68-1.7-3.68a3.48,3.48,0,0,1-.56-2.83V288.1"/><g id="Rechteck_5" data-name="Rechteck 5"><path class="cls-1" d="M753.35,243.65H793a8.34,8.34,0,0,1,8.49,8.49v28.31A8.34,8.34,0,0,1,793,289H753.35a8.34,8.34,0,0,1-8.49-8.5V252.14A8.34,8.34,0,0,1,753.35,243.65Z"/><path class="cls-6" d="M753.35,245.06H793a7,7,0,0,1,7.08,7.08v28.31a7,7,0,0,1-7.08,7.08H753.35a7,7,0,0,1-7.08-7.08V252.14A7,7,0,0,1,753.35,245.06Z"/></g><path id="Pfad_42" data-name="Pfad 42" class="cls-5" d="M807.71,286.68h14.73v-5.94a5.35,5.35,0,0,0-.57-2c-.28-.56-7.93-11.32-7.93-11.32-.85-1.42-1.13-2-3.11-2h-3.4Z"/><g id="Ellipse_1" data-name="Ellipse 1"><circle class="cls-1" cx="773.17" cy="305.94" r="11.33"/><circle class="cls-6" cx="773.17" cy="305.94" r="9.91"/></g><g id="Ellipse_2" data-name="Ellipse 2"><circle class="cls-1" cx="812.81" cy="305.94" r="11.33"/><circle class="cls-6" cx="812.81" cy="305.94" r="9.91"/></g></g></g></g><use class="cls-3" transform="translate(759.99 253.89) scale(0.1)" xlink:href="#image"/><path class="cls-2" d="M390.47,452.72H330.73V411.08h9.68a1.23,1.23,0,0,0,0-2.46H329.5a1.23,1.23,0,0,0-1.22,1.23V454a1.22,1.22,0,0,0,1.22,1.22h10.68l4.58,9.87a1.26,1.26,0,0,0,1.64.6l4.48-2.08,13.6,9.7a1.21,1.21,0,0,0,1.71-.29l12.7-17.8h11.59a1.23,1.23,0,0,0,1.23-1.22A1.25,1.25,0,0,0,390.47,452.72Zm-47.57,2.46h20.23l-16.65,7.72Zm22,15.37-11.45-8.16,15.52-7.2h6.89Z"/><path class="cls-2" d="M410.8,408.61H400.12l-4.58-9.87a1.26,1.26,0,0,0-1.64-.6l-4.48,2.07-13.58-9.68a1.23,1.23,0,0,0-1.71.3l-12.7,17.79H345.34a1.23,1.23,0,1,0,0,2.46h64.23v41.66H395.39a1.23,1.23,0,1,0,0,2.45H410.8A1.23,1.23,0,0,0,412,454V409.85A1.24,1.24,0,0,0,410.8,408.61Zm-13.4,0H377.17l16.65-7.72Zm-22-15.36,11.45,8.16-15.52,7.2h-6.89Z"/><path class="cls-2" d="M370.15,443.64a11.73,11.73,0,1,0-11.73-11.72A11.74,11.74,0,0,0,370.15,443.64Zm0-21a9.28,9.28,0,1,1-9.27,9.28A9.29,9.29,0,0,1,370.15,422.64Z"/><path class="cls-2" d="M359.75,449.16h37.42a1.24,1.24,0,0,0,1.23-1.23,6.65,6.65,0,0,1,6.3-6.13,1.24,1.24,0,0,0,1.23-1.23V423.21A1.23,1.23,0,0,0,404.7,422a6.66,6.66,0,0,1-6.3-6.14,1.23,1.23,0,0,0-1.23-1.22H342.46a1.23,1.23,0,0,0-1.23,1.22c0,3.29-2.63,6.17-5.63,6.17a1.23,1.23,0,0,0-1.22,1.23v17.29a1.22,1.22,0,0,0,1.22,1.22c3,0,5.63,2.88,5.63,6.17a1.24,1.24,0,0,0,1.23,1.23h12.38a1.23,1.23,0,0,0,0-2.46H343.6a9.2,9.2,0,0,0-2.22-4.71,7.86,7.86,0,0,0-4.53-2.57v-15a8,8,0,0,0,4.53-2.57,9,9,0,0,0,2.22-4.71h52.46a9.38,9.38,0,0,0,7.41,7.26v15.1a9.34,9.34,0,0,0-7.41,7.26H359.75a1.24,1.24,0,0,0-1.23,1.23A1.22,1.22,0,0,0,359.75,449.16Z"/><path class="cls-2" d="M758.41,113.33h-4.83a4.73,4.73,0,0,0-4.53-3.49h-5.16V97.24a1.32,1.32,0,0,0-.64-1.18l-36.35-21a1.33,1.33,0,0,0-1.36,0l-36.35,21a1.36,1.36,0,0,0-.68,1.18v42a1.36,1.36,0,0,0,.68,1.18l36.37,21a1.41,1.41,0,0,0,1.38,0l19.13-11v8a5.74,5.74,0,0,0,5.73,5.76h26.61a5.77,5.77,0,0,0,5.83-5.72v-39.2A5.86,5.86,0,0,0,758.41,113.33Zm-9.32-.78a2,2,0,0,1,2,2h0v.13a2,2,0,0,1-2,2H741.2a2,2,0,0,1-2-2h0v-.13a2,2,0,0,1,2-2h7.89ZM706.24,77.81l15.12,8.72L687.7,106l-15.12-8.72Zm-1.3,80.07-33.72-19.44V99.59L704.94,119Zm1.3-41.22-15.83-9.13L724.05,88.1l15.83,9.14Zm19.83,2.52v28.06l-18.41,10.64V119l33.52-19.43v10.27h0a4.76,4.76,0,0,0-4.54,3.49h-4.82A5.81,5.81,0,0,0,726.07,119.18Zm35.46,39.16a3.06,3.06,0,0,1-3.08,3H731.86a3,3,0,0,1-3.08-3V119.18a3.11,3.11,0,0,1,3.08-3.14h4.88a4.63,4.63,0,0,0,4.48,3.29h7.83a4.62,4.62,0,0,0,4.48-3.29h4.88a3.15,3.15,0,0,1,3.12,3.14v39.16Z"/><path class="cls-2" d="M733.41,132.9h1.41a1.36,1.36,0,1,0,0-2.71h0V126.5h3.74a1.27,1.27,0,0,0,1.29.91,1.35,1.35,0,0,0,1.36-1.35v-.91a1.37,1.37,0,0,0-1.38-1.36h-6.39a1.33,1.33,0,0,0-1.34,1.36h0v6.39a1.36,1.36,0,0,0,1.34,1.36Z"/><path class="cls-2" d="M733.43,145.3h6.39a1.35,1.35,0,0,0,1.36-1.36v-6.39a1.35,1.35,0,0,0-1.36-1.36h-6.39a1.35,1.35,0,0,0-1.36,1.36v6.39A1.35,1.35,0,0,0,733.43,145.3Zm1.36-6.39h3.68v3.68h-3.68Z"/><path class="cls-2" d="M734.84,155h-.05v-3.68h3.66a1.37,1.37,0,0,0,2.73,0V150a1.42,1.42,0,0,0-1.38-1.41h-6.39a1.37,1.37,0,0,0-1.34,1.41v6.4a1.31,1.31,0,0,0,1.3,1.31h1.45a1.35,1.35,0,0,0,1.36-1.35,1.36,1.36,0,0,0-1.34-1.38Z"/><path class="cls-2" d="M742.92,125.46l-4,4-1.2-1.2a1.36,1.36,0,1,0-1.92,1.92l2.17,2.17a1.38,1.38,0,0,0,1.92,0h0l4.94-4.94a1.36,1.36,0,0,0,0-1.92,1.38,1.38,0,0,0-1.94,0Z"/><path class="cls-2" d="M742.92,150.49l-4,4-1.2-1.2a1.35,1.35,0,1,0-1.92,1.91l2.17,2.17a1.36,1.36,0,0,0,1.92,0h0l4.94-4.94a1.36,1.36,0,0,0,0-1.92,1.4,1.4,0,0,0-1.94,0Z"/><path class="cls-2" d="M756.86,127.09h-8.53a1.36,1.36,0,0,0,0,2.71h8.53a1.36,1.36,0,0,0,0-2.71Z"/><path class="cls-2" d="M756.86,139.49h-8.53a1.36,1.36,0,0,0,0,2.71h8.53a1.36,1.36,0,0,0,0-2.71Z"/><path class="cls-2" d="M756.86,151.89h-8.53a1.36,1.36,0,0,0,0,2.71h8.53a1.34,1.34,0,0,0,1.35-1.35A1.36,1.36,0,0,0,756.86,151.89Z"/><use class="cls-3" transform="matrix(0.09, 0.03, -0.02, 0.09, 677.26, 112.73)" xlink:href="#image"/><g id="Layer_2" data-name="Layer 2"><path class="cls-2" d="M298.2,306.26c-.67.18-1.36.32-2.06.44a3.32,3.32,0,0,0-1.31,6,3.3,3.3,0,0,0,2.52.54c.81-.15,1.65-.33,2.46-.53a3.31,3.31,0,1,0-1.61-6.43Z"/><path class="cls-2" d="M322.71,261.82a3.29,3.29,0,0,0,1.25,1.67,3.31,3.31,0,0,0,5.06-3.74c-.26-.8-.54-1.58-.86-2.36a3.31,3.31,0,0,0-6.15,2.46C322.25,260.49,322.48,261.16,322.71,261.82Z"/><path class="cls-2" d="M309,301.53c-.59.39-1.19.76-1.79,1.11a3.33,3.33,0,0,0-1.23,4.52,3.47,3.47,0,0,0,1,1,3.28,3.28,0,0,0,3.56.16c.73-.43,1.44-.87,2.15-1.33a3.3,3.3,0,1,0-3.65-5.51Z"/><path class="cls-2" d="M331.06,271.09a3.31,3.31,0,1,0-6.61.25c0,.69,0,1.4,0,2.11a3.32,3.32,0,0,0,1.4,2.78,3.2,3.2,0,0,0,1.83.6,3.31,3.31,0,0,0,3.38-3.24C331.1,272.78,331.1,271.92,331.06,271.09Z"/><path class="cls-2" d="M322.16,292.8a3.33,3.33,0,0,0-4.64.66c-.42.57-.87,1.12-1.31,1.65a3.33,3.33,0,0,0,.37,4.68,2.71,2.71,0,0,0,.25.19,3.32,3.32,0,0,0,4.43-.56c.55-.64,1.06-1.3,1.58-2A3.31,3.31,0,0,0,322.16,292.8Z"/><path class="cls-2" d="M327,280.82a3.3,3.3,0,0,0-4.15,2.18c-.21.68-.44,1.33-.69,2a3.3,3.3,0,0,0,1.19,3.88,3.85,3.85,0,0,0,.72.39,3.32,3.32,0,0,0,4.28-1.92c.3-.78.56-1.57.81-2.37A3.3,3.3,0,0,0,327,280.82Z"/><path class="cls-2" d="M283.74,306.74a34.32,34.32,0,0,1-8.51-2.7.26.26,0,0,1-.09-.05c-.64-.3-1.28-.62-1.88-1h0a36.1,36.1,0,0,1-3.29-2,34.57,34.57,0,0,1,.16-56.65.38.38,0,0,1,.12-.09,34.69,34.69,0,0,1,38.84-.32l-2.59,3.74c-.73,1-.29,1.81,1,1.68l11.26-1a1.85,1.85,0,0,0,1.68-2.43l-3-10.88c-.34-1.22-1.21-1.37-1.93-.32l-2.59,3.76a41,41,0,0,0-30-6.38c-1.06.17-2.11.41-3.14.67h0l-.13,0A41,41,0,0,0,256.88,248a1.27,1.27,0,0,0-.14.17c-.19.25-.37.52-.55.78-.3.43-.58.87-.87,1.3a.83.83,0,0,0-.09.16,41,41,0,0,0-6.54,24.1v.09c0,.84.11,1.67.2,2.5,0,.06,0,.11,0,.16.08.83.21,1.67.35,2.5a40.87,40.87,0,0,0,11.54,22.19l0,0a0,0,0,0,1,0,0,42.4,42.4,0,0,0,5.28,4.41,41.1,41.1,0,0,0,16.44,6.88,3.32,3.32,0,0,0,1.17-6.54Z"/><path class="cls-2" d="M287.83,245.9a2.68,2.68,0,0,0-2.68,2.68v26.71l24.45,12.64a2.68,2.68,0,0,0,2.46-4.77L290.52,272V248.58A2.7,2.7,0,0,0,287.83,245.9Z"/></g><path class="cls-2" d="M102,247.64a1.94,1.94,0,1,0-2.74,0A1.94,1.94,0,0,0,102,247.64Z"/><path class="cls-2" d="M47.92,251.67a1.94,1.94,0,1,0-2.74,0A1.94,1.94,0,0,0,47.92,251.67Z"/><path class="cls-2" d="M36.46,262.88l5.82-5.82a1.94,1.94,0,0,0-2.75-2.74l-5.82,5.82a1.94,1.94,0,0,0,2.75,2.74Z"/><path class="cls-2" d="M108.45,257.24a1.94,1.94,0,0,0,2.74-2.75l-3.87-3.87a1.94,1.94,0,0,0-2.75,2.74Z"/><path class="cls-2" d="M121.63,255.08l-22-22a1.94,1.94,0,0,0-2.7,0L87,242.29l0,0a8.17,8.17,0,0,1-6.08,2.74c-4.69,0-8.29,1.32-11.29,4.17a14.59,14.59,0,0,0-9.11-3.94l-9.73-9.73a1.94,1.94,0,0,0-2.75,0l-25,25a1.94,1.94,0,0,0,0,2.7s0,0,0,0l16.26,16.24-.68.68a6.81,6.81,0,0,0,4.88,11.62,6.78,6.78,0,0,0,6.88,6.87,6.76,6.76,0,0,0,6.87,6.87,6.8,6.8,0,0,0,11.62,4.89l.68-.68.68.68a6.81,6.81,0,0,0,11.63-4.89,6.78,6.78,0,0,0,6.87-6.87,6.76,6.76,0,0,0,4.88-2,6.63,6.63,0,0,0,2-4.89,6.81,6.81,0,0,0,4.89-11.62l-.69-.68c13.57-13.55-3.6,3.62,21.71-21.69A1.87,1.87,0,0,0,121.63,255.08Zm-94.42,6.81L49.4,239.7l7.48,7.47L34.69,269.36ZM41.4,287.08a2.9,2.9,0,0,1,0-4.13l6.89-6.89a2.94,2.94,0,0,1,4.13,0,2.9,2.9,0,0,1,0,4.13l-6.87,6.87A3,3,0,0,1,41.4,287.08ZM48.29,294a2.92,2.92,0,0,1,0-4.13l6.9-6.89a2.89,2.89,0,0,1,4.12,0,2.92,2.92,0,0,1,0,4.13h0L52.42,294A2.9,2.9,0,0,1,48.29,294Zm6.9,6.89a2.89,2.89,0,0,1,0-4.12l6.89-6.9A2.92,2.92,0,0,1,66.2,294h0l-6.89,6.89A2.93,2.93,0,0,1,55.19,300.84Zm6.87,6.88a2.9,2.9,0,0,1,0-4.13L69,296.7a2.92,2.92,0,0,1,4.13,4.12l-6.89,6.9A2.92,2.92,0,0,1,62.06,307.72Zm15.14,0a3,3,0,0,1-4.12,0L72.4,307l3.44-3.44a8.68,8.68,0,0,0,.64-.74l.74.74h0A2.92,2.92,0,0,1,77.2,307.72Zm20.66-20.64a2.94,2.94,0,0,1-4.13,0l-9-9A1.94,1.94,0,0,0,82,280.87l9,8.95A2.92,2.92,0,0,1,86.86,294l-9-8.95a1.94,1.94,0,0,0-2.74,2.74l9,9a2.93,2.93,0,0,1,0,4.12,2.88,2.88,0,0,1-2.06.86c-1.85,0-2.45-1.46-4.2-3a6.78,6.78,0,0,0-2-4.75,6.87,6.87,0,0,0-4.89-2,6.76,6.76,0,0,0-6.87-6.87,6.82,6.82,0,0,0-6.89-6.9,6.8,6.8,0,0,0-11.62-4.88l-3.45,3.44-4.63-4.63,22.85-22.87A10.61,10.61,0,0,1,66.87,252l-5.51,5.49a7.79,7.79,0,0,0,11,11l5.5-5.51,20,19.95A3,3,0,0,1,97.86,287.08Zm-.7-10.34L80.63,260.21,82,258.83a1.94,1.94,0,0,0-2.74-2.74l-9.64,9.65a3.9,3.9,0,0,1-5.51-5.51L72,252.31c2.32-2.32,5-3.35,8.88-3.35a11.38,11.38,0,0,0,7.36-2.57l19.39,19.9C95,278.9,97.49,276.41,97.16,276.74Zm13.25-13.22L91.14,243.77l7-6.62,19.31,19.31Z"/><path class="cls-7" d="M601,99.15a2,2,0,0,1-1.47.22,1.94,1.94,0,0,1-.53-3.55L628.26,78.2,610.64,48.93a1.94,1.94,0,1,1,3.33-2l18.62,30.93a2,2,0,0,1-.67,2.67Z"/><path class="cls-7" d="M162.09,300.45a1.93,1.93,0,0,1-2.74,0,1.94,1.94,0,0,1,0-2.75l24.15-24.16-24.15-24.15a1.94,1.94,0,1,1,2.74-2.75l25.54,25.53a2,2,0,0,1,0,2.75Z"/><path class="cls-7" d="M431.78,122.73a2,2,0,0,1-2.64.76,2,2,0,0,1-.76-2.64L444.94,91,415.05,74.41a1.95,1.95,0,0,1,1.89-3.4L448.52,88.5a1.94,1.94,0,0,1,.76,2.64Z"/><path class="cls-7" d="M736.79,197.48a1.89,1.89,0,0,1-1.17-.91,1.87,1.87,0,0,1-.18-1.48,1.93,1.93,0,0,1,2.39-1.35l32.92,9.11,9.12-32.93a1.94,1.94,0,1,1,3.74,1L774,205.76a1.94,1.94,0,0,1-2.39,1.35Z"/><path class="cls-7" d="M755.92,346.91a1.95,1.95,0,0,1,1.56-2.27,1.94,1.94,0,0,1,2.26,1.56L766,379.78l33.58-6.27a1.94,1.94,0,0,1,.72,3.82L764.81,384a1.94,1.94,0,0,1-2.26-1.56Z"/><path class="cls-7" d="M621.16,461.21a1.93,1.93,0,0,1,2.43-1.27,1.94,1.94,0,0,1,1.28,2.43L614.7,495l32.62,10.17a1.94,1.94,0,0,1-1.16,3.7l-34.47-10.74a2,2,0,0,1-1.28-2.44Z"/><path class="cls-7" d="M463.15,467.9a1.94,1.94,0,0,1,2.42,1.3,1.94,1.94,0,0,1-1.3,2.42l-32.72,9.82,9.82,32.72a1.94,1.94,0,0,1-3.72,1.12L427.27,480.7a2,2,0,0,1,1.3-2.42Z"/><path class="cls-7" d="M601,99.15a2,2,0,0,1-1.47.22,1.94,1.94,0,0,1-.53-3.55L628.26,78.2,610.64,48.93a1.94,1.94,0,1,1,3.33-2l18.62,30.93a2,2,0,0,1-.67,2.67Z"/><path class="cls-7" d="M346.46,352.5a1.88,1.88,0,0,1,1.12,1,1.9,1.9,0,0,1,.1,1.48,1.94,1.94,0,0,1-2.47,1.22l-32.36-10.93-10.93,32.37a1.94,1.94,0,1,1-3.68-1.24l11.55-34.21a2,2,0,0,1,2.46-1.22Z"/><path class="cls-7" d="M335.19,223.92a1.94,1.94,0,1,1-3.74,1.06l-9.37-32.85-32.86,9.38a1.94,1.94,0,0,1-1.06-3.74l34.72-9.91a2,2,0,0,1,2.4,1.34Z"/><circle class="cls-8" cx="543.81" cy="282.35" r="113.11"/><text class="cls-9" transform="translate(452.08 304.95)">Be<tspan class="cls-10" x="25.22" y="0">s</tspan><tspan x="35.2" y="0">tella</tspan><tspan class="cls-11" x="74.28" y="0">b</tspan><tspan x="86.37" y="0">wicklungs-</tspan><tspan x="58.48" y="25.2">p</tspan><tspan class="cls-12" x="70.71" y="25.2">r</tspan><tspan class="cls-13" x="77.91" y="25.2">oz</tspan><tspan x="99.67" y="25.2">ess</tspan></text><use class="cls-3" transform="translate(505.04 207.43) scale(0.3)" xlink:href="#image"/></svg>