<svg xmlns="http://www.w3.org/2000/svg" xmlns:xlink="http://www.w3.org/1999/xlink" viewBox="0 0 84.95 82.58"><defs><style>.cls-1{fill:#213959;}.cls-2{isolation:isolate;}</style></defs><title>01Element 23</title><g id="Ebene_2" data-name="Ebene 2"><g id="Ebene_1-2" data-name="Ebene 1"><path class="cls-1" d="M44.45,65.57a8.5,8.5,0,1,0,8.49,8.49A8.52,8.52,0,0,0,44.45,65.57Zm0,15.91a7.4,7.4,0,1,1,7.4-7.4A7.42,7.42,0,0,1,44.45,81.48Z"/><path class="cls-1" d="M44.45,70.28a3.8,3.8,0,1,0,3.8,3.8A3.8,3.8,0,0,0,44.45,70.28Zm0,6.51a2.71,2.71,0,1,1,2.7-2.71A2.7,2.7,0,0,1,44.45,76.79Z"/><path class="cls-1" d="M64.62,65.57a8.5,8.5,0,1,0,8.49,8.49A8.52,8.52,0,0,0,64.62,65.57Zm0,15.91a7.4,7.4,0,1,1,7.4-7.4A7.41,7.41,0,0,1,64.62,81.48Z"/><path class="cls-1" d="M64.62,70.28a3.8,3.8,0,1,0,3.8,3.8A3.8,3.8,0,0,0,64.62,70.28Zm0,6.51a2.71,2.71,0,1,1,2.7-2.71A2.7,2.7,0,0,1,64.62,76.79Z"/><path class="cls-1" d="M84.37,19.68a3,3,0,0,0-2.43-1.25H24.17a.57.57,0,0,0-.44.22.51.51,0,0,0-.09.48l9.14,36.15a.54.54,0,0,0,.53.42H54.74a.55.55,0,0,0,0-1.09h-21L24.86,19.55H81.94a1.91,1.91,0,0,1,1.83,2.5L73.63,53.27a1.92,1.92,0,0,1-1.83,1.32H60.2a.55.55,0,1,0,0,1.1H71.8a3,3,0,0,0,2.87-2.09L84.81,22.38a3.06,3.06,0,0,0-.44-2.7Z"/><path class="cls-1" d="M75.73,60.27H35.17L20.55,2.41A3.21,3.21,0,0,0,17.45,0H3.2a3.2,3.2,0,1,0,0,6.39H14.94L16.86,14a.55.55,0,0,0,.66.4.55.55,0,0,0,.4-.66l-2-8a.54.54,0,0,0-.53-.42H3.2a2.1,2.1,0,0,1,0-4.2H17.45a2.09,2.09,0,0,1,2,1.59L34.22,61a.55.55,0,0,0,.53.42h41a2.1,2.1,0,0,1,0,4.2H32.68a2.08,2.08,0,0,1-2-1.59L19.35,19.26a.55.55,0,0,0-.66-.41.55.55,0,0,0-.4.66L29.6,64.25a3.18,3.18,0,0,0,3.1,2.42h43a3.2,3.2,0,0,0,0-6.4Z"/><path class="cls-1" d="M14.07,28.57c-.35,4.22-4.75,4.9-4.75,4.9C13.1,33.65,14,38.6,14,38.6c.07-3.54,4.86-5.19,4.86-5.19C15.31,33.2,14.07,28.57,14.07,28.57Z"/><path class="cls-1" d="M18.93,32.87c-3.15-.19-4.33-4.39-4.33-4.44A.56.56,0,0,0,14,28a.54.54,0,0,0-.49.49c-.31,3.73-4.13,4.37-4.29,4.4a.54.54,0,0,0-.46.57A.54.54,0,0,0,9.3,34c3.31.16,4.2,4.64,4.2,4.69a.55.55,0,0,0,.53.44h.06a.57.57,0,0,0,.51-.53c.07-3.1,4.46-4.67,4.49-4.67a.54.54,0,0,0,.37-.59A.62.62,0,0,0,18.93,32.87ZM14,36.65A6.44,6.44,0,0,0,11.2,33.4a5.87,5.87,0,0,0,3-3,6.57,6.57,0,0,0,3.05,3.18A7.69,7.69,0,0,0,14,36.65Z"/><path class="cls-1" d="M6.14,34.77c-.26,3-3.36,3.45-3.36,3.45,2.66.15,3.34,3.65,3.34,3.65.06-2.5,3.43-3.67,3.43-3.67C7,38.06,6.14,34.77,6.14,34.77Z"/><path class="cls-1" d="M9.59,37.65c-2.1-.12-2.9-3-2.92-3a.55.55,0,0,0-.59-.4.53.53,0,0,0-.49.49,3.45,3.45,0,0,1-2.9,3,.54.54,0,0,0-.46.57.54.54,0,0,0,.53.51C5,38.88,5.57,41.93,5.59,42a.54.54,0,0,0,.53.44h0a.56.56,0,0,0,.51-.53c0-2.08,3.05-3.16,3.07-3.16a.53.53,0,0,0,.36-.58.55.55,0,0,0-.51-.48ZM6.08,40.14A4.59,4.59,0,0,0,4.46,38.2a4.42,4.42,0,0,0,1.77-1.79A4.82,4.82,0,0,0,8,38.31,5.82,5.82,0,0,0,6.08,40.14Z"/><path class="cls-1" d="M6.14,25A4,4,0,0,1,2.78,28.5c2.66.13,3.34,3.64,3.34,3.64.06-2.51,3.43-3.68,3.43-3.68C7,28.3,6.14,25,6.14,25Z"/><path class="cls-1" d="M9.59,27.92c-2.1-.13-2.9-3-2.92-3a.56.56,0,0,0-.59-.4.54.54,0,0,0-.49.49,3.44,3.44,0,0,1-2.9,3,.54.54,0,0,0-.46.57.54.54,0,0,0,.53.51c2.21.11,2.81,3.16,2.83,3.18a.55.55,0,0,0,.53.44h0a.58.58,0,0,0,.51-.53C6.72,30,9.72,29,9.74,29a.54.54,0,0,0,.36-.59A.53.53,0,0,0,9.59,27.92ZM6.08,30.4a4.71,4.71,0,0,0-1.62-1.94,4.36,4.36,0,0,0,1.77-1.79A4.75,4.75,0,0,0,8,28.57,5.93,5.93,0,0,0,6.08,30.4Z"/><path class="cls-1" d="M19.13,48.78A16.9,16.9,0,1,0,36,65.68,16.92,16.92,0,0,0,19.13,48.78Zm0,32.7a15.8,15.8,0,1,1,15.8-15.8A15.81,15.81,0,0,1,19.13,81.48Z"/><path class="cls-1" d="M29.67,58.52a2,2,0,0,0-2.81-.15L15.6,68.51,11.69,63A2,2,0,0,0,8.44,65.3l5.21,7.36a2,2,0,0,0,1.4.82l.22,0A2,2,0,0,0,16.61,73l12.9-11.64a2,2,0,0,0,.16-2.83Z"/><path class="cls-1" d="M30.07,58.15a2.54,2.54,0,0,0-3.6-.18L15.69,67.69l-3.54-5a2.62,2.62,0,0,0-1.65-1,2.52,2.52,0,0,0-1.9.44,2.62,2.62,0,0,0-1,1.65A2.54,2.54,0,0,0,8,65.61L13.21,73A2.6,2.6,0,0,0,15,74a1.23,1.23,0,0,0,.27,0,2.49,2.49,0,0,0,1.7-.66l12.9-11.64A2.55,2.55,0,0,0,30.07,58.15Zm-.91,2.78L16.26,72.57a1.49,1.49,0,0,1-1.13.36,1.46,1.46,0,0,1-1-.6L8.9,65a1.45,1.45,0,0,1,.34-2,1.37,1.37,0,0,1,.84-.28,1.18,1.18,0,0,1,.26,0,1.42,1.42,0,0,1,.93.59l3.91,5.51a.49.49,0,0,0,.39.22.52.52,0,0,0,.42-.14L27.22,58.74a1.44,1.44,0,0,1,1-.37,1.41,1.41,0,0,1,1,.48,1.51,1.51,0,0,1-.11,2.08Z"/><image class="cls-2" width="263" height="222" transform="translate(41.07 26.07) scale(0.1)" xlink:href="../../Logo.png"/></g></g></svg>