<svg xmlns="http://www.w3.org/2000/svg" xmlns:xlink="http://www.w3.org/1999/xlink" viewBox="0 0 95.73 89.22"><defs><style>.cls-1{fill:#213959;}.cls-2{isolation:isolate;}</style></defs><title>01Element 43</title><g id="Ebene_2" data-name="Ebene 2"><g id="Ebene_1-2" data-name="Ebene 1"><path class="cls-1" d="M89.9,38.44H85.07A4.75,4.75,0,0,0,80.54,35H75.38V22.36a1.31,1.31,0,0,0-.64-1.18L38.39.19A1.33,1.33,0,0,0,37,.19L.68,21.18A1.35,1.35,0,0,0,0,22.36v42a1.35,1.35,0,0,0,.68,1.18l36.37,21a1.41,1.41,0,0,0,.68.18,1.43,1.43,0,0,0,.7-.18l19.12-11v8a5.74,5.74,0,0,0,5.74,5.75H89.9a5.77,5.77,0,0,0,5.83-5.71V44.29A5.87,5.87,0,0,0,89.9,38.44Zm-9.32-.77a2,2,0,0,1,2,2h0v.14a2,2,0,0,1-2,2H72.69a2,2,0,0,1-2-2h0v-.14a2,2,0,0,1,2-2h7.89ZM37.73,2.92l15.12,8.72L19.18,31.08,4.07,22.36ZM36.43,83,2.71,63.56V24.7L36.43,44.14Zm1.3-41.21L21.9,32.65,55.54,13.21l15.83,9.15Zm19.82,2.51V72.36L39.14,83V44.12L72.67,24.68V35h0a4.77,4.77,0,0,0-4.54,3.49H63.35A5.83,5.83,0,0,0,57.55,44.29ZM93,83.46a3,3,0,0,1-3.08,3H63.35a3,3,0,0,1-3.08-3V44.29a3.1,3.1,0,0,1,3.08-3.13h4.88a4.64,4.64,0,0,0,4.48,3.29h7.83A4.61,4.61,0,0,0,85,41.16H89.9A3.14,3.14,0,0,1,93,44.29V83.46Z"/><path class="cls-1" d="M64.9,58h1.41a1.36,1.36,0,1,0,0-2.71h0V51.62H70a1.29,1.29,0,0,0,1.29.91,1.35,1.35,0,0,0,1.36-1.36v-.91a1.36,1.36,0,0,0-1.38-1.35H64.9a1.33,1.33,0,0,0-1.34,1.35h0v6.4A1.36,1.36,0,0,0,64.9,58Z"/><path class="cls-1" d="M64.92,70.42h6.39a1.35,1.35,0,0,0,1.36-1.36V62.67a1.35,1.35,0,0,0-1.36-1.36H64.92a1.35,1.35,0,0,0-1.36,1.36v6.39A1.35,1.35,0,0,0,64.92,70.42ZM66.28,64H70V67.7H66.28Z"/><path class="cls-1" d="M66.33,80.11h0V76.42h3.66a1.37,1.37,0,0,0,2.73,0V75.13a1.43,1.43,0,0,0-1.38-1.42H64.9a1.38,1.38,0,0,0-1.34,1.42v6.39a1.31,1.31,0,0,0,1.3,1.32h1.45a1.37,1.37,0,0,0,0-2.73Z"/><path class="cls-1" d="M74.41,50.57l-4,4-1.2-1.21a1.36,1.36,0,0,0-1.92,1.92l2.17,2.17a1.36,1.36,0,0,0,1.92,0h0l4.94-4.94a1.36,1.36,0,0,0,0-1.92,1.4,1.4,0,0,0-1.94,0Z"/><path class="cls-1" d="M74.41,75.61l-4,4-1.2-1.2a1.36,1.36,0,0,0-1.92,1.92l2.17,2.17a1.38,1.38,0,0,0,1.92,0h0l4.94-4.94a1.36,1.36,0,0,0,0-1.92,1.4,1.4,0,0,0-1.94,0Z"/><path class="cls-1" d="M88.35,52.2H79.82a1.36,1.36,0,1,0,0,2.71h8.53a1.34,1.34,0,0,0,1.35-1.35A1.36,1.36,0,0,0,88.35,52.2Z"/><path class="cls-1" d="M88.35,64.6H79.82a1.36,1.36,0,1,0,0,2.72h8.53a1.36,1.36,0,0,0,0-2.72Z"/><path class="cls-1" d="M88.35,77H79.82a1.36,1.36,0,1,0,0,2.71h8.53a1.36,1.36,0,0,0,0-2.71Z"/><image class="cls-2" width="263" height="222" transform="matrix(0.09, 0.03, -0.02, 0.09, 8.75, 37.85)" xlink:href="../../Logo.png"/></g></g></svg>