<svg xmlns="http://www.w3.org/2000/svg" xmlns:xlink="http://www.w3.org/1999/xlink" viewBox="0 0 89.47 73.62"><defs><style>.cls-1,.cls-3,.cls-4{fill:none;}.cls-2{clip-path:url(#clip-path);}.cls-3,.cls-4{stroke:#213959;stroke-width:2.83px;}.cls-3{stroke-linejoin:round;}.cls-5{isolation:isolate;}</style><clipPath id="clip-path" transform="translate(-48.13 -53.8)"><rect class="cls-1" width="181.21" height="181.21"/></clipPath></defs><title>01Element 53</title><g id="Ebene_2" data-name="Ebene 2"><g id="Ebene_1-2" data-name="Ebene 1"><g class="cls-2"><g id="Truck_blue" data-name="Truck blue"><g id="Gruppe_5" data-name="Gruppe 5"><path id="Pfad_41" data-name="Pfad 41" class="cls-3" d="M104.19,68.52h15A3.5,3.5,0,0,1,122,69.93s12.46,17.56,13,18.69a8.11,8.11,0,0,1,1.13,3.68v17a4.57,4.57,0,0,1-1.42,3.12L132.22,115c-.84.85-1.13,1.14-3.11,1.14h-3.4s-1.13-9.91-9.91-9.63a10.13,10.13,0,0,0-9.62,9.63H86.64a10.23,10.23,0,0,0-10.19-9.63c-9.35-.28-9.91,9.63-9.91,9.63H60.87A3.48,3.48,0,0,1,58.61,115c-.28-.56-1.7-3.68-1.7-3.68a3.48,3.48,0,0,1-.57-2.83V98.25" transform="translate(-48.13 -53.8)"/><g id="Rechteck_5" data-name="Rechteck 5"><path class="cls-1" d="M56.63,53.8H96.27a8.34,8.34,0,0,1,8.49,8.49V90.6a8.34,8.34,0,0,1-8.49,8.5H56.63a8.34,8.34,0,0,1-8.5-8.5V62.29A8.34,8.34,0,0,1,56.63,53.8Z" transform="translate(-48.13 -53.8)"/><path class="cls-4" d="M56.63,55.21H96.27a7,7,0,0,1,7.07,7.08V90.6a7,7,0,0,1-7.07,7.08H56.63a7,7,0,0,1-7.08-7.08V62.29A7,7,0,0,1,56.63,55.21Z" transform="translate(-48.13 -53.8)"/></g><path id="Pfad_42" data-name="Pfad 42" class="cls-3" d="M111,96.83h14.72V90.89a5.33,5.33,0,0,0-.56-2c-.29-.56-7.93-11.32-7.93-11.32-.85-1.42-1.13-2-3.12-2h-3.39Z" transform="translate(-48.13 -53.8)"/><g id="Ellipse_1" data-name="Ellipse 1"><circle class="cls-1" cx="28.31" cy="62.29" r="11.33"/><circle class="cls-4" cx="28.31" cy="62.29" r="9.91"/></g><g id="Ellipse_2" data-name="Ellipse 2"><circle class="cls-1" cx="67.95" cy="62.29" r="11.33"/><circle class="cls-4" cx="67.95" cy="62.29" r="9.91"/></g></g></g></g><image class="cls-5" width="263" height="222" transform="translate(15.14 10.25) scale(0.1)" xlink:href="../../Logo.png"/></g></g></svg>