<svg xmlns="http://www.w3.org/2000/svg" viewBox="0 0 99.67 79.95"><defs><style>.cls-1{fill:#213959;}</style></defs><title>01Element 13</title><g id="Ebene_2" data-name="Ebene 2"><g id="Ebene_1-2" data-name="Ebene 1"><path class="cls-1" d="M79.51,15.17a1.94,1.94,0,1,0-2.75,0A1.94,1.94,0,0,0,79.51,15.17Z"/><path class="cls-1" d="M25.41,19.2a1.94,1.94,0,1,0-2.75,0A1.94,1.94,0,0,0,25.41,19.2Z"/><path class="cls-1" d="M13.94,30.41l5.82-5.82A1.94,1.94,0,1,0,17,21.84L11.2,27.67a1.94,1.94,0,0,0,2.74,2.74Z"/><path class="cls-1" d="M85.93,24.76A1.94,1.94,0,0,0,88.68,22L84.8,18.15a1.94,1.94,0,0,0-2.74,2.74Z"/><path class="cls-1" d="M99.11,22.6l-22-22a1.94,1.94,0,0,0-2.7,0c-1.72,1.61-9.76,9.19-9.87,9.28l0,0a8.15,8.15,0,0,1-6.08,2.75c-4.69,0-8.29,1.32-11.29,4.16A14.61,14.61,0,0,0,38,12.81L28.27,3.08a1.94,1.94,0,0,0-2.75,0L.57,28.05a2,2,0,0,0,0,2.71s0,0,0,0L16.82,47l-.68.68A6.81,6.81,0,0,0,21,59.34a6.76,6.76,0,0,0,6.87,6.87,6.76,6.76,0,0,0,6.87,6.87,6.76,6.76,0,0,0,2,4.89,6.83,6.83,0,0,0,9.63,0l.68-.68.69.68a6.83,6.83,0,0,0,9.63,0,6.76,6.76,0,0,0,2-4.89,6.78,6.78,0,0,0,6.87-6.87,6.8,6.8,0,0,0,4.89-2,6.66,6.66,0,0,0,2-4.89A6.81,6.81,0,0,0,78,47.72L77.33,47C90.9,33.49,73.73,50.66,99,25.35A1.88,1.88,0,0,0,99.11,22.6ZM4.69,29.42,26.89,7.23l7.47,7.47L12.17,36.89Zm14.2,25.19a2.9,2.9,0,0,1,0-4.13l6.89-6.89a2.92,2.92,0,0,1,4.12,4.13L23,54.59A2.93,2.93,0,0,1,18.89,54.61Zm6.89,6.87a2.9,2.9,0,0,1,0-4.13l6.89-6.89a2.9,2.9,0,0,1,4.13,0,2.94,2.94,0,0,1,0,4.13h0l-6.9,6.89A2.89,2.89,0,0,1,25.78,61.48Zm6.89,6.89a2.9,2.9,0,0,1,0-4.13l6.89-6.89a2.92,2.92,0,0,1,4.13,4.13h0L36.8,68.37A2.94,2.94,0,0,1,32.67,68.37Zm6.87,6.87a2.89,2.89,0,0,1,0-4.12l6.89-6.89a2.92,2.92,0,1,1,4.13,4.12l-6.89,6.89A2.9,2.9,0,0,1,39.54,75.24Zm15.15,0a2.94,2.94,0,0,1-4.13,0l-.68-.68,3.44-3.44a8.83,8.83,0,0,0,.65-.74l.74.74h0A2.93,2.93,0,0,1,54.69,75.24ZM75.34,54.61a2.94,2.94,0,0,1-4.13,0l-8.95-9a1.94,1.94,0,0,0-2.75,2.75l9,9a2.92,2.92,0,0,1-4.13,4.13l-9-8.95a1.94,1.94,0,0,0-2.75,2.74l9,9a2.92,2.92,0,0,1-2.07,5c-1.85,0-2.45-1.46-4.2-3a6.81,6.81,0,0,0-6.87-6.75,6.8,6.8,0,0,0-6.88-6.88,6.81,6.81,0,0,0-6.89-6.89,6.76,6.76,0,0,0-2-4.88,6.84,6.84,0,0,0-9.64,0l-3.44,3.44L15,39.62,37.85,16.74a10.64,10.64,0,0,1,6.5,2.77L38.84,25a7.79,7.79,0,0,0,11,11l5.51-5.51,19.95,20A3,3,0,0,1,75.34,54.61Zm-.7-10.34L58.11,27.74l1.38-1.38a1.94,1.94,0,1,0-2.74-2.74l-9.64,9.65a3.9,3.9,0,0,1-5.51-5.51l7.93-7.92c2.31-2.32,5-3.35,8.87-3.35a11.43,11.43,0,0,0,7.36-2.57l19.39,19.9C72.48,46.43,75,43.94,74.64,44.27ZM87.9,31.05,68.62,11.29l7-6.62L95,24Z"/></g></g></svg>