<svg xmlns="http://www.w3.org/2000/svg" viewBox="0 0 82.44 81.87"><defs><style>.cls-1{fill:#213959;}</style></defs><title>01Element 93</title><g id="Ebene_2" data-name="Ebene 2"><g id="Ebene_1-2" data-name="Ebene 1"><g id="Layer_2" data-name="Layer 2"><path class="cls-1" d="M49.55,74.8c-.68.18-1.37.32-2.06.44a3.32,3.32,0,0,0-1.31,6,3.29,3.29,0,0,0,2.52.54c.81-.15,1.64-.33,2.46-.53a3.31,3.31,0,0,0-1.61-6.43Z"/><path class="cls-1" d="M74.06,30.36A3.28,3.28,0,0,0,75.3,32a3.35,3.35,0,0,0,3,.44,3.32,3.32,0,0,0,2.11-4.18c-.26-.8-.55-1.58-.87-2.36a3.31,3.31,0,0,0-6.15,2.46C73.6,29,73.83,29.7,74.06,30.36Z"/><path class="cls-1" d="M60.32,70.07c-.58.39-1.18.76-1.79,1.11a3.34,3.34,0,0,0-1.22,4.52,3.47,3.47,0,0,0,1,1,3.28,3.28,0,0,0,3.56.16c.73-.43,1.44-.87,2.15-1.33a3.31,3.31,0,1,0-3.66-5.51Z"/><path class="cls-1" d="M82.41,39.63a3.31,3.31,0,1,0-6.61.25c0,.69,0,1.4,0,2.11a3.32,3.32,0,0,0,1.4,2.78,3.2,3.2,0,0,0,1.82.6,3.32,3.32,0,0,0,3.39-3.24C82.45,41.32,82.45,40.46,82.41,39.63Z"/><path class="cls-1" d="M73.51,61.34a3.33,3.33,0,0,0-4.64.66c-.43.57-.87,1.12-1.31,1.65a3.33,3.33,0,0,0,.37,4.68,2.71,2.71,0,0,0,.25.19A3.32,3.32,0,0,0,72.61,68c.55-.64,1.06-1.3,1.58-2A3.33,3.33,0,0,0,73.51,61.34Z"/><path class="cls-1" d="M78.39,49.36a3.3,3.3,0,0,0-4.15,2.18c-.21.68-.44,1.33-.69,2a3.31,3.31,0,0,0,1.18,3.88,4.28,4.28,0,0,0,.73.39,3.31,3.31,0,0,0,4.27-1.92c.3-.78.57-1.57.82-2.37A3.3,3.3,0,0,0,78.39,49.36Z"/><path class="cls-1" d="M35.08,75.28a34.45,34.45,0,0,1-8.51-2.7l-.08,0c-.64-.3-1.28-.62-1.88-1h0a37.68,37.68,0,0,1-3.3-2,34.57,34.57,0,0,1,.16-56.65.43.43,0,0,1,.13-.09,34.67,34.67,0,0,1,38.83-.32L57.82,16.2c-.72,1-.28,1.81,1,1.68l11.26-1a1.86,1.86,0,0,0,1.68-2.43l-3-10.88c-.34-1.22-1.21-1.36-1.94-.32L64.21,7a41,41,0,0,0-30-6.38C33.12.79,32.07,1,31,1.29h0l-.12,0A41,41,0,0,0,8.23,16.52a1.27,1.27,0,0,0-.14.17c-.2.25-.38.52-.55.78-.3.43-.59.87-.87,1.3a.51.51,0,0,0-.09.16A41,41,0,0,0,0,43v.09c0,.84.11,1.67.19,2.5,0,.06,0,.11,0,.16.09.84.22,1.67.36,2.5A40.87,40.87,0,0,0,12.15,70.47l0,0a0,0,0,0,1,0,0A41.5,41.5,0,0,0,33.91,81.82a3.32,3.32,0,0,0,1.17-6.54Z"/><path class="cls-1" d="M39.18,14.44a2.68,2.68,0,0,0-2.68,2.68V43.83L60.94,56.47a2.69,2.69,0,0,0,2.47-4.77L41.87,40.57V17.12A2.7,2.7,0,0,0,39.18,14.44Z"/></g></g></g></svg>